G04*
G04 #@! TF.GenerationSoftware,Altium Limited,Altium Designer,21.9.2 (33)*
G04*
G04 Layer_Physical_Order=2*
G04 Layer_Color=16711680*
%FSLAX25Y25*%
%MOIN*%
G70*
G04*
G04 #@! TF.SameCoordinates,73920E6A-4BEC-4EA8-B9E3-355B446DA2E4*
G04*
G04*
G04 #@! TF.FilePolarity,Positive*
G04*
G01*
G75*
%ADD12C,0.00800*%
%ADD16C,0.01000*%
%ADD81C,0.00891*%
%ADD82C,0.01900*%
%ADD83C,0.01800*%
%ADD84C,0.03600*%
%ADD85C,0.01200*%
%ADD87C,0.01400*%
%ADD89C,0.06000*%
%ADD90O,0.03937X0.06299*%
%ADD91O,0.03937X0.08268*%
%ADD92C,0.24000*%
%ADD93C,0.02362*%
%ADD94C,0.02300*%
%ADD95C,0.03600*%
%ADD96C,0.02559*%
%ADD97C,0.02756*%
%ADD98C,0.03937*%
G36*
X563628Y455503D02*
X564213Y455054D01*
X564894Y454772D01*
X565625Y454676D01*
X573277D01*
X573467Y453719D01*
X572745Y453420D01*
X572125Y452944D01*
X571649Y452324D01*
X571350Y451602D01*
X571248Y450827D01*
Y449161D01*
X574242D01*
Y448162D01*
X571248D01*
Y446496D01*
X571350Y445721D01*
X571649Y444999D01*
X570855Y444394D01*
X569056Y446193D01*
Y446684D01*
X568724Y447485D01*
X568111Y448099D01*
X567309Y448431D01*
X566441D01*
X565639Y448099D01*
X565026Y447485D01*
X564694Y446684D01*
Y445816D01*
X564790Y445583D01*
X563943Y445017D01*
X559167Y449792D01*
X558689Y450112D01*
X558125Y450224D01*
X544085D01*
X531906Y462403D01*
Y462934D01*
X531573Y463735D01*
X531008Y464301D01*
X531025Y464545D01*
X531275Y465301D01*
X553830D01*
X563628Y455503D01*
D02*
G37*
G36*
X651486Y469625D02*
X650586Y468971D01*
X649139Y467524D01*
X647936Y465869D01*
X647008Y464045D01*
X646375Y462099D01*
X646055Y460078D01*
Y459555D01*
X659055D01*
Y459055D01*
X659555D01*
Y446055D01*
X660078D01*
X662099Y446375D01*
X664045Y447008D01*
X665869Y447936D01*
X667524Y449139D01*
X668971Y450586D01*
X669625Y451486D01*
X670625Y451161D01*
Y98839D01*
X669625Y98514D01*
X668971Y99414D01*
X667524Y100861D01*
X665997Y101970D01*
X665947Y102460D01*
X666071Y103083D01*
X666235Y103151D01*
X666849Y103764D01*
X667181Y104566D01*
Y105434D01*
X666849Y106236D01*
X666235Y106849D01*
X665434Y107181D01*
X664566D01*
X663764Y106849D01*
X663151Y106236D01*
X662819Y105434D01*
Y104566D01*
X662878Y104423D01*
X662131Y103615D01*
X662099Y103625D01*
X660078Y103945D01*
X659555D01*
Y90945D01*
X659055D01*
Y90445D01*
X646055D01*
Y89922D01*
X646375Y87901D01*
X647008Y85955D01*
X647936Y84131D01*
X649139Y82476D01*
X650586Y81029D01*
X651486Y80375D01*
X651161Y79375D01*
X298838D01*
X298514Y80375D01*
X299414Y81029D01*
X300861Y82476D01*
X302063Y84131D01*
X302993Y85955D01*
X303625Y87901D01*
X303945Y89922D01*
Y90445D01*
X290945D01*
Y90945D01*
X290445D01*
Y103945D01*
X289922D01*
X287901Y103625D01*
X285955Y102992D01*
X284131Y102064D01*
X282476Y100861D01*
X281029Y99414D01*
X280375Y98514D01*
X279375Y98839D01*
Y451161D01*
X280375Y451486D01*
X281029Y450586D01*
X282476Y449139D01*
X284131Y447936D01*
X285955Y447008D01*
X287901Y446375D01*
X289922Y446055D01*
X290445D01*
Y459055D01*
X290945D01*
Y459555D01*
X303945D01*
Y460078D01*
X303625Y462099D01*
X302993Y464045D01*
X302063Y465869D01*
X300861Y467524D01*
X299414Y468971D01*
X298514Y469625D01*
X298839Y470625D01*
X387717D01*
X388131Y469625D01*
X378830Y460324D01*
X377660D01*
X377418Y460862D01*
X377383Y461324D01*
X377875Y461702D01*
X378351Y462322D01*
X378650Y463044D01*
X378752Y463819D01*
Y464500D01*
X375758D01*
X372764D01*
Y463819D01*
X372866Y463044D01*
X373165Y462322D01*
X373641Y461702D01*
X374133Y461324D01*
X374098Y460862D01*
X373856Y460324D01*
X343644D01*
X343402Y460862D01*
X343367Y461324D01*
X343859Y461702D01*
X344335Y462322D01*
X344634Y463044D01*
X344736Y463819D01*
Y464500D01*
X341742D01*
X338748D01*
Y463819D01*
X338850Y463044D01*
X339149Y462322D01*
X339625Y461702D01*
X340117Y461324D01*
X340082Y460862D01*
X339840Y460324D01*
X338125D01*
X337394Y460228D01*
X336713Y459946D01*
X336128Y459497D01*
X329253Y452622D01*
X328804Y452037D01*
X328522Y451356D01*
X328426Y450625D01*
Y425000D01*
X328522Y424269D01*
X328804Y423588D01*
X329253Y423003D01*
X329838Y422554D01*
X330519Y422272D01*
X331250Y422176D01*
X331981Y422272D01*
X332662Y422554D01*
X333247Y423003D01*
X333696Y423588D01*
X333978Y424269D01*
X334074Y425000D01*
Y449455D01*
X339295Y454676D01*
X340777D01*
X340967Y453719D01*
X340245Y453420D01*
X339625Y452944D01*
X339149Y452324D01*
X338850Y451602D01*
X338748Y450827D01*
Y449161D01*
X341742D01*
Y448662D01*
X342242D01*
Y443568D01*
X342517Y443604D01*
X343239Y443903D01*
X343859Y444379D01*
X344335Y444999D01*
X344634Y445721D01*
X344736Y446496D01*
Y448628D01*
X345736Y449042D01*
X346081Y448697D01*
X346919Y448350D01*
X347826D01*
X348663Y448697D01*
X349305Y449339D01*
X349652Y450176D01*
Y451083D01*
X349305Y451921D01*
X348663Y452562D01*
X347826Y452910D01*
X346919D01*
X346081Y452562D01*
X345542Y452024D01*
X344936Y452008D01*
X344429Y452096D01*
X344335Y452324D01*
X343859Y452944D01*
X343239Y453420D01*
X342517Y453719D01*
X342707Y454676D01*
X374793D01*
X374983Y453719D01*
X374261Y453420D01*
X373641Y452944D01*
X373165Y452324D01*
X373071Y452096D01*
X372564Y452008D01*
X371958Y452024D01*
X371419Y452562D01*
X370581Y452910D01*
X369674D01*
X368837Y452562D01*
X368196Y451921D01*
X367848Y451083D01*
Y450176D01*
X368196Y449339D01*
X368837Y448697D01*
X369674Y448350D01*
X370581D01*
X371419Y448697D01*
X371764Y449042D01*
X372764Y448628D01*
Y446496D01*
X372866Y445721D01*
X373165Y444999D01*
X373641Y444379D01*
X374261Y443903D01*
X374983Y443604D01*
X375258Y443568D01*
Y448662D01*
X375758D01*
Y449161D01*
X378752D01*
Y450827D01*
X378650Y451602D01*
X378351Y452324D01*
X377875Y452944D01*
X377255Y453420D01*
X376533Y453719D01*
X376723Y454676D01*
X380000D01*
X380731Y454772D01*
X381412Y455054D01*
X381997Y455503D01*
X391795Y465301D01*
X528174D01*
X528424Y464545D01*
X528441Y464301D01*
X527875Y463735D01*
X527543Y462934D01*
Y462066D01*
X527875Y461265D01*
X528489Y460651D01*
X528892Y460484D01*
Y459402D01*
X528764Y459349D01*
X528151Y458736D01*
X527819Y457934D01*
Y457066D01*
X528151Y456264D01*
X528764Y455651D01*
X529566Y455319D01*
X530097D01*
X540208Y445208D01*
X540686Y444888D01*
X541250Y444776D01*
X555937D01*
X592057Y408656D01*
Y408126D01*
X591577Y407408D01*
X581515D01*
X581224Y408111D01*
X580611Y408724D01*
X579809Y409056D01*
X578941D01*
X578139Y408724D01*
X577526Y408111D01*
X577194Y407309D01*
Y406441D01*
X577526Y405640D01*
X578139Y405026D01*
X578941Y404694D01*
X579444D01*
X579786Y404465D01*
X580372Y404349D01*
X599628D01*
X600214Y404465D01*
X600710Y404797D01*
X601857Y405944D01*
X602309D01*
X603111Y406276D01*
X603724Y406889D01*
X603919Y407360D01*
X604824Y407661D01*
X605040Y407653D01*
X608444Y404249D01*
Y403941D01*
X608776Y403139D01*
X609389Y402526D01*
X610191Y402194D01*
X611059D01*
X611861Y402526D01*
X612078Y402744D01*
X619949D01*
X658994Y363699D01*
Y335799D01*
X658070Y335416D01*
X631194Y362292D01*
X630716Y362612D01*
X630152Y362724D01*
X584134D01*
X584056Y362801D01*
Y362934D01*
X583724Y363736D01*
X583111Y364349D01*
X582309Y364681D01*
X581441D01*
X580796Y364414D01*
X567689Y377520D01*
X567925Y378699D01*
X568111Y378776D01*
X568724Y379390D01*
X569056Y380191D01*
Y381059D01*
X568724Y381860D01*
X568111Y382474D01*
X567309Y382806D01*
X566778D01*
X563974Y385611D01*
Y419014D01*
X564349Y419389D01*
X564681Y420191D01*
Y421059D01*
X564349Y421861D01*
X563735Y422474D01*
X562934Y422806D01*
X562066D01*
X561265Y422474D01*
X560651Y421861D01*
X560319Y421059D01*
Y420191D01*
X560651Y419389D01*
X561026Y419014D01*
Y385598D01*
X560026Y385183D01*
X545642Y399568D01*
X546208Y400415D01*
X546441Y400319D01*
X547309D01*
X548110Y400651D01*
X548724Y401264D01*
X549056Y402066D01*
Y402934D01*
X548724Y403735D01*
X549180Y404694D01*
X549184D01*
X549986Y405026D01*
X550361Y405401D01*
X554014D01*
X554389Y405026D01*
X555191Y404694D01*
X556059D01*
X556860Y405026D01*
X557474Y405640D01*
X557806Y406441D01*
Y407309D01*
X557474Y408111D01*
X556860Y408724D01*
X556059Y409056D01*
X555191D01*
X554389Y408724D01*
X554014Y408349D01*
X550361D01*
X549986Y408724D01*
X549184Y409056D01*
X548316D01*
X547514Y408724D01*
X546901Y408111D01*
X546569Y407309D01*
Y406527D01*
X546342Y406336D01*
X545660Y406022D01*
X543728Y407954D01*
Y436101D01*
X543946Y436319D01*
X544277Y437120D01*
Y437988D01*
X543946Y438790D01*
X543332Y439403D01*
X542530Y439735D01*
X541663D01*
X540861Y439403D01*
X540247Y438790D01*
X539915Y437988D01*
Y437120D01*
X540247Y436319D01*
X540465Y436101D01*
Y407278D01*
X540589Y406654D01*
X540943Y406125D01*
X544375Y402693D01*
X544358Y402265D01*
X543342Y401868D01*
X531474Y413735D01*
Y437500D01*
X531362Y438064D01*
X531042Y438542D01*
X523164Y446421D01*
X523431Y447066D01*
Y447934D01*
X523099Y448736D01*
X522485Y449349D01*
X521684Y449681D01*
X520816D01*
X520014Y449349D01*
X519974Y449308D01*
X518974Y449723D01*
Y450889D01*
X519349Y451264D01*
X519681Y452066D01*
Y452934D01*
X519349Y453735D01*
X518736Y454349D01*
X517934Y454681D01*
X517066D01*
X516264Y454349D01*
X515651Y453735D01*
X515319Y452934D01*
Y452066D01*
X515651Y451264D01*
X516026Y450889D01*
Y446875D01*
X516138Y446311D01*
X516458Y445833D01*
X524149Y438141D01*
X524172Y438022D01*
X523817Y437059D01*
X523540Y437037D01*
X501851Y458726D01*
X501288Y459101D01*
X500625Y459233D01*
X410101D01*
X409985Y459349D01*
X409184Y459681D01*
X408316D01*
X407514Y459349D01*
X406901Y458736D01*
X406569Y457934D01*
Y457066D01*
X406901Y456264D01*
X407514Y455651D01*
X408316Y455319D01*
X409184D01*
X409985Y455651D01*
X410101Y455767D01*
X499907D01*
X522524Y433149D01*
X523087Y432774D01*
X523624Y432667D01*
X523765Y432526D01*
X524566Y432194D01*
X525434D01*
X526316Y431477D01*
Y412210D01*
X526429Y411646D01*
X526748Y411167D01*
X551061Y386855D01*
X550825Y385676D01*
X550639Y385599D01*
X550026Y384985D01*
X549694Y384184D01*
Y383316D01*
X550026Y382515D01*
X550639Y381901D01*
X551441Y381569D01*
X551749D01*
X555096Y378222D01*
X555626Y377868D01*
X555932Y376787D01*
X555730Y376585D01*
X555398Y375783D01*
Y374916D01*
X555730Y374114D01*
X556343Y373500D01*
X557145Y373168D01*
X558013D01*
X558814Y373500D01*
X559428Y374114D01*
X560272Y374282D01*
X573994Y360560D01*
Y356453D01*
X573776Y356236D01*
X573444Y355434D01*
Y354566D01*
X573534Y354349D01*
X572885Y353349D01*
X553111D01*
X545224Y361235D01*
Y369014D01*
X545599Y369390D01*
X545931Y370191D01*
Y371059D01*
X545599Y371861D01*
X544985Y372474D01*
X544184Y372806D01*
X543316D01*
X542515Y372474D01*
X541901Y371861D01*
X541569Y371059D01*
Y370191D01*
X541901Y369390D01*
X542276Y369014D01*
Y360625D01*
X542388Y360061D01*
X542708Y359583D01*
X551458Y350833D01*
X551936Y350513D01*
X552500Y350401D01*
X625000D01*
X625564Y350513D01*
X626042Y350833D01*
X627403Y352194D01*
X627934D01*
X628735Y352526D01*
X629349Y353139D01*
X629681Y353941D01*
Y354809D01*
X629349Y355610D01*
X628735Y356224D01*
X627934Y356556D01*
X627066D01*
X626264Y356224D01*
X625651Y355610D01*
X625319Y354809D01*
Y354278D01*
X624390Y353349D01*
X578365D01*
X577716Y354349D01*
X577806Y354566D01*
Y355434D01*
X577474Y356236D01*
X577256Y356453D01*
Y359353D01*
X578180Y359735D01*
X579694Y358222D01*
Y357691D01*
X580026Y356890D01*
X580640Y356276D01*
X581441Y355944D01*
X582309D01*
X583111Y356276D01*
X583724Y356890D01*
X584056Y357691D01*
Y357901D01*
X628764D01*
X654776Y331890D01*
Y282637D01*
X653613Y281474D01*
X646246D01*
X646227Y281544D01*
X645701Y282456D01*
X644956Y283201D01*
X644044Y283727D01*
X643027Y284000D01*
X641973D01*
X640956Y283727D01*
X640044Y283201D01*
X639299Y282456D01*
X638773Y281544D01*
X638500Y280527D01*
Y279473D01*
X638773Y278456D01*
X639299Y277544D01*
X640044Y276799D01*
X640956Y276273D01*
X641973Y276000D01*
X643027D01*
X644044Y276273D01*
X644956Y276799D01*
X645701Y277544D01*
X646227Y278456D01*
X646246Y278526D01*
X654223D01*
X654787Y278638D01*
X655266Y278958D01*
X655727Y279419D01*
X656651Y279037D01*
Y275610D01*
X652515Y271474D01*
X646246D01*
X646227Y271544D01*
X645701Y272456D01*
X644956Y273201D01*
X644044Y273727D01*
X643027Y274000D01*
X641973D01*
X640956Y273727D01*
X640044Y273201D01*
X639299Y272456D01*
X638773Y271544D01*
X638500Y270527D01*
Y269473D01*
X638773Y268456D01*
X639299Y267544D01*
X640044Y266799D01*
X640956Y266273D01*
X641973Y266000D01*
X643027D01*
X644044Y266273D01*
X644956Y266799D01*
X645701Y267544D01*
X646227Y268456D01*
X646246Y268526D01*
X653125D01*
X653689Y268638D01*
X654167Y268958D01*
X658070Y272860D01*
X658994Y272478D01*
Y249426D01*
X651199Y241631D01*
X646177D01*
X645701Y242456D01*
X644956Y243201D01*
X644044Y243727D01*
X643027Y244000D01*
X641973D01*
X640956Y243727D01*
X640044Y243201D01*
X639299Y242456D01*
X638773Y241544D01*
X638500Y240527D01*
Y239473D01*
X638773Y238456D01*
X639299Y237544D01*
X640044Y236799D01*
X640956Y236273D01*
X640971Y236269D01*
Y234384D01*
X606242Y199654D01*
X548125D01*
X547540Y199538D01*
X547044Y199206D01*
X526866Y179029D01*
X524778D01*
X524349Y180015D01*
X524681Y180816D01*
Y181684D01*
X524349Y182485D01*
X523736Y183099D01*
X522934Y183431D01*
X522066D01*
X521265Y183099D01*
X520889Y182724D01*
X427236D01*
X426861Y183099D01*
X426059Y183431D01*
X425191D01*
X424390Y183099D01*
X423776Y182485D01*
X423444Y181684D01*
Y180816D01*
X423776Y180015D01*
X424390Y179401D01*
X425191Y179069D01*
X426059D01*
X426861Y179401D01*
X427236Y179776D01*
X440902D01*
X441317Y178776D01*
X441276Y178735D01*
X440944Y177934D01*
Y177066D01*
X441276Y176265D01*
X441889Y175651D01*
X442691Y175319D01*
X443559D01*
X444360Y175651D01*
X444680Y175971D01*
X527500D01*
X528085Y176087D01*
X528581Y176419D01*
X548759Y196596D01*
X606875D01*
X607460Y196712D01*
X607956Y197044D01*
X643581Y232669D01*
X643913Y233165D01*
X644029Y233750D01*
Y236269D01*
X644044Y236273D01*
X644956Y236799D01*
X645701Y237544D01*
X646177Y238369D01*
X651875D01*
X652499Y238493D01*
X653028Y238846D01*
X661778Y247597D01*
X662132Y248126D01*
X662256Y248750D01*
Y364375D01*
X662132Y364999D01*
X661778Y365528D01*
X629147Y398160D01*
X629461Y398842D01*
X629652Y399069D01*
X630434D01*
X631236Y399401D01*
X631849Y400014D01*
X632181Y400816D01*
Y401684D01*
X631849Y402486D01*
X631236Y403099D01*
X630434Y403431D01*
X629903D01*
X626474Y406860D01*
Y412764D01*
X626849Y413139D01*
X627181Y413941D01*
Y414809D01*
X626849Y415611D01*
X626235Y416224D01*
X625434Y416556D01*
X624566D01*
X623765Y416224D01*
X623151Y415611D01*
X622819Y414809D01*
Y413941D01*
X623151Y413139D01*
X623526Y412764D01*
Y406250D01*
X623638Y405686D01*
X623958Y405208D01*
X627420Y401745D01*
X627477Y401401D01*
X627448Y401274D01*
X626347Y400960D01*
X621778Y405528D01*
X621249Y405882D01*
X620625Y406006D01*
X612078D01*
X611861Y406224D01*
X611059Y406556D01*
X610751D01*
X603653Y413654D01*
X603124Y414007D01*
X602500Y414131D01*
X601118D01*
X576067Y439182D01*
X576235Y440026D01*
X576849Y440639D01*
X577181Y441441D01*
Y441749D01*
X580676Y445244D01*
X583535D01*
X583942Y444244D01*
X580974Y441276D01*
X580583Y441114D01*
X579979Y440509D01*
X579651Y439719D01*
Y438864D01*
X579979Y438073D01*
X580583Y437469D01*
X581374Y437141D01*
X582229D01*
X583019Y437469D01*
X583624Y438073D01*
X583786Y438464D01*
X584425Y439104D01*
X585605Y438869D01*
X585651Y438758D01*
X586265Y438145D01*
X587066Y437813D01*
X587603D01*
X589776Y435639D01*
Y435000D01*
X589888Y434436D01*
X590208Y433958D01*
X592319Y431847D01*
Y431316D01*
X592651Y430514D01*
X593264Y429901D01*
X594066Y429569D01*
X594934D01*
X595736Y429901D01*
X596349Y430514D01*
X596681Y431316D01*
Y432184D01*
X596349Y432985D01*
X595736Y433599D01*
X594934Y433931D01*
X594403D01*
X592724Y435610D01*
Y436250D01*
X592612Y436814D01*
X592292Y437292D01*
X589681Y439903D01*
Y440428D01*
X590155Y441137D01*
X596042D01*
X598714Y438464D01*
X598876Y438073D01*
X599481Y437469D01*
X600271Y437141D01*
X601126D01*
X601917Y437469D01*
X602522Y438073D01*
X602849Y438864D01*
Y439719D01*
X602522Y440509D01*
X601917Y441114D01*
X601526Y441276D01*
X598558Y444244D01*
X598965Y445244D01*
X600958D01*
X604856Y441347D01*
X605385Y440993D01*
X606009Y440869D01*
X617755D01*
X617972Y440651D01*
X618774Y440319D01*
X619641D01*
X620443Y440651D01*
X621057Y441264D01*
X621389Y442066D01*
Y442934D01*
X621057Y443736D01*
X620443Y444349D01*
X619641Y444681D01*
X618774D01*
X617972Y444349D01*
X617755Y444131D01*
X611446D01*
X611091Y444648D01*
X610906Y445131D01*
X611150Y445721D01*
X611252Y446496D01*
Y448162D01*
X608258D01*
Y449161D01*
X611252D01*
Y450827D01*
X611150Y451602D01*
X610851Y452324D01*
X610375Y452944D01*
X609755Y453420D01*
X609033Y453719D01*
X609223Y454676D01*
X615000D01*
X615731Y454772D01*
X616412Y455054D01*
X616997Y455503D01*
X618670Y457176D01*
X634455D01*
X639676Y451955D01*
Y391875D01*
X639772Y391144D01*
X640054Y390463D01*
X640503Y389878D01*
X641088Y389429D01*
X641769Y389147D01*
X642500Y389051D01*
X643231Y389147D01*
X643912Y389429D01*
X644497Y389878D01*
X644946Y390463D01*
X645228Y391144D01*
X645324Y391875D01*
Y453125D01*
X645228Y453856D01*
X644946Y454537D01*
X644497Y455122D01*
X637622Y461997D01*
X637037Y462446D01*
X636356Y462728D01*
X635625Y462824D01*
X617500D01*
X616769Y462728D01*
X616088Y462446D01*
X615503Y461997D01*
X613830Y460324D01*
X610160D01*
X609918Y460862D01*
X609883Y461324D01*
X610375Y461702D01*
X610851Y462322D01*
X611150Y463044D01*
X611252Y463819D01*
Y464500D01*
X608258D01*
X605264D01*
Y463819D01*
X605366Y463044D01*
X605665Y462322D01*
X606141Y461702D01*
X606633Y461324D01*
X606598Y460862D01*
X606356Y460324D01*
X576144D01*
X575902Y460862D01*
X575867Y461324D01*
X576359Y461702D01*
X576835Y462322D01*
X577134Y463044D01*
X577236Y463819D01*
Y464500D01*
X574242D01*
X571248D01*
Y463819D01*
X571350Y463044D01*
X571649Y462322D01*
X572125Y461702D01*
X572617Y461324D01*
X572582Y460862D01*
X572340Y460324D01*
X566795D01*
X557494Y469625D01*
X557908Y470625D01*
X651161D01*
X651486Y469625D01*
D02*
G37*
%LPC*%
G36*
X608758Y469109D02*
Y465500D01*
X611252D01*
Y466181D01*
X611150Y466956D01*
X610851Y467678D01*
X610375Y468298D01*
X609755Y468774D01*
X609033Y469073D01*
X608758Y469109D01*
D02*
G37*
G36*
X376258D02*
Y465500D01*
X378752D01*
Y466181D01*
X378650Y466956D01*
X378351Y467678D01*
X377875Y468298D01*
X377255Y468774D01*
X376533Y469073D01*
X376258Y469109D01*
D02*
G37*
G36*
X574742Y469109D02*
Y465500D01*
X577236D01*
Y466181D01*
X577134Y466956D01*
X576835Y467678D01*
X576359Y468298D01*
X575739Y468774D01*
X575017Y469073D01*
X574742Y469109D01*
D02*
G37*
G36*
X342242D02*
Y465500D01*
X344736D01*
Y466181D01*
X344634Y466956D01*
X344335Y467678D01*
X343859Y468298D01*
X343239Y468774D01*
X342517Y469073D01*
X342242Y469109D01*
D02*
G37*
G36*
X573742Y469109D02*
X573467Y469073D01*
X572745Y468774D01*
X572125Y468298D01*
X571649Y467678D01*
X571350Y466956D01*
X571248Y466181D01*
Y465500D01*
X573742D01*
Y469109D01*
D02*
G37*
G36*
X341242D02*
X340967Y469073D01*
X340245Y468774D01*
X339625Y468298D01*
X339149Y467678D01*
X338850Y466956D01*
X338748Y466181D01*
Y465500D01*
X341242D01*
Y469109D01*
D02*
G37*
G36*
X607758Y469109D02*
X607483Y469073D01*
X606761Y468774D01*
X606141Y468298D01*
X605665Y467678D01*
X605366Y466956D01*
X605264Y466181D01*
Y465500D01*
X607758D01*
Y469109D01*
D02*
G37*
G36*
X375258D02*
X374983Y469073D01*
X374261Y468774D01*
X373641Y468298D01*
X373165Y467678D01*
X372866Y466956D01*
X372764Y466181D01*
Y465500D01*
X375258D01*
Y469109D01*
D02*
G37*
G36*
X658555Y458555D02*
X646055D01*
Y458032D01*
X646375Y456011D01*
X647008Y454065D01*
X647936Y452242D01*
X649139Y450586D01*
X650586Y449139D01*
X652242Y447936D01*
X654065Y447008D01*
X656011Y446375D01*
X658032Y446055D01*
X658555D01*
Y458555D01*
D02*
G37*
G36*
X303945D02*
X291445D01*
Y446055D01*
X291968D01*
X293989Y446375D01*
X295935Y447008D01*
X297758Y447936D01*
X299414Y449139D01*
X300861Y450586D01*
X302063Y452242D01*
X302993Y454065D01*
X303625Y456011D01*
X303945Y458032D01*
Y458555D01*
D02*
G37*
G36*
X378752Y448162D02*
X376258D01*
Y443568D01*
X376533Y443604D01*
X377255Y443903D01*
X377875Y444379D01*
X378351Y444999D01*
X378650Y445721D01*
X378752Y446496D01*
Y448162D01*
D02*
G37*
G36*
X341242D02*
X338748D01*
Y446496D01*
X338850Y445721D01*
X339149Y444999D01*
X339625Y444379D01*
X340245Y443903D01*
X340967Y443604D01*
X341242Y443568D01*
Y448162D01*
D02*
G37*
G36*
X368626Y441441D02*
X367771D01*
X367380Y441280D01*
X350119D01*
X349729Y441441D01*
X348873D01*
X348083Y441114D01*
X347479Y440509D01*
X347151Y439719D01*
Y438864D01*
X347479Y438073D01*
X348083Y437469D01*
X348873Y437141D01*
X349729D01*
X350119Y437303D01*
X367380D01*
X367771Y437141D01*
X368626D01*
X369417Y437469D01*
X370022Y438073D01*
X370349Y438864D01*
Y439719D01*
X370022Y440509D01*
X369417Y441114D01*
X368626Y441441D01*
D02*
G37*
G36*
X435434Y409681D02*
X434566D01*
X433765Y409349D01*
X433151Y408736D01*
X432819Y407934D01*
Y407677D01*
X409681D01*
Y407934D01*
X409349Y408736D01*
X408736Y409349D01*
X407934Y409681D01*
X407066D01*
X406264Y409349D01*
X405651Y408736D01*
X405319Y407934D01*
Y407066D01*
X405651Y406264D01*
X406264Y405651D01*
X406530Y405541D01*
Y404459D01*
X406264Y404349D01*
X405651Y403735D01*
X405319Y402934D01*
Y402066D01*
X405651Y401264D01*
X406264Y400651D01*
X407066Y400319D01*
X407934D01*
X408736Y400651D01*
X409349Y401264D01*
X409681Y402066D01*
Y402323D01*
X432819D01*
Y402066D01*
X433151Y401264D01*
X433765Y400651D01*
X434566Y400319D01*
X435434D01*
X436236Y400651D01*
X436849Y401264D01*
X437181Y402066D01*
Y402934D01*
X436849Y403735D01*
X436236Y404349D01*
X435970Y404459D01*
Y405541D01*
X436236Y405651D01*
X436849Y406264D01*
X437181Y407066D01*
Y407934D01*
X436849Y408736D01*
X436236Y409349D01*
X435434Y409681D01*
D02*
G37*
G36*
X530434Y404681D02*
X529566D01*
X528764Y404349D01*
X528389Y403974D01*
X516611D01*
X516235Y404349D01*
X515434Y404681D01*
X514566D01*
X513764Y404349D01*
X513151Y403735D01*
X512819Y402934D01*
Y402066D01*
X513151Y401264D01*
X513764Y400651D01*
X514566Y400319D01*
X515434D01*
X516235Y400651D01*
X516611Y401026D01*
X528389D01*
X528764Y400651D01*
X529566Y400319D01*
X530434D01*
X531236Y400651D01*
X531849Y401264D01*
X532181Y402066D01*
Y402934D01*
X531849Y403735D01*
X531236Y404349D01*
X530434Y404681D01*
D02*
G37*
G36*
X392309Y459681D02*
X391441D01*
X390639Y459349D01*
X390026Y458736D01*
X389694Y457934D01*
Y457066D01*
X389938Y456477D01*
Y428927D01*
X375448Y414437D01*
X350625D01*
X349884Y414290D01*
X349255Y413870D01*
X334880Y399495D01*
X334460Y398866D01*
X334313Y398125D01*
Y393523D01*
X334069Y392934D01*
Y392066D01*
X334401Y391265D01*
X335015Y390651D01*
X335816Y390319D01*
X336684D01*
X337486Y390651D01*
X338099Y391265D01*
X338431Y392066D01*
Y392934D01*
X338187Y393523D01*
Y397323D01*
X351427Y410563D01*
X376250D01*
X376991Y410710D01*
X377620Y411130D01*
X393245Y426755D01*
X393665Y427384D01*
X393812Y428125D01*
Y456477D01*
X394056Y457066D01*
Y457934D01*
X393724Y458736D01*
X393110Y459349D01*
X392309Y459681D01*
D02*
G37*
G36*
X643027Y314000D02*
X641973D01*
X640956Y313727D01*
X640044Y313201D01*
X639299Y312456D01*
X638773Y311544D01*
X638500Y310527D01*
Y309473D01*
X638773Y308456D01*
X639299Y307544D01*
X640044Y306799D01*
X640956Y306273D01*
X641973Y306000D01*
X643027D01*
X644044Y306273D01*
X644956Y306799D01*
X645701Y307544D01*
X646227Y308456D01*
X646500Y309473D01*
Y310527D01*
X646227Y311544D01*
X645701Y312456D01*
X644956Y313201D01*
X644044Y313727D01*
X643027Y314000D01*
D02*
G37*
G36*
X571684Y314056D02*
X570816D01*
X570014Y313724D01*
X569401Y313110D01*
X569069Y312309D01*
Y311441D01*
X569401Y310640D01*
X570014Y310026D01*
X570603Y309782D01*
X573630Y306755D01*
X574259Y306335D01*
X575000Y306188D01*
X603494D01*
X603962Y306281D01*
X604590Y305711D01*
X604717Y305489D01*
X604694Y305434D01*
Y304566D01*
X605026Y303765D01*
X605640Y303151D01*
X606441Y302819D01*
X606893D01*
X610794Y298919D01*
X611290Y298587D01*
X611875Y298471D01*
X628769D01*
X628773Y298456D01*
X629299Y297544D01*
X630044Y296799D01*
X630956Y296273D01*
X631973Y296000D01*
X633027D01*
X634044Y296273D01*
X634956Y296799D01*
X635701Y297544D01*
X636227Y298456D01*
X636500Y299473D01*
Y300527D01*
X636227Y301544D01*
X635701Y302456D01*
X634956Y303201D01*
X634044Y303727D01*
X633027Y304000D01*
X631973D01*
X630956Y303727D01*
X630044Y303201D01*
X629299Y302456D01*
X628773Y301544D01*
X628769Y301529D01*
X612508D01*
X609056Y304982D01*
Y305434D01*
X608724Y306236D01*
X608111Y306849D01*
X607594Y307063D01*
X607793Y308063D01*
X629000D01*
X629299Y307544D01*
X630044Y306799D01*
X630956Y306273D01*
X631973Y306000D01*
X633027D01*
X634044Y306273D01*
X634956Y306799D01*
X635701Y307544D01*
X636227Y308456D01*
X636500Y309473D01*
Y310527D01*
X636227Y311544D01*
X635701Y312456D01*
X634956Y313201D01*
X634044Y313727D01*
X633027Y314000D01*
X631973D01*
X630956Y313727D01*
X630044Y313201D01*
X629299Y312456D01*
X629000Y311937D01*
X605369D01*
X604628Y311790D01*
X603999Y311370D01*
X602692Y310062D01*
X575802D01*
X573343Y312522D01*
X573099Y313110D01*
X572485Y313724D01*
X571684Y314056D01*
D02*
G37*
G36*
X643027Y304000D02*
X641973D01*
X640956Y303727D01*
X640044Y303201D01*
X639299Y302456D01*
X638773Y301544D01*
X638500Y300527D01*
Y299473D01*
X638773Y298456D01*
X639299Y297544D01*
X640044Y296799D01*
X640956Y296273D01*
X641973Y296000D01*
X643027D01*
X644044Y296273D01*
X644956Y296799D01*
X645701Y297544D01*
X646227Y298456D01*
X646500Y299473D01*
Y300527D01*
X646227Y301544D01*
X645701Y302456D01*
X644956Y303201D01*
X644044Y303727D01*
X643027Y304000D01*
D02*
G37*
G36*
Y294000D02*
X643000D01*
Y290500D01*
X646500D01*
Y290527D01*
X646227Y291544D01*
X645701Y292456D01*
X644956Y293201D01*
X644044Y293727D01*
X643027Y294000D01*
D02*
G37*
G36*
X642000D02*
X641973D01*
X640956Y293727D01*
X640044Y293201D01*
X639299Y292456D01*
X638773Y291544D01*
X638500Y290527D01*
Y290500D01*
X642000D01*
Y294000D01*
D02*
G37*
G36*
X646500Y289500D02*
X643000D01*
Y286000D01*
X643027D01*
X644044Y286273D01*
X644956Y286799D01*
X645701Y287544D01*
X646227Y288456D01*
X646500Y289473D01*
Y289500D01*
D02*
G37*
G36*
X642000D02*
X638500D01*
Y289473D01*
X638773Y288456D01*
X639299Y287544D01*
X640044Y286799D01*
X640956Y286273D01*
X641973Y286000D01*
X642000D01*
Y289500D01*
D02*
G37*
G36*
X603559Y297181D02*
X602691D01*
X601890Y296849D01*
X601276Y296235D01*
X600944Y295434D01*
Y294566D01*
X601276Y293764D01*
X601890Y293151D01*
X602691Y292819D01*
X603143D01*
X607044Y288919D01*
X607540Y288587D01*
X608125Y288471D01*
X628769D01*
X628773Y288456D01*
X629299Y287544D01*
X630044Y286799D01*
X630956Y286273D01*
X631973Y286000D01*
X633027D01*
X634044Y286273D01*
X634956Y286799D01*
X635701Y287544D01*
X636227Y288456D01*
X636500Y289473D01*
Y290527D01*
X636227Y291544D01*
X635701Y292456D01*
X634956Y293201D01*
X634044Y293727D01*
X633027Y294000D01*
X631973D01*
X630956Y293727D01*
X630044Y293201D01*
X629299Y292456D01*
X628773Y291544D01*
X628769Y291529D01*
X608758D01*
X605306Y294982D01*
Y295434D01*
X604974Y296235D01*
X604360Y296849D01*
X603559Y297181D01*
D02*
G37*
G36*
X633027Y284000D02*
X631973D01*
X630956Y283727D01*
X630044Y283201D01*
X629299Y282456D01*
X628773Y281544D01*
X628500Y280527D01*
Y279473D01*
X628773Y278456D01*
X629299Y277544D01*
X630044Y276799D01*
X630956Y276273D01*
X631973Y276000D01*
X633027D01*
X634044Y276273D01*
X634956Y276799D01*
X635701Y277544D01*
X636227Y278456D01*
X636500Y279473D01*
Y280527D01*
X636227Y281544D01*
X635701Y282456D01*
X634956Y283201D01*
X634044Y283727D01*
X633027Y284000D01*
D02*
G37*
G36*
X500434Y407181D02*
X499566D01*
X498765Y406849D01*
X498151Y406236D01*
X497819Y405434D01*
Y404566D01*
X498151Y403764D01*
X498526Y403389D01*
Y346250D01*
X498638Y345686D01*
X498958Y345208D01*
X580208Y263958D01*
X580686Y263638D01*
X581250Y263526D01*
X628955D01*
X629369Y262526D01*
X629299Y262456D01*
X628823Y261631D01*
X580051Y261631D01*
X479131Y362551D01*
Y389172D01*
X479349Y389389D01*
X479681Y390191D01*
Y391059D01*
X479349Y391861D01*
X478735Y392474D01*
X477934Y392806D01*
X477066D01*
X476264Y392474D01*
X475651Y391861D01*
X475541Y391596D01*
X474459D01*
X474349Y391861D01*
X473736Y392474D01*
X472934Y392806D01*
X472066D01*
X471265Y392474D01*
X470651Y391861D01*
X470541Y391596D01*
X469459D01*
X469349Y391861D01*
X468736Y392474D01*
X467934Y392806D01*
X467066D01*
X466264Y392474D01*
X465651Y391861D01*
X465541Y391596D01*
X464459D01*
X464349Y391861D01*
X463735Y392474D01*
X462934Y392806D01*
X462066D01*
X461265Y392474D01*
X460651Y391861D01*
X460541Y391596D01*
X459459D01*
X459349Y391861D01*
X458736Y392474D01*
X457934Y392806D01*
X457066D01*
X456264Y392474D01*
X455651Y391861D01*
X455319Y391059D01*
Y390191D01*
X455651Y389389D01*
X455869Y389172D01*
Y369426D01*
X315096Y228654D01*
X314743Y228124D01*
X314619Y227500D01*
Y123328D01*
X314401Y123110D01*
X314069Y122309D01*
Y121441D01*
X314401Y120640D01*
X315015Y120026D01*
X315816Y119694D01*
X316684D01*
X317485Y120026D01*
X318099Y120640D01*
X318431Y121441D01*
Y122309D01*
X318099Y123110D01*
X317881Y123328D01*
Y226824D01*
X458653Y367597D01*
X459007Y368126D01*
X459131Y368750D01*
Y389172D01*
X459227Y389267D01*
X460055Y389339D01*
X460383Y389315D01*
X460869Y388790D01*
Y355662D01*
X460993Y355037D01*
X461346Y354508D01*
X572008Y243847D01*
X572538Y243493D01*
X573162Y243369D01*
X628798Y243369D01*
X629148Y242731D01*
X629249Y242369D01*
X628773Y241544D01*
X628500Y240527D01*
Y240500D01*
X632500D01*
X636500D01*
Y240527D01*
X636227Y241544D01*
X635751Y242369D01*
X635852Y242731D01*
X636202Y243369D01*
X637500D01*
X638124Y243493D01*
X638654Y243847D01*
X641053Y246247D01*
X641973Y246000D01*
X643027D01*
X644044Y246273D01*
X644956Y246799D01*
X645701Y247544D01*
X646227Y248456D01*
X646500Y249473D01*
Y250527D01*
X646227Y251544D01*
X645701Y252456D01*
X644956Y253201D01*
X644044Y253727D01*
X643027Y254000D01*
X641973D01*
X640956Y253727D01*
X640044Y253201D01*
X639299Y252456D01*
X638773Y251544D01*
X638500Y250527D01*
Y249473D01*
X638747Y248553D01*
X637101Y246908D01*
X636419Y246979D01*
X635951Y247977D01*
X636227Y248456D01*
X636500Y249473D01*
Y250527D01*
X636227Y251544D01*
X635701Y252456D01*
X634956Y253201D01*
X634044Y253727D01*
X633027Y254000D01*
X631973D01*
X630956Y253727D01*
X630044Y253201D01*
X629299Y252456D01*
X628823Y251631D01*
X582980Y251631D01*
X474131Y360480D01*
Y389172D01*
X474227Y389267D01*
X475055Y389339D01*
X475383Y389315D01*
X475869Y388790D01*
Y361875D01*
X475993Y361251D01*
X476346Y360721D01*
X578221Y258846D01*
X578751Y258493D01*
X579375Y258369D01*
X579375Y258369D01*
X628823Y258369D01*
X629299Y257544D01*
X630044Y256799D01*
X630956Y256273D01*
X631973Y256000D01*
X633027D01*
X634044Y256273D01*
X634956Y256799D01*
X635701Y257544D01*
X636227Y258456D01*
X636500Y259473D01*
Y260527D01*
X636227Y261544D01*
X635703Y262453D01*
X635858Y262846D01*
X636060Y263348D01*
X636969Y263447D01*
X638809Y261607D01*
X638773Y261544D01*
X638500Y260527D01*
Y259473D01*
X638773Y258456D01*
X639299Y257544D01*
X640044Y256799D01*
X640956Y256273D01*
X641973Y256000D01*
X643027D01*
X644044Y256273D01*
X644956Y256799D01*
X645701Y257544D01*
X646227Y258456D01*
X646500Y259473D01*
Y260527D01*
X646227Y261544D01*
X645701Y262456D01*
X644956Y263201D01*
X644044Y263727D01*
X643027Y264000D01*
X641973D01*
X640956Y263727D01*
X640893Y263691D01*
X638542Y266042D01*
X638064Y266362D01*
X637500Y266474D01*
X636045D01*
X635631Y267474D01*
X635701Y267544D01*
X636227Y268456D01*
X636500Y269473D01*
Y270527D01*
X636227Y271544D01*
X635701Y272456D01*
X634956Y273201D01*
X634044Y273727D01*
X633027Y274000D01*
X631973D01*
X630956Y273727D01*
X630044Y273201D01*
X629299Y272456D01*
X628773Y271544D01*
X628500Y270527D01*
Y269473D01*
X628773Y268456D01*
X629299Y267544D01*
X629369Y267474D01*
X628955Y266474D01*
X581860D01*
X501474Y346861D01*
Y403389D01*
X501849Y403764D01*
X502181Y404566D01*
Y405434D01*
X501849Y406236D01*
X501235Y406849D01*
X500434Y407181D01*
D02*
G37*
G36*
X636500Y239500D02*
X633000D01*
Y236000D01*
X633027D01*
X634044Y236273D01*
X634956Y236799D01*
X635701Y237544D01*
X636227Y238456D01*
X636500Y239473D01*
Y239500D01*
D02*
G37*
G36*
X632000D02*
X628500D01*
Y239473D01*
X628773Y238456D01*
X629299Y237544D01*
X630044Y236799D01*
X630956Y236273D01*
X631973Y236000D01*
X632000D01*
Y239500D01*
D02*
G37*
G36*
X395121Y249369D02*
X394254D01*
X393452Y249037D01*
X392839Y248423D01*
X392506Y247621D01*
Y246754D01*
X392750Y246165D01*
Y179062D01*
X392898Y178321D01*
X393318Y177693D01*
X399782Y171228D01*
X400026Y170640D01*
X400639Y170026D01*
X401228Y169782D01*
X467380Y103630D01*
X468009Y103210D01*
X468750Y103063D01*
X528352D01*
X528941Y102819D01*
X529809D01*
X530611Y103151D01*
X531224Y103764D01*
X531468Y104353D01*
X551370Y124255D01*
X551790Y124884D01*
X551937Y125625D01*
Y186477D01*
X552181Y187066D01*
Y187934D01*
X551849Y188735D01*
X551235Y189349D01*
X550434Y189681D01*
X549566D01*
X548765Y189349D01*
X548151Y188735D01*
X547819Y187934D01*
Y187066D01*
X548063Y186477D01*
Y126427D01*
X528728Y107093D01*
X528352Y106937D01*
X469552D01*
X403968Y172522D01*
X403724Y173110D01*
X403111Y173724D01*
X402522Y173968D01*
X396625Y179865D01*
Y246165D01*
X396869Y246754D01*
Y247621D01*
X396536Y248423D01*
X395923Y249037D01*
X395121Y249369D01*
D02*
G37*
G36*
X655434Y107181D02*
X654566D01*
X653764Y106849D01*
X653151Y106236D01*
X652819Y105434D01*
Y104566D01*
X653151Y103764D01*
X653227Y103688D01*
X653034Y102467D01*
X652242Y102064D01*
X650586Y100861D01*
X649139Y99414D01*
X647936Y97758D01*
X647008Y95935D01*
X646375Y93989D01*
X646055Y91968D01*
Y91445D01*
X658555D01*
Y103945D01*
X658032D01*
X658004Y103940D01*
X657740Y104142D01*
X657181Y104823D01*
Y105434D01*
X656849Y106236D01*
X656236Y106849D01*
X655434Y107181D01*
D02*
G37*
G36*
X291968Y103945D02*
X291445D01*
Y91445D01*
X303945D01*
Y91968D01*
X303625Y93989D01*
X302993Y95935D01*
X302063Y97758D01*
X300861Y99414D01*
X299414Y100861D01*
X297758Y102064D01*
X295935Y102992D01*
X293989Y103625D01*
X291968Y103945D01*
D02*
G37*
%LPD*%
D12*
X433750Y403750D02*
X435000Y402500D01*
X433750Y406250D02*
X435000Y407500D01*
X408750Y403750D02*
X433750D01*
X407500Y402500D02*
X408750Y403750D01*
Y406250D02*
X433750D01*
X407500Y407500D02*
X408750Y406250D01*
D16*
X642500Y233750D02*
Y240000D01*
X548125Y198125D02*
X606875D01*
X642500Y233750D01*
X527500Y177500D02*
X548125Y198125D01*
X443125Y177500D02*
X527500D01*
X606875Y305000D02*
X611875Y300000D01*
X632500D01*
X608125Y290000D02*
X632500D01*
X603125Y295000D02*
X608125Y290000D01*
X579375Y406875D02*
X580372Y405878D01*
X599628D01*
X601875Y408125D01*
D81*
X625000Y406250D02*
Y414375D01*
Y406250D02*
X630000Y401250D01*
X552500Y351875D02*
X625000D01*
X627500Y354375D01*
X543750Y360625D02*
Y370625D01*
Y360625D02*
X552500Y351875D01*
X642500Y270000D02*
X653125D01*
X658125Y275000D01*
Y333277D01*
X637500Y265000D02*
X642500Y260000D01*
X581250Y265000D02*
X637500D01*
X500000Y346250D02*
X581250Y265000D01*
X500000Y346250D02*
Y405000D01*
X529724Y462500D02*
X543474Y448750D01*
X558125D01*
X597500Y409375D01*
X530000Y457500D02*
X541250Y446250D01*
X556548D02*
X594238Y408560D01*
X541250Y446250D02*
X556548D01*
X597500Y409375D02*
X597500D01*
X548750Y406875D02*
X555625D01*
X562500Y385000D02*
Y420625D01*
Y385000D02*
X566875Y380625D01*
X580361Y362764D02*
X581611D01*
X581875Y362500D01*
X530000Y413125D02*
Y437500D01*
Y413125D02*
X580361Y362764D01*
X527790Y412210D02*
Y436585D01*
Y412210D02*
X581857Y358143D01*
X581875Y362500D02*
X582273D01*
X521250Y446250D02*
Y447500D01*
Y446250D02*
X530000Y437500D01*
X517500Y446875D02*
Y452500D01*
Y446875D02*
X527790Y436585D01*
X656250Y282027D02*
Y332500D01*
X629375Y359375D02*
X656250Y332500D01*
X630152Y361250D02*
X658125Y333277D01*
X654223Y280000D02*
X656250Y282027D01*
X642500Y280000D02*
X654223D01*
X583125Y359375D02*
X629375D01*
X581875Y358125D02*
X583125Y359375D01*
X582273Y362500D02*
X583523Y361250D01*
X630152D01*
X515000Y402500D02*
X530000D01*
X425625Y181250D02*
X522500D01*
X587506Y439994D02*
X591250Y436250D01*
X587500Y439994D02*
X587506D01*
X591250Y435000D02*
X594500Y431750D01*
X591250Y435000D02*
Y436250D01*
D82*
X581801Y439291D02*
X585635Y443125D01*
X596865D01*
X600699Y439291D01*
X349301D02*
X368199D01*
D83*
X376250Y412500D02*
X391875Y428125D01*
Y457500D01*
X336250Y398125D02*
X350625Y412500D01*
X376250D01*
X336250Y392500D02*
Y398125D01*
X603494Y308125D02*
X605369Y310000D01*
X632500D01*
X575000Y308125D02*
X603494D01*
X571250Y311875D02*
X575000Y308125D01*
X529375Y105000D02*
X550000Y125625D01*
Y187500D01*
X468750Y105000D02*
X529375D01*
X401875Y171875D02*
X468750Y105000D01*
X394688Y179062D02*
X401875Y171875D01*
X394688Y179062D02*
Y247187D01*
D84*
X338125Y457500D02*
X380000D01*
X390625Y468125D02*
X555000D01*
X380000Y457500D02*
X390625Y468125D01*
X331250Y450625D02*
X338125Y457500D01*
X331250Y425000D02*
Y450625D01*
X635625Y460000D02*
X642500Y453125D01*
Y391875D02*
Y453125D01*
X617500Y460000D02*
X635625D01*
X615000Y457500D02*
X617500Y460000D01*
X565625Y457500D02*
X615000D01*
X555000Y468125D02*
X565625Y457500D01*
D85*
X467500Y357500D02*
X536875Y288125D01*
X467500Y357500D02*
Y390625D01*
X316250Y227500D02*
X457500Y368750D01*
X316250Y121875D02*
Y227500D01*
X457500Y368750D02*
Y390625D01*
X551875Y383750D02*
X556250Y379375D01*
X557486D01*
X600442Y412500D02*
X602500D01*
X610625Y404375D01*
X557486Y379375D02*
X575625Y361236D01*
X637500Y245000D02*
X642500Y250000D01*
X573162Y245000D02*
X637500Y245000D01*
X582304Y250000D02*
X632500Y250000D01*
X579375Y260000D02*
X632500Y260000D01*
X660625Y248750D02*
Y364375D01*
X610625Y404375D02*
X620625D01*
X660625Y364375D01*
X642500Y240000D02*
X651875D01*
X660625Y248750D01*
X566875Y446067D02*
Y446250D01*
Y446067D02*
X600442Y412500D01*
X575000Y441875D02*
X580000Y446875D01*
X601634D01*
X542097Y407278D02*
Y437554D01*
Y407278D02*
X546875Y402500D01*
X606009Y442500D02*
X619208D01*
X601634Y446875D02*
X606009Y442500D01*
X575625Y355000D02*
Y361236D01*
X462500Y355662D02*
Y390625D01*
X477500Y361875D02*
Y390625D01*
X472500Y359804D02*
X582304Y250000D01*
X462500Y355662D02*
X573162Y245000D01*
X477500Y361875D02*
X579375Y260000D01*
X472500Y359804D02*
Y390625D01*
D87*
X523750Y434375D02*
X525000D01*
X408750Y457500D02*
X500625D01*
X523750Y434375D01*
D89*
X642500Y240000D02*
D03*
X632500D02*
D03*
X642500Y250000D02*
D03*
X632500D02*
D03*
X642500Y260000D02*
D03*
X632500D02*
D03*
X642500Y270000D02*
D03*
X632500D02*
D03*
X642500Y280000D02*
D03*
X632500D02*
D03*
X642500Y290000D02*
D03*
X632500D02*
D03*
X642500Y300000D02*
D03*
X632500D02*
D03*
X642500Y310000D02*
D03*
X632500D02*
D03*
D90*
X608258Y465000D02*
D03*
X574242D02*
D03*
X375758D02*
D03*
X341742D02*
D03*
D91*
X574242Y448661D02*
D03*
X608258D02*
D03*
X341742D02*
D03*
X375758D02*
D03*
D92*
X290945Y459055D02*
D03*
Y90945D02*
D03*
X659055D02*
D03*
Y459055D02*
D03*
D93*
X540000Y255000D02*
D03*
X640000Y85000D02*
D03*
Y95000D02*
D03*
X420000Y115000D02*
D03*
X430000Y105000D02*
D03*
X420000D02*
D03*
Y95000D02*
D03*
X430000D02*
D03*
X440000D02*
D03*
X525000D02*
D03*
X515000D02*
D03*
X505000D02*
D03*
X495000D02*
D03*
X485000D02*
D03*
X475000D02*
D03*
X465000D02*
D03*
X455000Y105000D02*
D03*
X435000Y125000D02*
D03*
X445000Y115000D02*
D03*
X520000Y135000D02*
D03*
X510000D02*
D03*
X500000D02*
D03*
X490000D02*
D03*
X480000D02*
D03*
X470000D02*
D03*
X450000D02*
D03*
X460000D02*
D03*
Y125000D02*
D03*
X470000D02*
D03*
X480000D02*
D03*
X490000D02*
D03*
X500000D02*
D03*
X510000D02*
D03*
X520000D02*
D03*
X470000Y115000D02*
D03*
X480000D02*
D03*
X490000D02*
D03*
X500000D02*
D03*
X510000D02*
D03*
X520000D02*
D03*
X530000D02*
D03*
Y125000D02*
D03*
X665000Y105000D02*
D03*
X615000Y175000D02*
D03*
Y185000D02*
D03*
Y195000D02*
D03*
X565000Y185000D02*
D03*
X665000Y205000D02*
D03*
X655000D02*
D03*
X645000D02*
D03*
X635000D02*
D03*
X665000Y115000D02*
D03*
Y125000D02*
D03*
Y135000D02*
D03*
Y145000D02*
D03*
Y155000D02*
D03*
Y165000D02*
D03*
Y175000D02*
D03*
Y185000D02*
D03*
Y195000D02*
D03*
X655000D02*
D03*
Y185000D02*
D03*
X645000D02*
D03*
Y195000D02*
D03*
X635000D02*
D03*
Y185000D02*
D03*
Y175000D02*
D03*
X645000D02*
D03*
X655000D02*
D03*
Y165000D02*
D03*
Y155000D02*
D03*
Y145000D02*
D03*
Y135000D02*
D03*
Y125000D02*
D03*
Y115000D02*
D03*
Y105000D02*
D03*
X640000D02*
D03*
Y115000D02*
D03*
Y125000D02*
D03*
Y135000D02*
D03*
Y145000D02*
D03*
Y155000D02*
D03*
X630000D02*
D03*
Y145000D02*
D03*
Y135000D02*
D03*
Y125000D02*
D03*
Y115000D02*
D03*
Y105000D02*
D03*
Y95000D02*
D03*
Y85000D02*
D03*
X620000D02*
D03*
Y95000D02*
D03*
Y105000D02*
D03*
Y115000D02*
D03*
Y125000D02*
D03*
Y135000D02*
D03*
Y145000D02*
D03*
Y155000D02*
D03*
X610000D02*
D03*
Y145000D02*
D03*
Y135000D02*
D03*
Y125000D02*
D03*
Y115000D02*
D03*
Y105000D02*
D03*
Y95000D02*
D03*
Y85000D02*
D03*
X600000D02*
D03*
Y95000D02*
D03*
Y105000D02*
D03*
Y115000D02*
D03*
Y125000D02*
D03*
Y135000D02*
D03*
Y145000D02*
D03*
Y155000D02*
D03*
X590000D02*
D03*
Y145000D02*
D03*
Y135000D02*
D03*
Y125000D02*
D03*
Y115000D02*
D03*
Y105000D02*
D03*
Y95000D02*
D03*
Y85000D02*
D03*
X580000D02*
D03*
Y95000D02*
D03*
Y105000D02*
D03*
Y115000D02*
D03*
Y125000D02*
D03*
Y135000D02*
D03*
Y145000D02*
D03*
Y155000D02*
D03*
X560000Y125000D02*
D03*
Y135000D02*
D03*
Y145000D02*
D03*
Y155000D02*
D03*
Y165000D02*
D03*
X625000Y175000D02*
D03*
Y185000D02*
D03*
X605000Y175000D02*
D03*
X595000D02*
D03*
X585000D02*
D03*
X575000Y185000D02*
D03*
X585000D02*
D03*
X595000D02*
D03*
X605000D02*
D03*
X625000Y195000D02*
D03*
Y205000D02*
D03*
X545000D02*
D03*
X555000D02*
D03*
X565000D02*
D03*
X575000D02*
D03*
X585000D02*
D03*
X595000D02*
D03*
X605000D02*
D03*
X585000Y215000D02*
D03*
X595000D02*
D03*
X605000D02*
D03*
Y225000D02*
D03*
X585000Y235000D02*
D03*
X595000D02*
D03*
X605000D02*
D03*
X585000Y255000D02*
D03*
X595000D02*
D03*
X605000D02*
D03*
X635000Y215000D02*
D03*
X645000D02*
D03*
X655000D02*
D03*
X665000D02*
D03*
Y225000D02*
D03*
Y235000D02*
D03*
Y245000D02*
D03*
Y255000D02*
D03*
Y265000D02*
D03*
Y275000D02*
D03*
Y285000D02*
D03*
Y295000D02*
D03*
Y305000D02*
D03*
X585000Y275000D02*
D03*
X595000D02*
D03*
X605000D02*
D03*
Y285000D02*
D03*
X595000D02*
D03*
X585000D02*
D03*
Y295000D02*
D03*
X595000D02*
D03*
Y315000D02*
D03*
Y325000D02*
D03*
Y335000D02*
D03*
X585000D02*
D03*
Y345000D02*
D03*
X595000D02*
D03*
X635000Y335000D02*
D03*
Y345000D02*
D03*
X665000Y315000D02*
D03*
Y325000D02*
D03*
Y335000D02*
D03*
Y345000D02*
D03*
Y355000D02*
D03*
X655000Y345000D02*
D03*
Y355000D02*
D03*
X665000Y365000D02*
D03*
Y375000D02*
D03*
Y385000D02*
D03*
X655000D02*
D03*
X665000Y395000D02*
D03*
X655000D02*
D03*
X665000Y405000D02*
D03*
X655000D02*
D03*
X665000Y415000D02*
D03*
X655000D02*
D03*
Y425000D02*
D03*
X665000D02*
D03*
X655000Y435000D02*
D03*
X665000D02*
D03*
X380000D02*
D03*
Y425000D02*
D03*
X410000Y445000D02*
D03*
X400000D02*
D03*
Y435000D02*
D03*
Y425000D02*
D03*
X390000Y415000D02*
D03*
X400000D02*
D03*
X390000Y395000D02*
D03*
X400000D02*
D03*
X390000Y385000D02*
D03*
X400000D02*
D03*
Y375000D02*
D03*
X390000D02*
D03*
X400000Y340000D02*
D03*
Y350000D02*
D03*
X390000Y340000D02*
D03*
Y350000D02*
D03*
X380000Y340000D02*
D03*
Y350000D02*
D03*
X370000D02*
D03*
Y340000D02*
D03*
X360000Y350000D02*
D03*
Y340000D02*
D03*
X400000Y330000D02*
D03*
X390000D02*
D03*
X380000D02*
D03*
X370000D02*
D03*
X360000D02*
D03*
Y320000D02*
D03*
X370000D02*
D03*
X380000D02*
D03*
X390000D02*
D03*
X400000D02*
D03*
X390000Y310000D02*
D03*
X380000Y300000D02*
D03*
Y310000D02*
D03*
X370000D02*
D03*
X360000D02*
D03*
X370000Y300000D02*
D03*
X360000D02*
D03*
X370000Y290000D02*
D03*
X360000D02*
D03*
X400000Y300000D02*
D03*
Y290000D02*
D03*
X390000D02*
D03*
X400000Y280000D02*
D03*
X390000D02*
D03*
X380000D02*
D03*
X400000Y270000D02*
D03*
Y260000D02*
D03*
X390000D02*
D03*
Y270000D02*
D03*
X380000D02*
D03*
X370000Y260000D02*
D03*
X360000D02*
D03*
X380000Y250000D02*
D03*
X370000D02*
D03*
X360000D02*
D03*
X350000D02*
D03*
X310000Y220000D02*
D03*
Y230000D02*
D03*
X320000Y240000D02*
D03*
X310000D02*
D03*
X330000Y250000D02*
D03*
X320000D02*
D03*
X310000D02*
D03*
X350000Y280000D02*
D03*
Y270000D02*
D03*
X340000Y260000D02*
D03*
X330000D02*
D03*
X320000D02*
D03*
X310000D02*
D03*
X340000Y270000D02*
D03*
X330000D02*
D03*
X320000D02*
D03*
X310000D02*
D03*
X340000Y280000D02*
D03*
X330000D02*
D03*
X320000D02*
D03*
X310000D02*
D03*
X340000Y290000D02*
D03*
X330000D02*
D03*
X320000D02*
D03*
X310000D02*
D03*
X340000Y300000D02*
D03*
X330000D02*
D03*
X320000D02*
D03*
X310000D02*
D03*
X340000Y310000D02*
D03*
X330000D02*
D03*
X320000D02*
D03*
X310000D02*
D03*
X340000Y320000D02*
D03*
X330000D02*
D03*
X320000D02*
D03*
X310000D02*
D03*
X340000Y330000D02*
D03*
X330000D02*
D03*
X320000D02*
D03*
X310000D02*
D03*
X340000Y340000D02*
D03*
X330000D02*
D03*
X320000D02*
D03*
X310000D02*
D03*
X340000Y350000D02*
D03*
X330000Y365000D02*
D03*
Y350000D02*
D03*
X320000D02*
D03*
X310000D02*
D03*
X320000Y365000D02*
D03*
Y415000D02*
D03*
X330000D02*
D03*
Y405000D02*
D03*
X310000Y365000D02*
D03*
X320000Y375000D02*
D03*
X310000D02*
D03*
X320000Y385000D02*
D03*
X310000D02*
D03*
X320000Y395000D02*
D03*
X310000D02*
D03*
X320000Y405000D02*
D03*
X310000D02*
D03*
X325000Y460000D02*
D03*
X315000D02*
D03*
Y450000D02*
D03*
Y440000D02*
D03*
X305000D02*
D03*
Y430000D02*
D03*
X295000Y420000D02*
D03*
Y430000D02*
D03*
Y440000D02*
D03*
X285000D02*
D03*
Y430000D02*
D03*
Y420000D02*
D03*
Y410000D02*
D03*
Y400000D02*
D03*
Y390000D02*
D03*
Y380000D02*
D03*
Y370000D02*
D03*
Y360000D02*
D03*
Y350000D02*
D03*
Y340000D02*
D03*
Y330000D02*
D03*
Y320000D02*
D03*
Y310000D02*
D03*
Y300000D02*
D03*
Y290000D02*
D03*
Y280000D02*
D03*
Y270000D02*
D03*
Y260000D02*
D03*
Y250000D02*
D03*
Y240000D02*
D03*
Y230000D02*
D03*
Y220000D02*
D03*
Y210000D02*
D03*
Y200000D02*
D03*
Y190000D02*
D03*
Y180000D02*
D03*
Y170000D02*
D03*
X295000D02*
D03*
Y160000D02*
D03*
X285000D02*
D03*
X365000Y115000D02*
D03*
X355000D02*
D03*
X345000D02*
D03*
X365000Y105000D02*
D03*
Y95000D02*
D03*
X355000D02*
D03*
Y105000D02*
D03*
X335000D02*
D03*
X345000D02*
D03*
Y95000D02*
D03*
X310000D02*
D03*
Y85000D02*
D03*
X536875Y288125D02*
D03*
X391875Y457500D02*
D03*
X336250Y392500D02*
D03*
X630000Y401250D02*
D03*
X627500Y354375D02*
D03*
X551875Y383750D02*
D03*
X632500Y430625D02*
D03*
X633125Y368750D02*
D03*
X581250Y311875D02*
D03*
X571250D02*
D03*
X606875Y305000D02*
D03*
X603125Y295000D02*
D03*
X500000Y405000D02*
D03*
X642500Y391875D02*
D03*
X529724Y462500D02*
D03*
X331250Y425000D02*
D03*
X610625Y404375D02*
D03*
X566875Y446250D02*
D03*
X575000Y441875D02*
D03*
X558125Y437500D02*
D03*
X606250Y419375D02*
D03*
X579375Y406875D02*
D03*
X597500Y409375D02*
D03*
X594238Y408560D02*
D03*
X601875Y408125D02*
D03*
X548750Y406875D02*
D03*
X555625D02*
D03*
X546875Y402500D02*
D03*
X562500Y420625D02*
D03*
X566875Y380625D02*
D03*
X575625Y355000D02*
D03*
X517500Y452500D02*
D03*
X521250Y447500D02*
D03*
X525000Y434375D02*
D03*
X581875Y362500D02*
D03*
Y358125D02*
D03*
X619208Y442500D02*
D03*
X542097Y437554D02*
D03*
X550000Y187500D02*
D03*
X529375Y105000D02*
D03*
X523095Y162102D02*
D03*
X497505D02*
D03*
X479788D02*
D03*
X464040D02*
D03*
X436481D02*
D03*
X401875Y171875D02*
D03*
X394688Y247187D02*
D03*
X313469Y180000D02*
D03*
X333469Y151250D02*
D03*
Y160000D02*
D03*
X325000Y141147D02*
D03*
Y206147D02*
D03*
X316250Y121875D02*
D03*
X408750Y457500D02*
D03*
X343445Y362198D02*
D03*
X373750Y371875D02*
D03*
X443125Y177500D02*
D03*
X625000Y414375D02*
D03*
X543750Y370625D02*
D03*
Y354375D02*
D03*
X425625Y181250D02*
D03*
X522500D02*
D03*
X377500Y98750D02*
D03*
X387500D02*
D03*
X397500D02*
D03*
X407500D02*
D03*
X315625Y116250D02*
D03*
X296875Y116875D02*
D03*
X403125Y219375D02*
D03*
X403125Y233750D02*
D03*
X341875Y213750D02*
D03*
X310000Y187269D02*
D03*
X300000Y140625D02*
D03*
X557579Y375349D02*
D03*
X553750Y343029D02*
D03*
X543750Y311875D02*
D03*
X341875Y171250D02*
D03*
X341875Y163750D02*
D03*
X363922Y188750D02*
D03*
X341875Y243750D02*
D03*
X331250Y371875D02*
D03*
X365000Y420625D02*
D03*
X352500Y420625D02*
D03*
X635625Y442500D02*
D03*
X581250Y414375D02*
D03*
X587500Y439994D02*
D03*
X594500Y431750D02*
D03*
X530000Y457500D02*
D03*
Y402500D02*
D03*
X407500Y407500D02*
D03*
Y402500D02*
D03*
X457500Y390625D02*
D03*
X515000Y402500D02*
D03*
X435000D02*
D03*
Y407500D02*
D03*
X472500Y390625D02*
D03*
X462500D02*
D03*
X467500D02*
D03*
X477500D02*
D03*
D94*
X578652Y440625D02*
D03*
X581801Y439291D02*
D03*
X600699D02*
D03*
X603848Y440625D02*
D03*
X371348D02*
D03*
X368199Y439291D02*
D03*
X349301D02*
D03*
X346152Y440625D02*
D03*
D95*
X562500Y362512D02*
D03*
X565500Y365500D02*
D03*
Y359500D02*
D03*
X559500D02*
D03*
Y365500D02*
D03*
D96*
X602628Y450630D02*
D03*
X579872D02*
D03*
X370128D02*
D03*
X347372D02*
D03*
D97*
X466339Y442618D02*
D03*
X471850D02*
D03*
Y437106D02*
D03*
X466339D02*
D03*
X471850Y431595D02*
D03*
X466339D02*
D03*
X463583Y439862D02*
D03*
Y434350D02*
D03*
X469095Y439862D02*
D03*
Y434350D02*
D03*
X474606Y439862D02*
D03*
Y434350D02*
D03*
D98*
X284017Y455055D02*
D03*
X290945Y451055D02*
D03*
X297873Y455055D02*
D03*
Y463055D02*
D03*
X290945Y467055D02*
D03*
X284017Y463055D02*
D03*
Y86945D02*
D03*
X290945Y82945D02*
D03*
X297873Y86945D02*
D03*
Y94945D02*
D03*
X290945Y98945D02*
D03*
X284017Y94945D02*
D03*
X652127Y86945D02*
D03*
X659055Y82945D02*
D03*
X665983Y86945D02*
D03*
Y94945D02*
D03*
X659055Y98945D02*
D03*
X652127Y94945D02*
D03*
Y455055D02*
D03*
X659055Y451055D02*
D03*
X665983Y455055D02*
D03*
Y463055D02*
D03*
X659055Y467055D02*
D03*
X652127Y463055D02*
D03*
M02*
