M48
;Layer_Color=9474304
;FILE_FORMAT=2:4
INCH,TZ
;TYPE=PLATED
T1F00S00C0.0118
T2F00S00C0.0157
T3F00S00C0.0160
T4F00S00C0.0236
T6F00S00C0.0256
T7F00S00C0.0340
T8F00S00C0.0400
%
T01
X31000Y8500
Y9500
X29688Y11688
X30000Y14062
X32500Y14115
X33347Y15125
X31625Y12188
X31562Y11625
X34500Y11500
X35500
X36500
Y10500
Y9500
X35500
Y10500
X34500
X33500
X34500Y9500
X37750Y9875
X38750
X39750
X40750
X42000Y9500
Y10500
Y11500
X43000Y10500
Y9500
X44000
X46500
X45500Y10500
X44500Y11500
X43500Y12500
X45000Y13500
X46000
Y12500
X47000
Y13500
X48000
X49000
X50000
X51000
X52000
Y12500
X51000
X50000
X49000
X48000
Y11500
X47000
X49000
X50000
X51000
X52000
X53000
Y12500
X52937Y10500
X52500Y9500
X51500
X50500
X49500
X48500
X47500
X58000
X59000
X60000
X61000
X62000
Y8500
X61000
X60000
X59000
X58000
Y10500
X59000
X60000
X61000
X62000
Y11500
Y12500
Y13500
Y14500
Y15500
X61000
Y14500
Y13500
Y12500
Y11500
X60000
Y12500
Y13500
Y14500
Y15500
X59000
Y14500
Y13500
Y12500
Y11500
X58000
Y12500
Y13500
Y14500
Y15500
X56000
Y14500
Y13500
Y12500
X63000
X64000
Y11500
Y10500
Y9500
Y8500
X63000
Y9500
Y10500
Y11500
Y13500
X64000
Y14500
Y15500
X63000
Y14500
X65500
X66500
Y13500
Y12500
Y11500
Y10500
X65500
Y11500
Y12500
Y13500
Y15500
X66500
Y16500
Y17500
Y18500
Y19500
Y20500
X65500
X64500
X63500
Y19500
X64500
X65500
Y18500
X64500
X63500
Y17500
X64500
X65500
Y16500
X62500Y17500
Y18500
Y19500
Y20500
X63500Y21500
X64500
X65500
X66500
Y22500
Y23500
Y24500
Y25500
Y26500
Y27500
Y28500
Y29500
Y30500
X60687
X60312Y29500
X59500
Y28500
Y27500
X58500
Y28500
Y29500
X58125Y31188
X57125
X54375
X53688Y28812
X54000Y25500
X58500
X59500
X60500
Y23500
Y22500
Y21500
Y20500
X59500
X58500
X57500
X56500
X55500
X54500
X55000Y18750
X56500Y18500
X57500
X58500
Y17500
X59500
X60500
X61500
Y18500
Y19500
X60500Y18500
X59500
Y21500
X58500
Y23500
X59500
X60500Y27500
Y28500
X56000Y16500
X52309Y16210
X52250Y18125
X49750Y16210
X47979
X46404
X43648
X44313Y17750
X42562Y18125
X40188Y17188
X40312Y21937
X40312Y23375
X39469Y24719
X39000Y26000
X40000
Y27000
Y28000
Y29000
Y30000
X39000Y31000
X38000
Y30000
X37000
Y31000
X36000
Y30000
Y29000
X37000
X39000
Y28000
X38000
Y27000
X39000
X37000Y26000
X36000
Y25000
X37000
X38000
X35000
X34188Y24375
X33000Y25000
X32000
Y24000
Y26000
X33000
X34000
Y27000
X35000
Y28000
X34000
X33000
Y27000
X32000
Y28000
Y29000
X33000
X34000
Y30000
X33000
X32000
Y31000
X33000
X34000
X34188Y21375
X32500Y20615
X31347Y18000
X34188Y17125
X34188Y16375
X33347Y16000
X36392Y18875
X31000Y18727
X28500Y19000
Y20000
Y21000
Y22000
Y23000
Y24000
Y25000
Y26000
Y27000
Y28000
Y29000
Y30000
Y31000
X31000
Y30000
Y29000
Y28000
Y27000
Y26000
Y25000
Y24000
Y23000
Y22000
X28500Y18000
Y17000
X29500
Y16000
X28500
Y32000
Y33000
Y34000
Y35000
Y36000
Y37000
Y38000
Y39000
Y40000
Y41000
Y42000
X29500
Y43000
X30500
Y44000
X29500
X28500
Y43000
X31000Y40500
Y39500
Y38500
Y37500
Y36500
Y35000
Y34000
Y33000
Y32000
X32000
X33000
X34000
Y33000
X33000
X32000
Y34000
X33000
X34000
Y35000
X33000
X32000
Y36500
X33000
X33125Y37188
X32000Y37500
Y38500
Y39500
Y40500
Y41500
X33000
Y40500
X33625Y39250
X34344Y36220
X36000Y35000
X37000
X38000
X39000
X40000
Y34000
X39000
X38000
X37000
X36000
Y33000
X37000
X38000
X39000
X40000
Y32000
X39000
X38000
X37000
X36000
X37375Y37188
X39000Y37500
Y38500
Y39500
X40000
Y38500
Y37500
X40750Y40250
Y40750
X40000Y41500
Y42500
Y43500
Y44500
X41000
X40875Y45750
X39188
X38000Y43500
Y42500
X36500Y42063
X35250Y42063
X34930Y43929
X34615Y44062
X36820Y43929
X37135Y44062
X39000Y41500
X43500Y40750
Y40250
X45750Y39062
X46250
X46750
X33125Y42500
X31500Y44000
Y45000
Y46000
X32500
X51750Y45250
X52125Y44750
X52500Y43438
X54210Y43755
X55813Y43750
X56687Y44625
X57500Y44187
X57865Y44062
X58180Y43929
X58750Y43999
X60070Y43929
X60385Y44062
X61921Y44250
X59450Y43175
X59424Y40856
X59750Y40938
X60188Y40813
X61062Y40437
X60625Y41937
X58125Y41438
X57937Y40687
X55563
X54875
X54688Y40250
X53000
X51500
X50000Y40500
X47750Y39062
X47250
X55188Y38375
X55758Y37535
X56687Y38063
X58187Y36250
Y35812
X57562Y35500
X58500Y34500
Y33500
X59500
Y32500
Y31500
Y34500
X55375Y34303
X54375Y35438
Y37062
X56250Y42063
X53000Y45750
X52972Y46250
X63562Y44250
X63250Y43063
X62500Y41438
X63000Y40125
X64250Y39188
X65500Y39500
Y38500
X66500
Y37500
Y36500
Y35500
Y34500
Y33500
Y32500
Y31500
X65500Y34500
Y35500
X62750Y35438
X63500Y34500
Y33500
X63313Y36875
X66500Y39500
Y40500
X65500
Y41500
X66500
Y42500
X65500
Y43500
X66500
T02
X46634Y43159
Y43711
Y44262
X46358Y43986
Y43435
X46909
X47185Y43711
X47461Y43435
X47185Y43159
Y44262
X47461Y43986
X46909
T03
X55950Y35950
X56550
Y36550
X56250Y36251
X55950Y36550
T04
X28402Y8694
Y9494
X29094Y9894
X29787Y9494
Y8694
X29094Y8294
X65213Y8694
Y9494
X65906Y9894
X66598Y9494
Y8694
X65906Y8294
X29787Y45506
Y46306
X29094Y46706
X28402Y46306
Y45506
X29094Y45106
X65213Y45506
Y46306
X65906Y46706
X66598Y46306
Y45506
X65906Y45106
T06
X34737Y45063
X37013
X57987
X60263
T07
X29094Y9094
X65906
X29094Y45906
X65906
T08
X63250Y24000
X64250
Y25000
X63250
Y26000
X64250
Y27000
X63250
Y28000
X64250
Y29000
X63250
Y30000
X64250
Y31000
X63250
M30
