G04*
G04 #@! TF.GenerationSoftware,Altium Limited,Altium Designer,21.9.2 (33)*
G04*
G04 Layer_Color=8388736*
%FSLAX25Y25*%
%MOIN*%
G70*
G04*
G04 #@! TF.SameCoordinates,73920E6A-4BEC-4EA8-B9E3-355B446DA2E4*
G04*
G04*
G04 #@! TF.FilePolarity,Negative*
G04*
G01*
G75*
%ADD18R,0.16600X0.07900*%
%ADD19R,0.05131X0.04737*%
%ADD20R,0.01981X0.05524*%
%ADD21R,0.11430X0.12611*%
%ADD22R,0.05721X0.08674*%
%ADD23R,0.11430X0.11430*%
%ADD24R,0.04347X0.01984*%
%ADD25R,0.01984X0.04347*%
%ADD26R,0.10800X0.05800*%
%ADD27R,0.01981X0.06706*%
%ADD28R,0.04737X0.05131*%
%ADD29R,0.05800X0.04800*%
%ADD30R,0.13792X0.10249*%
%ADD31R,0.04737X0.10249*%
%ADD32R,0.08674X0.07099*%
%ADD33R,0.06706X0.05918*%
%ADD34R,0.03162X0.05328*%
%ADD35R,0.05918X0.06706*%
%ADD36R,0.02769X0.04737*%
G04:AMPARAMS|DCode=37|XSize=55.24mil|YSize=55.24mil|CornerRadius=15.81mil|HoleSize=0mil|Usage=FLASHONLY|Rotation=0.000|XOffset=0mil|YOffset=0mil|HoleType=Round|Shape=RoundedRectangle|*
%AMROUNDEDRECTD37*
21,1,0.05524,0.02362,0,0,0.0*
21,1,0.02362,0.05524,0,0,0.0*
1,1,0.03162,0.01181,-0.01181*
1,1,0.03162,-0.01181,-0.01181*
1,1,0.03162,-0.01181,0.01181*
1,1,0.03162,0.01181,0.01181*
%
%ADD37ROUNDEDRECTD37*%
%ADD38R,0.05524X0.05524*%
G04:AMPARAMS|DCode=39|XSize=68mil|YSize=68mil|CornerRadius=34mil|HoleSize=0mil|Usage=FLASHONLY|Rotation=90.000|XOffset=0mil|YOffset=0mil|HoleType=Round|Shape=RoundedRectangle|*
%AMROUNDEDRECTD39*
21,1,0.06800,0.00000,0,0,90.0*
21,1,0.00000,0.06800,0,0,90.0*
1,1,0.06800,0.00000,0.00000*
1,1,0.06800,0.00000,0.00000*
1,1,0.06800,0.00000,0.00000*
1,1,0.06800,0.00000,0.00000*
%
%ADD39ROUNDEDRECTD39*%
G04:AMPARAMS|DCode=40|XSize=55.24mil|YSize=55.24mil|CornerRadius=15.81mil|HoleSize=0mil|Usage=FLASHONLY|Rotation=270.000|XOffset=0mil|YOffset=0mil|HoleType=Round|Shape=RoundedRectangle|*
%AMROUNDEDRECTD40*
21,1,0.05524,0.02362,0,0,270.0*
21,1,0.02362,0.05524,0,0,270.0*
1,1,0.03162,-0.01181,-0.01181*
1,1,0.03162,-0.01181,0.01181*
1,1,0.03162,0.01181,0.01181*
1,1,0.03162,0.01181,-0.01181*
%
%ADD40ROUNDEDRECTD40*%
%ADD41R,0.05524X0.05524*%
%ADD42R,0.05131X0.09461*%
%ADD43R,0.04343X0.04343*%
%ADD44R,0.07887X0.04343*%
%ADD45R,0.04343X0.07887*%
%ADD46C,0.06800*%
%ADD47O,0.04737X0.07099*%
%ADD48O,0.04737X0.09068*%
%ADD49C,0.24800*%
%ADD50C,0.03359*%
%ADD51C,0.03556*%
%ADD52C,0.04737*%
D18*
X350032Y203350D02*
D03*
Y189163D02*
D03*
X350000Y124163D02*
D03*
Y138350D02*
D03*
D19*
X396654Y467500D02*
D03*
X403346D02*
D03*
X398346Y219375D02*
D03*
X391653D02*
D03*
X551653Y442500D02*
D03*
X558347D02*
D03*
X630847D02*
D03*
X624154D02*
D03*
X542097Y412500D02*
D03*
X535403D02*
D03*
X551653D02*
D03*
X558347D02*
D03*
X542097Y463125D02*
D03*
X535403D02*
D03*
X542097Y456875D02*
D03*
X535403D02*
D03*
X403346Y457500D02*
D03*
X396654D02*
D03*
X542097Y442500D02*
D03*
X535403D02*
D03*
X402097Y408125D02*
D03*
X395404D02*
D03*
X542097Y402500D02*
D03*
X535403D02*
D03*
X402097Y401875D02*
D03*
X395404D02*
D03*
X628346Y368750D02*
D03*
X621654D02*
D03*
X346654Y243750D02*
D03*
X353346D02*
D03*
X525846Y187500D02*
D03*
X519153D02*
D03*
X328346Y171250D02*
D03*
X321654D02*
D03*
X346654Y213750D02*
D03*
X353346D02*
D03*
X371654Y196250D02*
D03*
X378346D02*
D03*
X346654Y156250D02*
D03*
X353346D02*
D03*
X353346Y233750D02*
D03*
X346654D02*
D03*
X391653D02*
D03*
X398346D02*
D03*
X346654Y171250D02*
D03*
X353346D02*
D03*
X353346Y163750D02*
D03*
X346654D02*
D03*
X301654Y116875D02*
D03*
X308347D02*
D03*
D20*
X600973Y398049D02*
D03*
X602942D02*
D03*
X604910D02*
D03*
X606879D02*
D03*
X608847D02*
D03*
X610816D02*
D03*
X434513Y169897D02*
D03*
X436481D02*
D03*
X438450D02*
D03*
X440418D02*
D03*
X442387D02*
D03*
X444355D02*
D03*
X446324D02*
D03*
X448292D02*
D03*
X450261D02*
D03*
X452229D02*
D03*
X454198D02*
D03*
X456166D02*
D03*
X458135D02*
D03*
X460103D02*
D03*
X462072D02*
D03*
X464040D02*
D03*
X466009D02*
D03*
X467977D02*
D03*
X469946D02*
D03*
X471914D02*
D03*
X473883D02*
D03*
X475851D02*
D03*
X477820D02*
D03*
X479788D02*
D03*
X481757D02*
D03*
X483725D02*
D03*
X485694D02*
D03*
X487662D02*
D03*
X489631D02*
D03*
X491599D02*
D03*
X493568D02*
D03*
X495536D02*
D03*
X497505D02*
D03*
X499473D02*
D03*
X501442D02*
D03*
X503410D02*
D03*
X505379D02*
D03*
X507347D02*
D03*
X509316D02*
D03*
X511284D02*
D03*
X513253D02*
D03*
X515221D02*
D03*
X517190D02*
D03*
X519158D02*
D03*
X521127D02*
D03*
X523095D02*
D03*
X525064D02*
D03*
X527032D02*
D03*
X529001D02*
D03*
X530969D02*
D03*
D21*
X593375Y390254D02*
D03*
X618414D02*
D03*
X426914Y162102D02*
D03*
X538568D02*
D03*
D22*
X367618Y218750D02*
D03*
X382382D02*
D03*
X367618Y233750D02*
D03*
X382382D02*
D03*
D23*
X562500Y362500D02*
D03*
D24*
X570571Y367421D02*
D03*
Y365453D02*
D03*
Y363484D02*
D03*
Y361516D02*
D03*
Y359547D02*
D03*
Y357579D02*
D03*
X554429D02*
D03*
Y359547D02*
D03*
Y361516D02*
D03*
Y363484D02*
D03*
Y365453D02*
D03*
Y367421D02*
D03*
D25*
X567421Y354429D02*
D03*
X565453D02*
D03*
X563484D02*
D03*
X561516D02*
D03*
X559547D02*
D03*
X557579D02*
D03*
Y370571D02*
D03*
X559547D02*
D03*
X561516D02*
D03*
X563484D02*
D03*
X565453D02*
D03*
X567421D02*
D03*
D26*
X555000Y467000D02*
D03*
Y453000D02*
D03*
X627500Y467000D02*
D03*
Y453000D02*
D03*
D27*
X578061Y445309D02*
D03*
X581211D02*
D03*
X601289D02*
D03*
X600108D02*
D03*
X603258D02*
D03*
X604439D02*
D03*
X592234D02*
D03*
X590266D02*
D03*
X588297D02*
D03*
X586329D02*
D03*
X584360D02*
D03*
X582392D02*
D03*
X594203D02*
D03*
X596171D02*
D03*
X598140D02*
D03*
X579242D02*
D03*
X345561D02*
D03*
X348711D02*
D03*
X368789D02*
D03*
X367608D02*
D03*
X370758D02*
D03*
X371939D02*
D03*
X359734D02*
D03*
X357766D02*
D03*
X355797D02*
D03*
X353829D02*
D03*
X351860D02*
D03*
X349892D02*
D03*
X361703D02*
D03*
X363671D02*
D03*
X365640D02*
D03*
X346742D02*
D03*
D28*
X553750Y323346D02*
D03*
Y316653D02*
D03*
X562500Y323346D02*
D03*
Y316653D02*
D03*
X571250Y323346D02*
D03*
Y316653D02*
D03*
X536250Y359154D02*
D03*
Y365846D02*
D03*
X625000Y425846D02*
D03*
Y419153D02*
D03*
X543750Y316653D02*
D03*
Y323346D02*
D03*
Y359154D02*
D03*
Y365846D02*
D03*
X632500Y425846D02*
D03*
Y419153D02*
D03*
X601250Y419153D02*
D03*
Y425846D02*
D03*
X588000Y425846D02*
D03*
Y419153D02*
D03*
X594500Y425846D02*
D03*
Y419153D02*
D03*
X581250Y425846D02*
D03*
Y419153D02*
D03*
Y316653D02*
D03*
Y323346D02*
D03*
X365000Y425403D02*
D03*
Y432096D02*
D03*
X352500Y432096D02*
D03*
Y425403D02*
D03*
X310000Y199597D02*
D03*
Y192903D02*
D03*
X560000Y110222D02*
D03*
Y103528D02*
D03*
X550000Y110222D02*
D03*
Y103528D02*
D03*
X540000Y110222D02*
D03*
Y103528D02*
D03*
X407500Y103528D02*
D03*
Y110222D02*
D03*
X397500Y103528D02*
D03*
Y110222D02*
D03*
X387500Y103528D02*
D03*
Y110222D02*
D03*
X377500Y103528D02*
D03*
Y110222D02*
D03*
D29*
X553750Y331750D02*
D03*
Y338250D02*
D03*
X562500Y331750D02*
D03*
Y338250D02*
D03*
X571250Y331750D02*
D03*
Y338250D02*
D03*
D30*
X352500Y392667D02*
D03*
D31*
X361555Y369833D02*
D03*
X352500D02*
D03*
X343445D02*
D03*
D32*
X613750Y413445D02*
D03*
Y431555D02*
D03*
D33*
X373750Y377510D02*
D03*
Y384990D02*
D03*
X331250Y377510D02*
D03*
Y384990D02*
D03*
X342500Y425010D02*
D03*
Y432490D02*
D03*
X300000Y134990D02*
D03*
Y127510D02*
D03*
D34*
X551260Y420571D02*
D03*
X558740D02*
D03*
X555000Y429429D02*
D03*
X535010Y420571D02*
D03*
X542490D02*
D03*
X538750Y429429D02*
D03*
D35*
X328740Y160000D02*
D03*
X321260D02*
D03*
X328740Y151250D02*
D03*
X321260D02*
D03*
X321260Y180000D02*
D03*
X328740D02*
D03*
X321260Y116250D02*
D03*
X328740D02*
D03*
D36*
X328937Y126132D02*
D03*
Y136368D02*
D03*
X325000D02*
D03*
X321063D02*
D03*
Y126132D02*
D03*
X325000D02*
D03*
X328937Y191132D02*
D03*
Y201368D02*
D03*
X325000D02*
D03*
X321063D02*
D03*
Y191132D02*
D03*
X325000D02*
D03*
D37*
X381299Y203750D02*
D03*
X368701Y188750D02*
D03*
X356299Y223750D02*
D03*
D38*
X368701Y203750D02*
D03*
X381299Y188750D02*
D03*
X343701Y223750D02*
D03*
D39*
X441250Y187500D02*
D03*
X450000D02*
D03*
X432500D02*
D03*
X423750D02*
D03*
X415000D02*
D03*
D40*
X310000Y124951D02*
D03*
D41*
Y137549D02*
D03*
D42*
X377500Y156875D02*
D03*
X387500D02*
D03*
X397500D02*
D03*
X407500D02*
D03*
X377500Y121875D02*
D03*
X387500D02*
D03*
X397500D02*
D03*
X407500D02*
D03*
D43*
X469095Y442618D02*
D03*
Y437106D02*
D03*
Y431595D02*
D03*
X474606Y437106D02*
D03*
X463583D02*
D03*
Y431595D02*
D03*
Y442618D02*
D03*
X474606Y431595D02*
D03*
Y442618D02*
D03*
D44*
X440551Y467500D02*
D03*
Y462500D02*
D03*
Y457500D02*
D03*
Y452500D02*
D03*
Y447500D02*
D03*
Y442500D02*
D03*
Y437500D02*
D03*
Y432500D02*
D03*
Y427500D02*
D03*
Y422500D02*
D03*
Y417500D02*
D03*
Y412500D02*
D03*
Y407500D02*
D03*
Y402500D02*
D03*
X509449D02*
D03*
Y407500D02*
D03*
Y412500D02*
D03*
Y417500D02*
D03*
Y422500D02*
D03*
Y427500D02*
D03*
Y432500D02*
D03*
Y437500D02*
D03*
Y442500D02*
D03*
Y447500D02*
D03*
Y452500D02*
D03*
Y457500D02*
D03*
Y462500D02*
D03*
Y467500D02*
D03*
D45*
X447500Y397579D02*
D03*
X452500D02*
D03*
X457500D02*
D03*
X462500D02*
D03*
X467500D02*
D03*
X472500D02*
D03*
X477500D02*
D03*
X482500D02*
D03*
X487500D02*
D03*
X492500D02*
D03*
X497500D02*
D03*
X502500D02*
D03*
D46*
X642500Y240000D02*
D03*
X632500D02*
D03*
X642500Y250000D02*
D03*
X632500D02*
D03*
X642500Y260000D02*
D03*
X632500D02*
D03*
X642500Y270000D02*
D03*
X632500D02*
D03*
X642500Y280000D02*
D03*
X632500D02*
D03*
X642500Y290000D02*
D03*
X632500D02*
D03*
X642500Y300000D02*
D03*
X632500D02*
D03*
X642500Y310000D02*
D03*
X632500D02*
D03*
D47*
X608258Y465000D02*
D03*
X574242D02*
D03*
X375758D02*
D03*
X341742D02*
D03*
D48*
X574242Y448661D02*
D03*
X608258D02*
D03*
X341742D02*
D03*
X375758D02*
D03*
D49*
X290945Y459055D02*
D03*
Y90945D02*
D03*
X659055D02*
D03*
Y459055D02*
D03*
D50*
X602628Y450630D02*
D03*
X579872D02*
D03*
X370128D02*
D03*
X347372D02*
D03*
D51*
X466339Y442618D02*
D03*
X471850D02*
D03*
Y437106D02*
D03*
X466339D02*
D03*
X471850Y431595D02*
D03*
X466339D02*
D03*
X463583Y439862D02*
D03*
Y434350D02*
D03*
X469095Y439862D02*
D03*
Y434350D02*
D03*
X474606Y439862D02*
D03*
Y434350D02*
D03*
D52*
X284017Y455055D02*
D03*
X290945Y451055D02*
D03*
X297873Y455055D02*
D03*
Y463055D02*
D03*
X290945Y467055D02*
D03*
X284017Y463055D02*
D03*
Y86945D02*
D03*
X290945Y82945D02*
D03*
X297873Y86945D02*
D03*
Y94945D02*
D03*
X290945Y98945D02*
D03*
X284017Y94945D02*
D03*
X652127Y86945D02*
D03*
X659055Y82945D02*
D03*
X665983Y86945D02*
D03*
Y94945D02*
D03*
X659055Y98945D02*
D03*
X652127Y94945D02*
D03*
Y455055D02*
D03*
X659055Y451055D02*
D03*
X665983Y455055D02*
D03*
Y463055D02*
D03*
X659055Y467055D02*
D03*
X652127Y463055D02*
D03*
M02*
