G04*
G04 #@! TF.GenerationSoftware,Altium Limited,Altium Designer,21.9.2 (33)*
G04*
G04 Layer_Physical_Order=1*
G04 Layer_Color=255*
%FSLAX25Y25*%
%MOIN*%
G70*
G04*
G04 #@! TF.SameCoordinates,73920E6A-4BEC-4EA8-B9E3-355B446DA2E4*
G04*
G04*
G04 #@! TF.FilePolarity,Positive*
G04*
G01*
G75*
%ADD12C,0.00800*%
%ADD16C,0.01000*%
%ADD53R,0.15800X0.07100*%
%ADD54R,0.04331X0.03937*%
%ADD55R,0.01181X0.04724*%
%ADD56R,0.10630X0.11811*%
%ADD57R,0.04921X0.07874*%
%ADD58R,0.10630X0.10630*%
%ADD59R,0.03347X0.00984*%
%ADD60R,0.00984X0.03347*%
%ADD61R,0.10000X0.05000*%
%ADD62R,0.01181X0.05906*%
%ADD63R,0.03937X0.04331*%
%ADD64R,0.05000X0.04000*%
%ADD65R,0.12992X0.09449*%
%ADD66R,0.03937X0.09449*%
%ADD67R,0.07874X0.06299*%
%ADD68R,0.05906X0.05118*%
%ADD69R,0.02362X0.04528*%
%ADD70R,0.05118X0.05906*%
%ADD71R,0.01968X0.03937*%
G04:AMPARAMS|DCode=72|XSize=47.24mil|YSize=47.24mil|CornerRadius=11.81mil|HoleSize=0mil|Usage=FLASHONLY|Rotation=0.000|XOffset=0mil|YOffset=0mil|HoleType=Round|Shape=RoundedRectangle|*
%AMROUNDEDRECTD72*
21,1,0.04724,0.02362,0,0,0.0*
21,1,0.02362,0.04724,0,0,0.0*
1,1,0.02362,0.01181,-0.01181*
1,1,0.02362,-0.01181,-0.01181*
1,1,0.02362,-0.01181,0.01181*
1,1,0.02362,0.01181,0.01181*
%
%ADD72ROUNDEDRECTD72*%
%ADD73R,0.04724X0.04724*%
G04:AMPARAMS|DCode=74|XSize=60mil|YSize=60mil|CornerRadius=30mil|HoleSize=0mil|Usage=FLASHONLY|Rotation=90.000|XOffset=0mil|YOffset=0mil|HoleType=Round|Shape=RoundedRectangle|*
%AMROUNDEDRECTD74*
21,1,0.06000,0.00000,0,0,90.0*
21,1,0.00000,0.06000,0,0,90.0*
1,1,0.06000,0.00000,0.00000*
1,1,0.06000,0.00000,0.00000*
1,1,0.06000,0.00000,0.00000*
1,1,0.06000,0.00000,0.00000*
%
%ADD74ROUNDEDRECTD74*%
G04:AMPARAMS|DCode=75|XSize=47.24mil|YSize=47.24mil|CornerRadius=11.81mil|HoleSize=0mil|Usage=FLASHONLY|Rotation=270.000|XOffset=0mil|YOffset=0mil|HoleType=Round|Shape=RoundedRectangle|*
%AMROUNDEDRECTD75*
21,1,0.04724,0.02362,0,0,270.0*
21,1,0.02362,0.04724,0,0,270.0*
1,1,0.02362,-0.01181,-0.01181*
1,1,0.02362,-0.01181,0.01181*
1,1,0.02362,0.01181,0.01181*
1,1,0.02362,0.01181,-0.01181*
%
%ADD75ROUNDEDRECTD75*%
%ADD76R,0.04724X0.04724*%
%ADD77R,0.04331X0.08661*%
%ADD78R,0.03543X0.03543*%
%ADD79R,0.07087X0.03543*%
%ADD80R,0.03543X0.07087*%
%ADD81C,0.00891*%
%ADD82C,0.01900*%
%ADD83C,0.01800*%
%ADD84C,0.03600*%
%ADD85C,0.01200*%
%ADD86C,0.00900*%
%ADD87C,0.01400*%
%ADD88C,0.02800*%
%ADD89C,0.06000*%
%ADD90O,0.03937X0.06299*%
%ADD91O,0.03937X0.08268*%
%ADD92C,0.24000*%
%ADD93C,0.02362*%
%ADD94C,0.02300*%
%ADD95C,0.03600*%
%ADD96C,0.02559*%
%ADD97C,0.02756*%
%ADD98C,0.03937*%
G36*
X651486Y469625D02*
X650586Y468971D01*
X649139Y467524D01*
X647936Y465869D01*
X647008Y464045D01*
X646375Y462099D01*
X646055Y460078D01*
Y459555D01*
X659055D01*
Y459055D01*
X659555D01*
Y446055D01*
X660078D01*
X662099Y446375D01*
X664045Y447008D01*
X665869Y447936D01*
X667524Y449139D01*
X668971Y450586D01*
X669625Y451486D01*
X670625Y451161D01*
Y98839D01*
X669625Y98514D01*
X668971Y99414D01*
X667524Y100861D01*
X665997Y101970D01*
X665947Y102460D01*
X666071Y103083D01*
X666235Y103151D01*
X666849Y103764D01*
X667181Y104566D01*
Y105434D01*
X666849Y106236D01*
X666235Y106849D01*
X665434Y107181D01*
X664566D01*
X663764Y106849D01*
X663151Y106236D01*
X662819Y105434D01*
Y104566D01*
X662878Y104423D01*
X662131Y103615D01*
X662099Y103625D01*
X660078Y103945D01*
X659555D01*
Y90945D01*
X659055D01*
Y90445D01*
X646055D01*
Y89922D01*
X646375Y87901D01*
X647008Y85955D01*
X647936Y84131D01*
X649139Y82476D01*
X650586Y81029D01*
X651486Y80375D01*
X651161Y79375D01*
X567729D01*
X567425Y80375D01*
X567736Y80583D01*
X577542Y90389D01*
X578073Y91183D01*
X578259Y92119D01*
Y162881D01*
X578073Y163817D01*
X577542Y164611D01*
X560236Y181917D01*
X559442Y182448D01*
X558506Y182634D01*
X530244D01*
X529308Y182448D01*
X528514Y181917D01*
X524318Y177721D01*
X523787Y176927D01*
X523656Y176269D01*
X522656Y176368D01*
Y178875D01*
X522850Y179069D01*
X522934D01*
X523736Y179401D01*
X524349Y180015D01*
X524681Y180816D01*
Y181684D01*
X524349Y182485D01*
X523736Y183099D01*
X522934Y183431D01*
X522066D01*
X521253Y184177D01*
X521340Y184531D01*
X522319Y184531D01*
X523319Y184531D01*
X525346D01*
Y187500D01*
Y190469D01*
X523372D01*
X522958Y191469D01*
X524552Y193063D01*
X541698D01*
X547907Y186853D01*
X548151Y186265D01*
X548765Y185651D01*
X549566Y185319D01*
X550434D01*
X551235Y185651D01*
X551849Y186265D01*
X552181Y187066D01*
Y187934D01*
X551849Y188735D01*
X551235Y189349D01*
X550647Y189593D01*
X543870Y196370D01*
X543241Y196790D01*
X542500Y196937D01*
X533812D01*
Y287207D01*
X534812Y287405D01*
X535026Y286890D01*
X535639Y286276D01*
X536228Y286032D01*
X553630Y268630D01*
X554259Y268210D01*
X555000Y268063D01*
X629000D01*
X629299Y267544D01*
X630044Y266799D01*
X630956Y266273D01*
X631973Y266000D01*
X633027D01*
X634044Y266273D01*
X634956Y266799D01*
X635701Y267544D01*
X636227Y268456D01*
X636500Y269473D01*
Y270527D01*
X636227Y271544D01*
X635701Y272456D01*
X634956Y273201D01*
X634044Y273727D01*
X633027Y274000D01*
X631973D01*
X630956Y273727D01*
X630044Y273201D01*
X629299Y272456D01*
X629000Y271937D01*
X555802D01*
X538968Y288772D01*
X538724Y289360D01*
X538110Y289974D01*
X537309Y290306D01*
X536441D01*
X535639Y289974D01*
X535026Y289360D01*
X534812Y288844D01*
X533812Y289043D01*
Y321409D01*
X540074D01*
X540781Y320702D01*
Y320181D01*
X540781Y319181D01*
Y317154D01*
X543750D01*
Y316654D01*
X544250D01*
Y313488D01*
X546719D01*
Y316003D01*
X547718Y316417D01*
X548852Y315284D01*
X549480Y314864D01*
X550221Y314716D01*
X550781D01*
Y313488D01*
X556718D01*
Y314716D01*
X559531D01*
Y313488D01*
X565469D01*
Y314716D01*
X568282D01*
Y313488D01*
X568597D01*
X569143Y312488D01*
X569069Y312309D01*
Y311441D01*
X569401Y310640D01*
X570014Y310026D01*
X570816Y309694D01*
X571684D01*
X572485Y310026D01*
X573099Y310640D01*
X573431Y311441D01*
Y312309D01*
X573357Y312488D01*
X573903Y313488D01*
X574219D01*
Y319181D01*
X574219Y319819D01*
X574219Y320819D01*
Y326512D01*
X572724D01*
Y328750D01*
X574750D01*
Y334250D01*
X574750Y335000D01*
X574750Y335750D01*
Y341250D01*
X572724D01*
Y342500D01*
X572612Y343064D01*
X572292Y343542D01*
X569558Y346276D01*
X569973Y347276D01*
X571265D01*
X579776Y338765D01*
Y326512D01*
X578281D01*
Y320819D01*
X578281Y320181D01*
X578281Y319181D01*
Y317154D01*
X581250D01*
Y316654D01*
D01*
Y317154D01*
X584219D01*
Y319181D01*
X584219Y319819D01*
X584219Y320819D01*
Y326512D01*
X582724D01*
Y339375D01*
X582612Y339939D01*
X582292Y340417D01*
X572917Y349792D01*
X572439Y350112D01*
X571875Y350224D01*
X565835D01*
X565361Y350756D01*
X565729Y351756D01*
X568913D01*
Y356087D01*
X572454D01*
X573444Y355097D01*
Y354566D01*
X573776Y353765D01*
X574390Y353151D01*
X575191Y352819D01*
X576059D01*
X576861Y353151D01*
X577474Y353765D01*
X577806Y354566D01*
Y355434D01*
X577474Y356236D01*
X576861Y356849D01*
X576319Y357073D01*
X576518Y358073D01*
X579694D01*
Y357691D01*
X580026Y356890D01*
X580640Y356276D01*
X581441Y355944D01*
X582309D01*
X583111Y356276D01*
X583724Y356890D01*
X584056Y357691D01*
Y358559D01*
X583724Y359361D01*
X583397Y359687D01*
X583211Y360313D01*
X583397Y360938D01*
X583724Y361264D01*
X584056Y362066D01*
Y362934D01*
X583724Y363736D01*
X583111Y364349D01*
X582309Y364681D01*
X581441D01*
X580640Y364349D01*
X580026Y363736D01*
X579717Y362990D01*
X574229D01*
X574203Y363979D01*
X574767Y364091D01*
X575245Y364410D01*
X576042Y365208D01*
X576362Y365686D01*
X576474Y366250D01*
Y372500D01*
X576474Y372500D01*
X576362Y373064D01*
X576042Y373542D01*
X569056Y380528D01*
Y381059D01*
X568724Y381860D01*
X568111Y382474D01*
X567483Y382734D01*
X567213Y383377D01*
X567140Y383806D01*
X591133Y407799D01*
X592297Y407548D01*
X592389Y407324D01*
X593003Y406710D01*
X593192Y406632D01*
X593417Y406295D01*
X599354Y400359D01*
Y398140D01*
X598832Y397160D01*
X593875D01*
Y390254D01*
Y383349D01*
X599444D01*
Y369027D01*
X599560Y368441D01*
X599892Y367945D01*
X601596Y366242D01*
Y296555D01*
X601276Y296235D01*
X600944Y295434D01*
Y294566D01*
X601276Y293764D01*
X601890Y293151D01*
X602691Y292819D01*
X603559D01*
X604360Y293151D01*
X604974Y293764D01*
X605306Y294566D01*
Y295434D01*
X604974Y296235D01*
X604654Y296555D01*
Y302722D01*
X605640Y303151D01*
X606441Y302819D01*
X607309D01*
X608111Y303151D01*
X609096Y302722D01*
Y291250D01*
X609212Y290665D01*
X609544Y290169D01*
X620794Y278919D01*
X621290Y278587D01*
X621875Y278471D01*
X628769D01*
X628773Y278456D01*
X629299Y277544D01*
X630044Y276799D01*
X630956Y276273D01*
X631973Y276000D01*
X633027D01*
X634044Y276273D01*
X634956Y276799D01*
X635701Y277544D01*
X636227Y278456D01*
X636500Y279473D01*
Y280527D01*
X636227Y281544D01*
X635701Y282456D01*
X634956Y283201D01*
X634044Y283727D01*
X633027Y284000D01*
X631973D01*
X630956Y283727D01*
X630044Y283201D01*
X629299Y282456D01*
X628773Y281544D01*
X628769Y281529D01*
X622508D01*
X612154Y291883D01*
Y367064D01*
X612038Y367649D01*
X611706Y368145D01*
X606816Y373035D01*
X606814Y373266D01*
X607033Y373433D01*
X607962Y373481D01*
X613846Y367597D01*
X614376Y367243D01*
X615000Y367119D01*
X618488D01*
Y365781D01*
X620022D01*
Y333347D01*
X620146Y332722D01*
X620500Y332193D01*
X630869Y321824D01*
Y313677D01*
X630044Y313201D01*
X629299Y312456D01*
X628773Y311544D01*
X628500Y310527D01*
Y309473D01*
X628773Y308456D01*
X629299Y307544D01*
X630044Y306799D01*
X630956Y306273D01*
X631973Y306000D01*
X633027D01*
X634044Y306273D01*
X634956Y306799D01*
X635701Y307544D01*
X636227Y308456D01*
X636500Y309473D01*
Y310527D01*
X636227Y311544D01*
X635701Y312456D01*
X634956Y313201D01*
X634131Y313677D01*
Y322500D01*
X634007Y323124D01*
X633653Y323654D01*
X623285Y334022D01*
Y365074D01*
X623992Y365781D01*
X624819Y365781D01*
X625819Y365781D01*
X627846D01*
Y368750D01*
Y371719D01*
X625819D01*
X625181Y371719D01*
X624181Y371719D01*
X618488D01*
Y370381D01*
X615676D01*
X610326Y375731D01*
Y394687D01*
X612099D01*
Y390754D01*
X617914D01*
Y397160D01*
X612406D01*
Y401412D01*
X612294D01*
Y402960D01*
X612474Y403139D01*
X612806Y403941D01*
Y404809D01*
X612474Y405611D01*
X611861Y406224D01*
X611059Y406556D01*
X610191D01*
X609389Y406224D01*
X608776Y405611D01*
X608444Y404809D01*
Y403941D01*
X608776Y403139D01*
X609338Y402578D01*
Y401412D01*
X606440D01*
Y405090D01*
X606323Y405675D01*
X605992Y406171D01*
X604056Y408107D01*
Y408559D01*
X603724Y409361D01*
X603111Y409974D01*
X602309Y410306D01*
X601441D01*
X600639Y409974D01*
X600621Y409955D01*
X600575Y409948D01*
X599499Y410248D01*
X599349Y410610D01*
X598736Y411224D01*
X597934Y411556D01*
X597066D01*
X596265Y411224D01*
X595651Y410610D01*
X594672Y410741D01*
X594413D01*
X593803Y410744D01*
X593469Y411664D01*
Y412342D01*
X595542Y414415D01*
X595862Y414893D01*
X595974Y415457D01*
Y415988D01*
X597282D01*
X597469Y415988D01*
X598281Y415988D01*
X598468Y415988D01*
X600750D01*
Y419154D01*
X601250D01*
Y419654D01*
X604218D01*
Y421681D01*
X604218Y422319D01*
X604218Y423319D01*
Y429012D01*
X602677D01*
Y431250D01*
X602569Y431796D01*
X602259Y432259D01*
X602259Y432259D01*
X597599Y436920D01*
Y438743D01*
X598549Y438864D01*
X598876Y438073D01*
X599481Y437469D01*
X599872Y437307D01*
X607029Y430149D01*
X607674Y429718D01*
X608435Y429567D01*
X608813D01*
Y427406D01*
X618687D01*
Y429567D01*
X621261D01*
X622031Y429012D01*
Y423319D01*
X622031Y422681D01*
X622031Y421681D01*
Y415988D01*
X622225D01*
X622893Y414988D01*
X622819Y414809D01*
Y413941D01*
X623151Y413139D01*
X623765Y412526D01*
X624566Y412194D01*
X625434D01*
X626235Y412526D01*
X626849Y413139D01*
X627181Y413941D01*
Y414809D01*
X627107Y414988D01*
X627775Y415988D01*
X627969D01*
Y417680D01*
X629531D01*
Y415988D01*
X635468D01*
Y421681D01*
X635468Y422319D01*
X635468Y423319D01*
Y425347D01*
X629531D01*
Y423319D01*
X629531Y422681D01*
X629531Y420975D01*
X628532Y420772D01*
X627969Y421335D01*
X627969Y422319D01*
X627969Y423319D01*
Y429012D01*
X626988D01*
Y430000D01*
X626837Y430761D01*
X626406Y431406D01*
X624851Y432961D01*
X624206Y433392D01*
X623445Y433543D01*
X618687D01*
Y435705D01*
X608813D01*
Y435295D01*
X607889Y434913D01*
X602687Y440115D01*
Y441356D01*
X602880D01*
Y445309D01*
X603758D01*
Y441356D01*
X603939D01*
Y445309D01*
X604939D01*
Y441356D01*
X606030D01*
Y443204D01*
X606282Y443445D01*
X607029Y443792D01*
X607483Y443604D01*
X607758Y443568D01*
Y448662D01*
Y453755D01*
X607483Y453719D01*
X606761Y453420D01*
X606141Y452944D01*
X605665Y452324D01*
X605571Y452096D01*
X605064Y452008D01*
X604458Y452024D01*
X603919Y452562D01*
X603081Y452910D01*
X602175D01*
X601337Y452562D01*
X600696Y451921D01*
X600348Y451083D01*
Y450176D01*
X599645Y449261D01*
X595628D01*
X595565Y449580D01*
X595245Y450058D01*
X594261Y451042D01*
X593783Y451362D01*
X593219Y451474D01*
X591250D01*
X590686Y451362D01*
X590208Y451042D01*
X589223Y450058D01*
X588904Y449580D01*
X588841Y449261D01*
X582855D01*
X582152Y450176D01*
Y451083D01*
X581805Y451921D01*
X581163Y452562D01*
X580326Y452910D01*
X579419D01*
X578581Y452562D01*
X578042Y452024D01*
X577436Y452008D01*
X576930Y452096D01*
X576835Y452324D01*
X576359Y452944D01*
X575739Y453420D01*
X575017Y453719D01*
X574742Y453755D01*
Y448662D01*
X574242D01*
Y448162D01*
X571248D01*
Y446496D01*
X571350Y445721D01*
X571649Y444999D01*
X572125Y444379D01*
X572623Y443997D01*
X573151Y443111D01*
X572819Y442309D01*
Y442001D01*
X566199Y435381D01*
X563388D01*
X562764Y435257D01*
X562235Y434903D01*
X558392Y431061D01*
X557181D01*
Y432693D01*
X552819D01*
Y426631D01*
X540931D01*
Y432693D01*
X541910Y432744D01*
X546875D01*
X547499Y432868D01*
X548029Y433221D01*
X552403Y437597D01*
X552757Y438126D01*
X552881Y438750D01*
Y438824D01*
X553588Y439532D01*
X554819Y439532D01*
X555819Y439532D01*
X557846D01*
Y442500D01*
Y445469D01*
X555440Y445469D01*
X554916Y446358D01*
X556153Y447597D01*
X556507Y448126D01*
X556584Y448512D01*
X556900Y449469D01*
X561349D01*
X564694Y446124D01*
Y445816D01*
X565026Y445014D01*
X565639Y444401D01*
X566441Y444069D01*
X567309D01*
X568111Y444401D01*
X568724Y445014D01*
X569056Y445816D01*
Y446684D01*
X568724Y447485D01*
X568111Y448099D01*
X567309Y448431D01*
X567001D01*
X563178Y452253D01*
X562649Y452607D01*
X562025Y452731D01*
X561000D01*
Y456500D01*
X549000D01*
Y449500D01*
X552029D01*
X552443Y448500D01*
X550500Y446557D01*
X550146Y446028D01*
X550035Y445469D01*
X548488D01*
Y439532D01*
X548488D01*
X548724Y438531D01*
X546199Y436006D01*
X544899D01*
X544230Y437006D01*
X544277Y437120D01*
Y437988D01*
X544052Y438531D01*
X544400Y439291D01*
X544618Y439532D01*
X545262D01*
Y445469D01*
X544034D01*
Y453906D01*
X545262D01*
Y459843D01*
X545262D01*
Y460156D01*
X545262D01*
Y466093D01*
X538931D01*
Y466093D01*
X538569D01*
Y466093D01*
X532238D01*
Y464208D01*
X531238Y464071D01*
X530960Y464349D01*
X530158Y464681D01*
X529291D01*
X528489Y464349D01*
X528114Y463974D01*
X513992D01*
Y467000D01*
X509449D01*
X504906D01*
Y464728D01*
Y459728D01*
Y454728D01*
Y449728D01*
Y443974D01*
X502500D01*
X501936Y443862D01*
X501458Y443542D01*
X498958Y441042D01*
X498638Y440564D01*
X498526Y440000D01*
Y406611D01*
X498151Y406236D01*
X497819Y405434D01*
Y404566D01*
X498151Y403764D01*
X498765Y403151D01*
X498834Y403122D01*
X498635Y402122D01*
X445094D01*
Y404728D01*
Y409728D01*
Y414728D01*
Y419728D01*
Y424728D01*
Y429728D01*
Y434728D01*
Y439728D01*
Y444728D01*
Y449728D01*
Y454728D01*
Y459728D01*
Y464728D01*
Y467000D01*
X436008D01*
Y464437D01*
X407473D01*
X406512Y464532D01*
Y469625D01*
X406512Y470469D01*
X407447Y470625D01*
X435154D01*
X436008Y470272D01*
X436008Y469625D01*
Y468000D01*
X445094D01*
Y469625D01*
X445094Y470272D01*
X445948Y470625D01*
X504052D01*
X504906Y470272D01*
X504906Y469625D01*
Y468000D01*
X509449D01*
X513992D01*
Y469625D01*
X513992Y470272D01*
X514846Y470625D01*
X548052D01*
X549000Y470500D01*
X549000Y469625D01*
Y467500D01*
X555000D01*
X561000D01*
Y469625D01*
X561000Y470500D01*
X561948Y470625D01*
X620552D01*
X621500Y470500D01*
X621500Y469625D01*
Y467500D01*
X627500D01*
X633500D01*
Y469625D01*
X633500Y470500D01*
X634448Y470625D01*
X651161D01*
X651486Y469625D01*
D02*
G37*
G36*
X393488Y470469D02*
X393488Y469625D01*
Y468000D01*
X396654D01*
Y467500D01*
X397154D01*
Y464532D01*
X397253D01*
X397667Y463531D01*
X396321Y462185D01*
X395901Y461557D01*
X395753Y460815D01*
Y460468D01*
X393488D01*
Y460275D01*
X392488Y459607D01*
X392309Y459681D01*
X391441D01*
X390639Y459349D01*
X390026Y458736D01*
X389694Y457934D01*
Y457066D01*
X390026Y456264D01*
X390639Y455651D01*
X391441Y455319D01*
X392309D01*
X392488Y455393D01*
X393488Y454725D01*
Y454531D01*
X399181D01*
X399819Y454531D01*
Y454531D01*
X400181D01*
Y454531D01*
X406512D01*
Y455494D01*
X407512Y455654D01*
X407514Y455651D01*
X408316Y455319D01*
X409184D01*
X409773Y455563D01*
X436008D01*
Y453927D01*
X435000D01*
X434454Y453819D01*
X433991Y453509D01*
X433991Y453509D01*
X410241Y429759D01*
X409931Y429296D01*
X409823Y428750D01*
X409823Y428750D01*
X409823Y409676D01*
X408823Y409262D01*
X408736Y409349D01*
X407934Y409681D01*
X407066D01*
X406755Y409552D01*
X405262D01*
Y411094D01*
X399569D01*
X398931Y411094D01*
X397931Y411094D01*
X392238D01*
Y407220D01*
X382659D01*
X382659Y407220D01*
X371115D01*
X361278Y417056D01*
Y421642D01*
X362032Y422238D01*
X362278Y422238D01*
X364500D01*
Y425404D01*
X365000D01*
Y425904D01*
X367969D01*
Y427931D01*
X367969Y428569D01*
X367969Y429569D01*
Y435262D01*
X366427D01*
Y436250D01*
X366330Y436738D01*
X366708Y437163D01*
X367107Y437416D01*
X367771Y437141D01*
X368626D01*
X369417Y437469D01*
X370022Y438073D01*
X370349Y438864D01*
Y439719D01*
X370187Y440110D01*
Y441356D01*
X370380D01*
Y445309D01*
X371258D01*
Y441356D01*
X371439D01*
Y445309D01*
X372439D01*
Y441356D01*
X373530D01*
Y443204D01*
X373781Y443445D01*
X374530Y443792D01*
X374983Y443604D01*
X375258Y443568D01*
Y448662D01*
Y453755D01*
X374983Y453719D01*
X374261Y453420D01*
X373641Y452944D01*
X373165Y452324D01*
X373071Y452096D01*
X372564Y452008D01*
X371958Y452024D01*
X371419Y452562D01*
X370581Y452910D01*
X369674D01*
X368837Y452562D01*
X368196Y451921D01*
X367848Y451083D01*
Y450176D01*
X367145Y449261D01*
X363011D01*
X362745Y449659D01*
X361875Y450529D01*
X361397Y450849D01*
X360833Y450961D01*
X358636D01*
X358072Y450849D01*
X357594Y450529D01*
X356723Y449659D01*
X356458Y449261D01*
X350355D01*
X349652Y450176D01*
Y451083D01*
X349305Y451921D01*
X348663Y452562D01*
X347826Y452910D01*
X346919D01*
X346081Y452562D01*
X345542Y452024D01*
X344936Y452008D01*
X344429Y452096D01*
X344335Y452324D01*
X343859Y452944D01*
X343239Y453420D01*
X342517Y453719D01*
X342242Y453755D01*
Y448662D01*
Y443568D01*
X342517Y443604D01*
X342970Y443792D01*
X343719Y443445D01*
X343970Y443204D01*
Y441356D01*
X345061D01*
Y445309D01*
X346061D01*
Y441356D01*
X346242D01*
Y445309D01*
X347120D01*
Y441356D01*
X347313D01*
Y440115D01*
X343247Y436049D01*
X338547D01*
Y429569D01*
X338547Y428541D01*
X337840Y427834D01*
X318760D01*
X318029Y427738D01*
X317348Y427456D01*
X316763Y427007D01*
X297378Y407622D01*
X296929Y407037D01*
X296647Y406356D01*
X296551Y405625D01*
Y177500D01*
X296647Y176769D01*
X296929Y176088D01*
X297378Y175503D01*
X303628Y169253D01*
X304213Y168804D01*
X304894Y168522D01*
X305625Y168426D01*
X318488D01*
Y168281D01*
X324181D01*
X324819Y168281D01*
X325819Y168281D01*
X331512D01*
Y169313D01*
X333573D01*
X336188Y166698D01*
Y159375D01*
X336335Y158634D01*
X336755Y158005D01*
X339880Y154880D01*
X340509Y154460D01*
X341250Y154313D01*
X343488D01*
Y153281D01*
X344716D01*
Y150847D01*
X344864Y150105D01*
X345284Y149477D01*
X347380Y147380D01*
X348009Y146960D01*
X348750Y146813D01*
X359198D01*
X363063Y142948D01*
Y128302D01*
X360861Y126101D01*
X358900D01*
Y128713D01*
X341100D01*
Y126988D01*
X339788D01*
X339057Y126891D01*
X338376Y126609D01*
X337791Y126160D01*
X331874Y120243D01*
X330874Y120300D01*
Y123163D01*
X330921D01*
Y129100D01*
X327547D01*
X327259Y129394D01*
X327173Y129625D01*
X327828Y130563D01*
X328125D01*
X328866Y130710D01*
X329495Y131130D01*
X330307Y131942D01*
X330727Y132571D01*
X330874Y133312D01*
Y133400D01*
X330921D01*
Y134894D01*
X335743D01*
X336307Y135006D01*
X336785Y135326D01*
X338335Y136876D01*
X341100D01*
Y133800D01*
X358900D01*
Y142900D01*
X341100D01*
Y139824D01*
X337725D01*
X337161Y139712D01*
X336683Y139392D01*
X335133Y137842D01*
X330921D01*
Y139337D01*
X325500D01*
Y136368D01*
X324500D01*
Y139337D01*
X323000D01*
Y142324D01*
X323040Y142384D01*
X323187Y143125D01*
Y146590D01*
X323894Y147297D01*
X324819Y147297D01*
X325819Y147297D01*
X328240D01*
Y151250D01*
X328740D01*
Y151750D01*
X332299D01*
Y155047D01*
X332299Y155203D01*
Y156047D01*
X332299Y156203D01*
Y159500D01*
X328740D01*
Y160000D01*
X328240D01*
Y163953D01*
X325819D01*
X325181Y163953D01*
X324181Y163953D01*
X317701D01*
Y156047D01*
X317701D01*
Y155203D01*
X317701D01*
Y153697D01*
X293750D01*
X292814Y153511D01*
X292020Y152980D01*
X283708Y144668D01*
X283177Y143874D01*
X282991Y142938D01*
Y113312D01*
X283177Y112376D01*
X283708Y111582D01*
X290145Y105145D01*
X290444Y104945D01*
X290140Y103945D01*
X289922D01*
X287901Y103625D01*
X285955Y102992D01*
X284131Y102064D01*
X282476Y100861D01*
X281029Y99414D01*
X280375Y98514D01*
X279375Y98839D01*
Y451161D01*
X280375Y451486D01*
X281029Y450586D01*
X282476Y449139D01*
X284131Y447936D01*
X285955Y447008D01*
X287901Y446375D01*
X289922Y446055D01*
X290445D01*
Y459055D01*
X290945D01*
Y459555D01*
X303945D01*
Y460078D01*
X303625Y462099D01*
X302993Y464045D01*
X302063Y465869D01*
X300861Y467524D01*
X299414Y468971D01*
X298514Y469625D01*
X298839Y470625D01*
X392553D01*
X393488Y470469D01*
D02*
G37*
G36*
X354755Y440958D02*
X355625Y440088D01*
X356103Y439769D01*
X356667Y439656D01*
X357408D01*
X357822Y438656D01*
X357271Y438105D01*
X356951Y437627D01*
X356839Y437063D01*
Y415828D01*
X356951Y415264D01*
X357271Y414786D01*
X357539Y414518D01*
X357037Y413696D01*
X356356Y413978D01*
X355625Y414074D01*
X351170D01*
X345324Y419920D01*
Y421451D01*
X346453D01*
Y427931D01*
X346453Y428569D01*
X346453Y429569D01*
Y433631D01*
X348817Y435995D01*
X349683Y435838D01*
X349532Y435262D01*
X349532D01*
Y429569D01*
X349532Y428931D01*
X349532Y427931D01*
Y425904D01*
X355469D01*
Y427931D01*
X355469Y428569D01*
X355469Y429569D01*
Y435262D01*
X353927D01*
Y436250D01*
X353927Y436250D01*
X353819Y436796D01*
X353509Y437259D01*
X353509Y437259D01*
X353288Y437481D01*
Y441356D01*
X354489D01*
X354755Y440958D01*
D02*
G37*
G36*
X578561Y441356D02*
X578742D01*
Y445309D01*
X579620D01*
Y441356D01*
X579813D01*
Y440110D01*
X579651Y439719D01*
Y438864D01*
X579979Y438073D01*
X580583Y437469D01*
X581374Y437141D01*
X582229D01*
X582933Y436671D01*
Y433702D01*
X580241Y431009D01*
X579931Y430546D01*
X579823Y430000D01*
X579823Y430000D01*
Y429012D01*
X578281D01*
Y423319D01*
X578281Y422681D01*
X578281Y421681D01*
Y419654D01*
X581250D01*
Y419153D01*
X581750D01*
Y415988D01*
X584031D01*
X584219Y415988D01*
X585032D01*
X585218Y415988D01*
X586526D01*
Y415457D01*
X586638Y414893D01*
X586958Y414415D01*
X589031Y412342D01*
Y411974D01*
X560712Y383656D01*
X560393Y383177D01*
X560281Y382613D01*
Y377039D01*
X559977Y376877D01*
X559280Y376732D01*
X558814Y377199D01*
X558013Y377531D01*
X557145D01*
X556343Y377199D01*
X555968Y376823D01*
X540349D01*
X539785Y376711D01*
X539307Y376392D01*
X535208Y372292D01*
X534888Y371814D01*
X534812Y371432D01*
X533812Y371530D01*
Y385448D01*
X543245Y394880D01*
X543665Y395509D01*
X543812Y396250D01*
Y399532D01*
X545262D01*
Y399725D01*
X546262Y400393D01*
X546441Y400319D01*
X547309D01*
X548110Y400651D01*
X548724Y401264D01*
X549056Y402066D01*
X550022Y401984D01*
Y384976D01*
X549694Y384184D01*
Y383316D01*
X550026Y382515D01*
X550639Y381901D01*
X551441Y381569D01*
X552309D01*
X553111Y381901D01*
X553724Y382515D01*
X554056Y383316D01*
Y384184D01*
X553724Y384985D01*
X553285Y385425D01*
Y404716D01*
X554285Y405131D01*
X554389Y405026D01*
X555191Y404694D01*
X556059D01*
X556860Y405026D01*
X557078Y405244D01*
X577922D01*
X578139Y405026D01*
X578941Y404694D01*
X579809D01*
X580611Y405026D01*
X581224Y405640D01*
X581556Y406441D01*
Y407309D01*
X581224Y408111D01*
X580611Y408724D01*
X579809Y409056D01*
X578941D01*
X578139Y408724D01*
X577922Y408506D01*
X568725D01*
Y433293D01*
X575126Y439694D01*
X575434D01*
X576235Y440026D01*
X576849Y440639D01*
X577146Y441356D01*
X577561D01*
Y445309D01*
X578561D01*
Y441356D01*
D02*
G37*
G36*
X566441Y378444D02*
X566972D01*
X573526Y371889D01*
Y369797D01*
X573244Y368913D01*
X568913D01*
Y373244D01*
X565929D01*
Y370571D01*
X564977D01*
Y373244D01*
X564804D01*
X564799Y373269D01*
X564719Y373388D01*
Y378282D01*
X565305Y378596D01*
X565720Y378743D01*
X566441Y378444D01*
D02*
G37*
G36*
X548526Y368125D02*
X548565Y367927D01*
X548043Y367076D01*
X547859Y366927D01*
X546719D01*
Y369012D01*
X546525D01*
X545857Y370012D01*
X545931Y370191D01*
Y371059D01*
X545599Y371861D01*
X544985Y372474D01*
X544184Y372806D01*
X543316D01*
X542515Y372474D01*
X541901Y371861D01*
X541569Y371059D01*
Y370191D01*
X541643Y370012D01*
X540975Y369012D01*
X540781D01*
Y363319D01*
X540781Y362681D01*
X540781Y361681D01*
Y359654D01*
X543750D01*
Y359154D01*
X544250D01*
Y355988D01*
X546276D01*
X546719Y355988D01*
X547276Y355219D01*
Y354985D01*
X545014Y352724D01*
X538735D01*
X537724Y353735D01*
Y355988D01*
X539219D01*
Y362319D01*
X539219D01*
Y362681D01*
X539219D01*
Y369012D01*
X537724D01*
Y370639D01*
X540960Y373875D01*
X548526D01*
Y368125D01*
D02*
G37*
G36*
X551756Y360410D02*
Y356087D01*
X556087D01*
Y351756D01*
X556105D01*
Y347421D01*
X556217Y346857D01*
X556536Y346379D01*
X560665Y342250D01*
X560251Y341250D01*
X559000D01*
Y335750D01*
X559000Y335000D01*
X559000Y334250D01*
Y328750D01*
X561026D01*
Y326512D01*
X559531D01*
Y320819D01*
X559531Y320181D01*
X559531Y319298D01*
X558824Y318591D01*
X557426D01*
X556718Y319298D01*
Y319819D01*
X556718Y320819D01*
Y326512D01*
X555224D01*
Y328750D01*
X557250D01*
Y334250D01*
X557250Y335000D01*
X557250Y335750D01*
Y337750D01*
X553750D01*
X550250D01*
Y335750D01*
X550250Y335000D01*
X550250Y334250D01*
Y328750D01*
X552276D01*
Y326512D01*
X550781D01*
Y323372D01*
X549782Y322958D01*
X548023Y324716D01*
X547395Y325136D01*
X546719Y325271D01*
Y326512D01*
X540781D01*
Y325284D01*
X533812D01*
Y352845D01*
X534812Y352943D01*
X534888Y352561D01*
X535208Y352083D01*
X537083Y350208D01*
X537561Y349888D01*
X538125Y349776D01*
X545625D01*
X546189Y349888D01*
X546667Y350208D01*
X549792Y353333D01*
X550112Y353811D01*
X550224Y354375D01*
Y360397D01*
X550790Y360841D01*
X551756Y360410D01*
D02*
G37*
G36*
X421762Y192927D02*
Y190971D01*
X421294Y190701D01*
X420549Y189956D01*
X420023Y189044D01*
X419893Y188559D01*
X418857D01*
X418727Y189044D01*
X418201Y189956D01*
X417456Y190701D01*
X416544Y191227D01*
X415527Y191500D01*
X415500D01*
Y187500D01*
Y183500D01*
X415527D01*
X416544Y183773D01*
X417456Y184299D01*
X418201Y185044D01*
X418727Y185956D01*
X418857Y186441D01*
X419893D01*
X420023Y185956D01*
X420549Y185044D01*
X421294Y184299D01*
X422206Y183773D01*
X422276Y183754D01*
Y183125D01*
X422388Y182561D01*
X422708Y182083D01*
X423444Y181347D01*
Y180816D01*
X423776Y180015D01*
X424390Y179401D01*
X425191Y179069D01*
X425722D01*
X430833Y173958D01*
X431311Y173638D01*
X431875Y173526D01*
X432033D01*
X432922Y173260D01*
Y169008D01*
X427414D01*
Y162602D01*
X433229D01*
Y166535D01*
X438944D01*
Y144153D01*
X432514Y137724D01*
X385625D01*
X385061Y137612D01*
X384583Y137292D01*
X376458Y129167D01*
X376138Y128689D01*
X376026Y128125D01*
Y127206D01*
X374335D01*
Y116544D01*
X376026D01*
X376026Y113387D01*
X374532D01*
Y107694D01*
X374532Y107056D01*
X374532Y106056D01*
Y104028D01*
X377500D01*
X380469D01*
Y106056D01*
X380469Y106694D01*
X380469Y107694D01*
Y113387D01*
X378974D01*
X378974Y116544D01*
X380665D01*
Y127206D01*
X380079D01*
X379665Y128206D01*
X386235Y134776D01*
X390760D01*
X391143Y133852D01*
X386458Y129167D01*
X386138Y128689D01*
X386026Y128125D01*
Y127206D01*
X384335D01*
Y116544D01*
X386026D01*
Y113387D01*
X384531D01*
Y107694D01*
X384531Y107056D01*
X384531Y106056D01*
Y104028D01*
X387500D01*
X390469D01*
Y106056D01*
X390469Y106694D01*
X390469Y107694D01*
Y113387D01*
X388974D01*
Y116544D01*
X390665D01*
Y127206D01*
X390079D01*
X389665Y128206D01*
X393736Y132276D01*
X398260D01*
X398643Y131352D01*
X396458Y129167D01*
X396138Y128689D01*
X396026Y128125D01*
Y127206D01*
X394335D01*
Y116544D01*
X396026D01*
Y113387D01*
X394531D01*
Y107694D01*
X394531Y107056D01*
X394531Y106056D01*
Y104028D01*
X397500D01*
X400468D01*
Y106056D01*
X400468Y106694D01*
X400468Y107694D01*
Y113387D01*
X398974D01*
Y116544D01*
X400665D01*
Y127206D01*
X400079D01*
X399665Y128206D01*
X401235Y129776D01*
X434375D01*
X434939Y129888D01*
X435417Y130208D01*
X457208Y151999D01*
X457528Y152477D01*
X457640Y153041D01*
Y166535D01*
X461694D01*
Y169897D01*
X462572D01*
Y166535D01*
X463540D01*
Y169897D01*
X464540D01*
Y166535D01*
X465509D01*
Y169897D01*
X466509D01*
Y166535D01*
X467477D01*
Y169897D01*
X468355D01*
Y166535D01*
X479411D01*
Y169897D01*
X480288D01*
Y166535D01*
X481257D01*
Y169897D01*
X482134D01*
Y166535D01*
X495159D01*
Y169897D01*
X496036D01*
Y166535D01*
X497005D01*
Y169897D01*
X498005D01*
Y166535D01*
X498973D01*
Y169897D01*
X499851D01*
Y166535D01*
X509857D01*
Y158148D01*
X509857Y158148D01*
X509965Y157602D01*
X510275Y157139D01*
X538573Y128841D01*
Y113387D01*
X537032D01*
Y107694D01*
X537032Y107056D01*
X537032Y106173D01*
X536324Y105466D01*
X531649D01*
X531468Y105647D01*
X531224Y106236D01*
X530611Y106849D01*
X529809Y107181D01*
X528941D01*
X528139Y106849D01*
X527526Y106236D01*
X527194Y105434D01*
Y104566D01*
X527526Y103764D01*
X528139Y103151D01*
X528728Y102907D01*
X529477Y102159D01*
X530105Y101739D01*
X530847Y101591D01*
X537032D01*
Y100363D01*
X542969D01*
Y101591D01*
X547031D01*
Y100363D01*
X552969D01*
Y101591D01*
X557031D01*
Y100363D01*
X562526D01*
X562968Y100363D01*
X563526Y99594D01*
Y92485D01*
X562514Y91474D01*
X458111Y91474D01*
X426667Y122917D01*
X426189Y123237D01*
X425625Y123349D01*
X410665D01*
Y127206D01*
X404335D01*
Y116544D01*
X406026D01*
Y113387D01*
X404531D01*
Y107694D01*
X404531Y107056D01*
X404531Y106056D01*
Y104028D01*
X407500D01*
X410468D01*
Y106056D01*
X410468Y106694D01*
X410468Y107694D01*
Y113387D01*
X408974D01*
Y116544D01*
X410665D01*
Y120401D01*
X425014D01*
X455719Y89697D01*
X455304Y88697D01*
X337831D01*
X313986Y112542D01*
X313986Y112542D01*
X313192Y113073D01*
X312256Y113259D01*
X312244D01*
X311512Y113907D01*
Y115603D01*
X311609D01*
X312233Y115727D01*
X312762Y116080D01*
X316376Y119694D01*
X316684D01*
X316701Y119701D01*
X317701Y119033D01*
Y116750D01*
X321260D01*
Y116250D01*
X321760D01*
Y112297D01*
X324181D01*
X324819Y112297D01*
X325819Y112297D01*
X332299D01*
Y113482D01*
X332606Y113522D01*
X333287Y113804D01*
X333872Y114253D01*
X340100Y120481D01*
X341100Y120067D01*
Y119613D01*
X358900D01*
Y122226D01*
X361663D01*
X362405Y122374D01*
X363033Y122794D01*
X366370Y126130D01*
X366790Y126759D01*
X366937Y127500D01*
Y143750D01*
X366790Y144491D01*
X366370Y145120D01*
X361370Y150120D01*
X360741Y150540D01*
X360000Y150687D01*
X349552D01*
X348591Y151649D01*
Y153281D01*
X349819D01*
Y153281D01*
X350181D01*
Y153281D01*
X356512D01*
Y159219D01*
X355335D01*
Y160782D01*
X356512D01*
Y166718D01*
X355335D01*
Y168281D01*
X356512D01*
Y169262D01*
X381875D01*
X382636Y169413D01*
X383281Y169844D01*
X409574Y196137D01*
X418551D01*
X421762Y192927D01*
D02*
G37*
G36*
X338547Y421451D02*
X339676D01*
Y418750D01*
X339772Y418019D01*
X340054Y417338D01*
X340503Y416753D01*
X348003Y409253D01*
X348588Y408804D01*
X348870Y408687D01*
X349269Y408522D01*
X350000Y408426D01*
X354455D01*
X370926Y391955D01*
Y388549D01*
X369797D01*
Y387814D01*
X367490D01*
X366759Y387718D01*
X366078Y387436D01*
X365493Y386987D01*
X359558Y381052D01*
X359109Y380467D01*
X358827Y379786D01*
X358731Y379055D01*
Y375557D01*
X358587D01*
Y364108D01*
X364524D01*
Y375557D01*
X364379D01*
Y377885D01*
X368257Y381763D01*
X369493D01*
X369797Y381459D01*
X369797Y380431D01*
Y378010D01*
X373750D01*
X377703D01*
Y380431D01*
X377703Y381069D01*
X377703Y382069D01*
Y388549D01*
X376574D01*
Y393125D01*
X376478Y393856D01*
X376196Y394537D01*
X375747Y395122D01*
X369121Y401748D01*
X369350Y402831D01*
X369407Y402876D01*
X369887Y402780D01*
X383276D01*
X383277Y402780D01*
X392238D01*
Y398906D01*
X397931D01*
X398569Y398906D01*
X399569Y398906D01*
X405262D01*
Y400448D01*
X406755D01*
X407066Y400319D01*
X407934D01*
X408736Y400651D01*
X408823Y400738D01*
X409823Y400324D01*
X409823Y368750D01*
X409823Y368350D01*
Y365676D01*
X409600Y365632D01*
X408906Y365168D01*
X408504Y364566D01*
X408442Y364473D01*
X408279Y363654D01*
X408292D01*
Y362254D01*
X408279D01*
X408442Y361435D01*
X408504Y361342D01*
X408906Y360740D01*
X409600Y360276D01*
X409823Y360232D01*
X409823Y238854D01*
X409823Y238854D01*
X409931Y238308D01*
X410241Y237845D01*
X458676Y189409D01*
X458676Y173260D01*
X458512D01*
Y169897D01*
X457757D01*
Y173260D01*
X453703D01*
Y180896D01*
X453591Y181460D01*
X453271Y181938D01*
X452208Y183001D01*
X452373Y184251D01*
X452456Y184299D01*
X453201Y185044D01*
X453727Y185956D01*
X454000Y186973D01*
Y188027D01*
X453727Y189044D01*
X453201Y189956D01*
X452456Y190701D01*
X451988Y190971D01*
Y193750D01*
X451837Y194511D01*
X451406Y195156D01*
X403281Y243281D01*
X402636Y243712D01*
X401875Y243863D01*
X370000D01*
X369239Y243712D01*
X368594Y243281D01*
X366212Y240899D01*
X365781Y240254D01*
X365630Y239493D01*
Y238687D01*
X364158D01*
Y235738D01*
X356512D01*
Y236719D01*
X355335D01*
Y240781D01*
X356512D01*
Y246719D01*
X350819D01*
X350181Y246719D01*
X349181Y246719D01*
X347154D01*
Y243750D01*
Y240781D01*
X349181D01*
X349819Y240781D01*
X350651Y240781D01*
X351358Y240074D01*
Y237426D01*
X350651Y236719D01*
X350181D01*
X349181Y236719D01*
X343488D01*
Y235738D01*
X338125D01*
X337364Y235587D01*
X336719Y235156D01*
X319657Y218094D01*
X319226Y217449D01*
X319075Y216688D01*
Y203356D01*
X316993D01*
X316232Y203205D01*
X315587Y202774D01*
X314398Y201585D01*
X312968D01*
Y202762D01*
X307031D01*
Y197069D01*
X307031Y196431D01*
X307031Y195431D01*
Y193403D01*
X312968D01*
Y195431D01*
X312968Y196069D01*
X312968Y196901D01*
X313676Y197608D01*
X315222D01*
X315982Y197760D01*
X316627Y198191D01*
X317817Y199380D01*
X319079D01*
Y198400D01*
X324500D01*
Y201368D01*
Y204337D01*
X323051D01*
Y215864D01*
X338948Y231762D01*
X343488D01*
Y230782D01*
X349181D01*
X349819Y230782D01*
X350651Y230782D01*
X351358Y230074D01*
Y226828D01*
X351510Y226067D01*
X351941Y225422D01*
X352894Y224468D01*
Y222569D01*
X353064Y221718D01*
X353546Y220996D01*
X354267Y220514D01*
X355118Y220345D01*
X357480D01*
X358331Y220514D01*
X359053Y220996D01*
X359535Y221718D01*
X359704Y222569D01*
Y224931D01*
X359535Y225782D01*
X359053Y226504D01*
X358331Y226986D01*
X357480Y227155D01*
X355831D01*
X355335Y227651D01*
Y230782D01*
X356512D01*
Y231762D01*
X364158D01*
Y228813D01*
X371079D01*
Y238687D01*
X371079D01*
X371317Y239588D01*
X371516Y239887D01*
X401052D01*
X448012Y192927D01*
Y190971D01*
X447544Y190701D01*
X446799Y189956D01*
X446273Y189044D01*
X446143Y188559D01*
X445107D01*
X444977Y189044D01*
X444451Y189956D01*
X443706Y190701D01*
X443238Y190971D01*
Y193750D01*
X443087Y194511D01*
X442656Y195156D01*
X411406Y226406D01*
X410761Y226837D01*
X410000Y226988D01*
X392767D01*
X392006Y226837D01*
X391361Y226406D01*
X390248Y225293D01*
X389817Y224648D01*
X389665Y223887D01*
Y222343D01*
X388488D01*
Y221363D01*
X385842D01*
Y223687D01*
X378921D01*
Y213813D01*
X385842D01*
Y217387D01*
X388488D01*
Y216406D01*
X394181D01*
X394819Y216406D01*
X395819Y216406D01*
X397847D01*
Y219375D01*
X398346D01*
Y219875D01*
X401512D01*
Y222012D01*
X401512Y222343D01*
X402235Y223012D01*
X409176D01*
X439262Y192927D01*
Y190971D01*
X438794Y190701D01*
X438049Y189956D01*
X437523Y189044D01*
X437393Y188559D01*
X436357D01*
X436227Y189044D01*
X435701Y189956D01*
X434956Y190701D01*
X434488Y190971D01*
Y193750D01*
X434337Y194511D01*
X433906Y195156D01*
X417031Y212031D01*
X416386Y212462D01*
X415625Y212613D01*
X377698D01*
X376988Y213323D01*
Y229802D01*
X377997Y230811D01*
X378921Y230428D01*
Y228813D01*
X385842D01*
Y231762D01*
X388488D01*
Y230782D01*
X394181D01*
X394819Y230782D01*
X395819Y230782D01*
X397847D01*
Y233750D01*
Y236719D01*
X395819D01*
X395181Y236719D01*
X394181Y236719D01*
X388488D01*
Y235738D01*
X385842D01*
Y238687D01*
X378921D01*
Y235738D01*
X378125D01*
X377364Y235587D01*
X376719Y235156D01*
X373594Y232031D01*
X373163Y231386D01*
X373012Y230625D01*
Y212500D01*
X373163Y211739D01*
X373594Y211094D01*
X375469Y209219D01*
X376114Y208788D01*
X376875Y208637D01*
X414802D01*
X430512Y192927D01*
Y190971D01*
X430044Y190701D01*
X429299Y189956D01*
X428773Y189044D01*
X428643Y188559D01*
X427607D01*
X427477Y189044D01*
X426951Y189956D01*
X426206Y190701D01*
X425738Y190971D01*
Y193750D01*
X425587Y194511D01*
X425156Y195156D01*
X420781Y199531D01*
X420136Y199962D01*
X419375Y200113D01*
X408750D01*
X407989Y199962D01*
X407344Y199531D01*
X381051Y173238D01*
X356512D01*
Y174218D01*
X350819D01*
X350181Y174218D01*
X349181Y174218D01*
X347154D01*
Y171250D01*
Y168281D01*
X349181D01*
X349819Y168281D01*
X350651Y168281D01*
X350756Y168176D01*
Y166824D01*
X350651Y166718D01*
X350181D01*
X349181Y166718D01*
X347153D01*
Y163750D01*
Y160782D01*
X349181D01*
X349819Y160782D01*
X350651Y160782D01*
X351214Y160219D01*
X351010Y159219D01*
X350181D01*
Y159219D01*
X349819D01*
Y159219D01*
X343488D01*
Y158187D01*
X342052D01*
X340062Y160177D01*
Y167500D01*
X339915Y168241D01*
X339495Y168870D01*
X335745Y172620D01*
X335116Y173040D01*
X334375Y173187D01*
X331512D01*
Y174218D01*
X330284D01*
Y176047D01*
X332299D01*
Y178063D01*
X347500D01*
X348241Y178210D01*
X348870Y178630D01*
X351370Y181130D01*
X351790Y181759D01*
X351937Y182500D01*
Y184613D01*
X358932D01*
Y193713D01*
X341132D01*
Y184613D01*
X348063D01*
Y183302D01*
X346698Y181937D01*
X332299D01*
Y183953D01*
X330687D01*
Y185000D01*
X330540Y185741D01*
X330120Y186370D01*
X329326Y187163D01*
X329740Y188163D01*
X330921D01*
Y194100D01*
X319079D01*
Y188163D01*
X319126D01*
Y187062D01*
X319273Y186321D01*
X319693Y185692D01*
X320433Y184953D01*
X320401Y184646D01*
X320093Y183953D01*
X317701D01*
Y180500D01*
X321260D01*
Y180000D01*
X321760D01*
Y176047D01*
X324181D01*
X324819Y176047D01*
X325702Y176047D01*
X325995Y175754D01*
Y174512D01*
X325702Y174218D01*
X325181D01*
X324181Y174218D01*
X318488D01*
Y174074D01*
X306795D01*
X302199Y178670D01*
Y404455D01*
X319930Y422186D01*
X338547D01*
Y421451D01*
D02*
G37*
G36*
X569428Y160236D02*
Y94764D01*
X567474Y92809D01*
X566474Y93224D01*
Y113125D01*
X566362Y113689D01*
X566042Y114167D01*
X518664Y161546D01*
Y166535D01*
X522718D01*
Y169897D01*
X523473D01*
Y166535D01*
X532253D01*
Y162602D01*
X538068D01*
Y169008D01*
X532559D01*
Y173260D01*
X533334Y173803D01*
X555861D01*
X569428Y160236D01*
D02*
G37*
G36*
X317701Y147297D02*
X319313D01*
Y143738D01*
X319273Y143679D01*
X319126Y142938D01*
Y139337D01*
X319079D01*
Y136217D01*
X318155Y135835D01*
X315120Y138870D01*
X314491Y139290D01*
X313750Y139437D01*
X313362D01*
Y140911D01*
X306638D01*
Y134187D01*
X313362D01*
Y134187D01*
X314042Y134468D01*
X317260Y131250D01*
X313629Y127618D01*
X312754Y127704D01*
X312032Y128186D01*
X311181Y128356D01*
X308819D01*
X307968Y128186D01*
X307420Y127820D01*
X306360Y128880D01*
X305732Y129300D01*
X304990Y129447D01*
X304660D01*
X303953Y130154D01*
X303953Y131069D01*
X303953Y132069D01*
Y134490D01*
X296047D01*
Y132069D01*
X296047Y131431D01*
X296047Y130664D01*
X295340Y129957D01*
X293135D01*
X292198Y129771D01*
X291405Y129240D01*
X288809Y126645D01*
X287885Y127027D01*
Y141924D01*
X294764Y148803D01*
X317701D01*
Y147297D01*
D02*
G37*
G36*
X296047Y123951D02*
X303953D01*
Y124393D01*
X304953Y124808D01*
X306130Y123630D01*
X306698Y123250D01*
X306764Y122919D01*
X307246Y122197D01*
X307968Y121715D01*
X308819Y121546D01*
X311181D01*
X312032Y121715D01*
X312588Y122086D01*
X313009Y121976D01*
X313371Y121303D01*
X312339Y120271D01*
X311512Y119843D01*
Y119843D01*
X311512Y119843D01*
X305819D01*
X305181Y119843D01*
X304181Y119843D01*
X302154D01*
Y116875D01*
X301654D01*
Y116375D01*
X298488D01*
Y114259D01*
X298488Y113907D01*
X297756Y113259D01*
X294519D01*
X291822Y115956D01*
Y122736D01*
X294148Y125063D01*
X296047D01*
Y123951D01*
D02*
G37*
G36*
X333457Y80583D02*
X333768Y80375D01*
X333464Y79375D01*
X298838D01*
X298514Y80375D01*
X299414Y81029D01*
X300861Y82476D01*
X302063Y84131D01*
X302993Y85955D01*
X303625Y87901D01*
X303945Y89922D01*
Y90445D01*
X290945D01*
Y91445D01*
X303945D01*
Y91968D01*
X303625Y93989D01*
X302993Y95935D01*
X302063Y97758D01*
X300861Y99414D01*
X299414Y100861D01*
X297758Y102064D01*
X295935Y102992D01*
X294595Y103428D01*
X294753Y104428D01*
X309611D01*
X333457Y80583D01*
D02*
G37*
%LPC*%
G36*
X608758Y469109D02*
Y465500D01*
X611252D01*
Y466181D01*
X611150Y466956D01*
X610851Y467678D01*
X610375Y468298D01*
X609755Y468774D01*
X609033Y469073D01*
X608758Y469109D01*
D02*
G37*
G36*
X574742Y469109D02*
Y465500D01*
X577236D01*
Y466181D01*
X577134Y466956D01*
X576835Y467678D01*
X576359Y468298D01*
X575739Y468774D01*
X575017Y469073D01*
X574742Y469109D01*
D02*
G37*
G36*
X573742Y469109D02*
X573467Y469073D01*
X572745Y468774D01*
X572125Y468298D01*
X571649Y467678D01*
X571350Y466956D01*
X571248Y466181D01*
Y465500D01*
X573742D01*
Y469109D01*
D02*
G37*
G36*
X607758Y469109D02*
X607483Y469073D01*
X606761Y468774D01*
X606141Y468298D01*
X605665Y467678D01*
X605366Y466956D01*
X605264Y466181D01*
Y465500D01*
X607758D01*
Y469109D01*
D02*
G37*
G36*
X633500Y466500D02*
X628000D01*
Y463500D01*
X633500D01*
Y466500D01*
D02*
G37*
G36*
X627000D02*
X621500D01*
Y463500D01*
X627000D01*
Y466500D01*
D02*
G37*
G36*
X561000D02*
X555500D01*
Y463500D01*
X561000D01*
Y466500D01*
D02*
G37*
G36*
X554500D02*
X549000D01*
Y463500D01*
X554500D01*
Y466500D01*
D02*
G37*
G36*
X611252Y464500D02*
X608758D01*
Y460891D01*
X609033Y460927D01*
X609755Y461226D01*
X610375Y461702D01*
X610851Y462322D01*
X611150Y463044D01*
X611252Y463819D01*
Y464500D01*
D02*
G37*
G36*
X573742D02*
X571248D01*
Y463819D01*
X571350Y463044D01*
X571649Y462322D01*
X572125Y461702D01*
X572745Y461226D01*
X573467Y460927D01*
X573742Y460891D01*
Y464500D01*
D02*
G37*
G36*
X577236D02*
X574742D01*
Y460891D01*
X575017Y460927D01*
X575739Y461226D01*
X576359Y461702D01*
X576835Y462322D01*
X577134Y463044D01*
X577236Y463819D01*
Y464500D01*
D02*
G37*
G36*
X607758D02*
X605264D01*
Y463819D01*
X605366Y463044D01*
X605665Y462322D01*
X606141Y461702D01*
X606761Y461226D01*
X607483Y460927D01*
X607758Y460891D01*
Y464500D01*
D02*
G37*
G36*
X608758Y453755D02*
Y449161D01*
X611252D01*
Y450827D01*
X611150Y451602D01*
X610851Y452324D01*
X610375Y452944D01*
X609755Y453420D01*
X609033Y453719D01*
X608758Y453755D01*
D02*
G37*
G36*
X573742D02*
X573467Y453719D01*
X572745Y453420D01*
X572125Y452944D01*
X571649Y452324D01*
X571350Y451602D01*
X571248Y450827D01*
Y449161D01*
X573742D01*
Y453755D01*
D02*
G37*
G36*
X658555Y458555D02*
X646055D01*
Y458032D01*
X646375Y456011D01*
X647008Y454065D01*
X647936Y452242D01*
X649139Y450586D01*
X650586Y449139D01*
X652242Y447936D01*
X654065Y447008D01*
X656011Y446375D01*
X658032Y446055D01*
X658555D01*
Y458555D01*
D02*
G37*
G36*
X633500Y456500D02*
X621500D01*
Y449500D01*
X624529D01*
X624943Y448500D01*
X623000Y446557D01*
X622646Y446028D01*
X622535Y445469D01*
X620988D01*
Y445123D01*
X620973Y445102D01*
X619988Y444537D01*
X619641Y444681D01*
X618774D01*
X617972Y444349D01*
X617359Y443736D01*
X617027Y442934D01*
Y442066D01*
X617359Y441264D01*
X617972Y440651D01*
X618774Y440319D01*
X619641D01*
X619988Y440462D01*
X620973Y439898D01*
X620988Y439877D01*
Y439532D01*
X626681D01*
X627319Y439532D01*
X628319Y439532D01*
X630346D01*
Y442500D01*
Y445469D01*
X627940Y445469D01*
X627416Y446358D01*
X628653Y447597D01*
X629007Y448126D01*
X629131Y448750D01*
Y449500D01*
X633500D01*
Y456500D01*
D02*
G37*
G36*
X611252Y448162D02*
X608758D01*
Y443568D01*
X609033Y443604D01*
X609755Y443903D01*
X610375Y444379D01*
X610851Y444999D01*
X611150Y445721D01*
X611252Y446496D01*
Y448162D01*
D02*
G37*
G36*
X477378Y445390D02*
X475106D01*
Y443118D01*
X477378D01*
Y445390D01*
D02*
G37*
G36*
X463083D02*
X460811D01*
Y443118D01*
X463083D01*
Y445390D01*
D02*
G37*
G36*
X631346Y445469D02*
Y443000D01*
X634012D01*
Y445469D01*
X631346D01*
D02*
G37*
G36*
X558846D02*
Y443000D01*
X561512D01*
Y445469D01*
X558846D01*
D02*
G37*
G36*
X474106Y445390D02*
X469594D01*
Y442618D01*
X468595D01*
Y445390D01*
X464083D01*
Y442618D01*
X463583D01*
Y442118D01*
X460811D01*
Y439847D01*
Y437606D01*
X463583D01*
Y436606D01*
X460811D01*
Y434335D01*
Y432094D01*
X463583D01*
Y431595D01*
X464083D01*
Y428823D01*
X468595D01*
Y431595D01*
X469594D01*
Y428823D01*
X474106D01*
Y431595D01*
X474606D01*
Y432094D01*
X477378D01*
Y434335D01*
Y436606D01*
X474606D01*
Y437606D01*
X477378D01*
Y439847D01*
Y442118D01*
X474606D01*
Y442618D01*
X474106D01*
Y445390D01*
D02*
G37*
G36*
X634012Y442000D02*
X631346D01*
Y439532D01*
X634012D01*
Y442000D01*
D02*
G37*
G36*
X561512D02*
X558846D01*
Y439532D01*
X561512D01*
Y442000D01*
D02*
G37*
G36*
X477378Y431095D02*
X475106D01*
Y428823D01*
X477378D01*
Y431095D01*
D02*
G37*
G36*
X463083D02*
X460811D01*
Y428823D01*
X463083D01*
Y431095D01*
D02*
G37*
G36*
X635468Y429012D02*
X633000D01*
Y426346D01*
X635468D01*
Y429012D01*
D02*
G37*
G36*
X632000D02*
X629531D01*
Y426346D01*
X632000D01*
Y429012D01*
D02*
G37*
G36*
X604218Y418654D02*
X601750D01*
Y415988D01*
X604218D01*
Y418654D01*
D02*
G37*
G36*
X624729Y397160D02*
X618914D01*
Y390754D01*
X624729D01*
Y397160D01*
D02*
G37*
G36*
X592875D02*
X587060D01*
Y390754D01*
X592875D01*
Y397160D01*
D02*
G37*
G36*
X624729Y389754D02*
X618914D01*
Y383349D01*
X624729D01*
Y389754D01*
D02*
G37*
G36*
X617914D02*
X612099D01*
Y383349D01*
X617914D01*
Y389754D01*
D02*
G37*
G36*
X592875D02*
X587060D01*
Y383349D01*
X592875D01*
Y389754D01*
D02*
G37*
G36*
X628846Y371719D02*
Y369250D01*
X631512D01*
Y371719D01*
X628846D01*
D02*
G37*
G36*
X631512Y368250D02*
X628846D01*
Y365781D01*
X631512D01*
Y368250D01*
D02*
G37*
G36*
X584219Y316154D02*
X581750D01*
Y313488D01*
X584219D01*
Y316154D01*
D02*
G37*
G36*
X580750D02*
X578281D01*
Y313488D01*
X580750D01*
Y316154D01*
D02*
G37*
G36*
X543250D02*
X540781D01*
Y313488D01*
X543250D01*
Y316154D01*
D02*
G37*
G36*
X618687Y417594D02*
X608813D01*
Y409295D01*
X613063D01*
Y408984D01*
X613159Y408253D01*
X613441Y407572D01*
X613890Y406987D01*
X615999Y404878D01*
X616584Y404429D01*
X617265Y404147D01*
X617996Y404051D01*
X628449D01*
X628700Y403295D01*
X628716Y403051D01*
X628151Y402486D01*
X627819Y401684D01*
Y400816D01*
X628151Y400014D01*
X628764Y399401D01*
X629566Y399069D01*
X630097D01*
X636026Y393140D01*
Y364985D01*
X627597Y356556D01*
X627066D01*
X626264Y356224D01*
X625651Y355610D01*
X625319Y354809D01*
Y353941D01*
X625651Y353139D01*
X626264Y352526D01*
X627066Y352194D01*
X627934D01*
X628735Y352526D01*
X629349Y353139D01*
X629681Y353941D01*
Y354472D01*
X638542Y363333D01*
X638676Y363533D01*
X639676Y363229D01*
Y312833D01*
X639299Y312456D01*
X638773Y311544D01*
X638500Y310527D01*
Y309473D01*
X638773Y308456D01*
X639299Y307544D01*
X639676Y307167D01*
Y302833D01*
X639299Y302456D01*
X638773Y301544D01*
X638500Y300527D01*
Y299473D01*
X638773Y298456D01*
X639299Y297544D01*
X640044Y296799D01*
X640956Y296273D01*
X641973Y296000D01*
X643027D01*
X644044Y296273D01*
X644956Y296799D01*
X645701Y297544D01*
X646227Y298456D01*
X646500Y299473D01*
Y300527D01*
X646227Y301544D01*
X645701Y302456D01*
X645324Y302833D01*
Y307167D01*
X645701Y307544D01*
X646227Y308456D01*
X646500Y309473D01*
Y310527D01*
X646227Y311544D01*
X645701Y312456D01*
X645324Y312833D01*
Y397500D01*
X645228Y398231D01*
X645063Y398630D01*
X644946Y398912D01*
X644497Y399497D01*
X635122Y408872D01*
X634537Y409321D01*
X633856Y409603D01*
X633125Y409699D01*
X619166D01*
X618711Y410154D01*
Y412095D01*
X618687Y412279D01*
Y417594D01*
D02*
G37*
G36*
X633027Y304000D02*
X631973D01*
X630956Y303727D01*
X630044Y303201D01*
X629299Y302456D01*
X628773Y301544D01*
X628500Y300527D01*
Y299473D01*
X628773Y298456D01*
X629299Y297544D01*
X630044Y296799D01*
X630956Y296273D01*
X631973Y296000D01*
X633027D01*
X634044Y296273D01*
X634956Y296799D01*
X635701Y297544D01*
X636227Y298456D01*
X636500Y299473D01*
Y300527D01*
X636227Y301544D01*
X635701Y302456D01*
X634956Y303201D01*
X634044Y303727D01*
X633027Y304000D01*
D02*
G37*
G36*
X643027Y294000D02*
X643000D01*
Y290500D01*
X646500D01*
Y290527D01*
X646227Y291544D01*
X645701Y292456D01*
X644956Y293201D01*
X644044Y293727D01*
X643027Y294000D01*
D02*
G37*
G36*
X642000D02*
X641973D01*
X640956Y293727D01*
X640044Y293201D01*
X639299Y292456D01*
X638773Y291544D01*
X638500Y290527D01*
Y290500D01*
X642000D01*
Y294000D01*
D02*
G37*
G36*
X646500Y289500D02*
X643000D01*
Y286000D01*
X643027D01*
X644044Y286273D01*
X644956Y286799D01*
X645701Y287544D01*
X646227Y288456D01*
X646500Y289473D01*
Y289500D01*
D02*
G37*
G36*
X642000D02*
X638500D01*
Y289473D01*
X638773Y288456D01*
X639299Y287544D01*
X640044Y286799D01*
X640956Y286273D01*
X641973Y286000D01*
X642000D01*
Y289500D01*
D02*
G37*
G36*
X633027Y294000D02*
X631973D01*
X630956Y293727D01*
X630044Y293201D01*
X629299Y292456D01*
X628773Y291544D01*
X628500Y290527D01*
Y289473D01*
X628773Y288456D01*
X629299Y287544D01*
X630044Y286799D01*
X630956Y286273D01*
X631973Y286000D01*
X633027D01*
X634044Y286273D01*
X634956Y286799D01*
X635701Y287544D01*
X636227Y288456D01*
X636500Y289473D01*
Y290527D01*
X636227Y291544D01*
X635701Y292456D01*
X634956Y293201D01*
X634044Y293727D01*
X633027Y294000D01*
D02*
G37*
G36*
X643027Y284000D02*
X641973D01*
X640956Y283727D01*
X640044Y283201D01*
X639299Y282456D01*
X638773Y281544D01*
X638500Y280527D01*
Y279473D01*
X638773Y278456D01*
X639299Y277544D01*
X640044Y276799D01*
X640956Y276273D01*
X641973Y276000D01*
X643027D01*
X644044Y276273D01*
X644956Y276799D01*
X645701Y277544D01*
X646227Y278456D01*
X646500Y279473D01*
Y280527D01*
X646227Y281544D01*
X645701Y282456D01*
X644956Y283201D01*
X644044Y283727D01*
X643027Y284000D01*
D02*
G37*
G36*
Y274000D02*
X641973D01*
X640956Y273727D01*
X640044Y273201D01*
X639299Y272456D01*
X638773Y271544D01*
X638500Y270527D01*
Y269473D01*
X638773Y268456D01*
X639299Y267544D01*
X640044Y266799D01*
X640956Y266273D01*
X641973Y266000D01*
X643027D01*
X644044Y266273D01*
X644956Y266799D01*
X645701Y267544D01*
X646227Y268456D01*
X646500Y269473D01*
Y270527D01*
X646227Y271544D01*
X645701Y272456D01*
X644956Y273201D01*
X644044Y273727D01*
X643027Y274000D01*
D02*
G37*
G36*
Y264000D02*
X641973D01*
X640956Y263727D01*
X640044Y263201D01*
X639299Y262456D01*
X638773Y261544D01*
X638500Y260527D01*
Y259473D01*
X638773Y258456D01*
X639299Y257544D01*
X640044Y256799D01*
X640956Y256273D01*
X641973Y256000D01*
X643027D01*
X644044Y256273D01*
X644956Y256799D01*
X645701Y257544D01*
X646227Y258456D01*
X646500Y259473D01*
Y260527D01*
X646227Y261544D01*
X645701Y262456D01*
X644956Y263201D01*
X644044Y263727D01*
X643027Y264000D01*
D02*
G37*
G36*
X633027D02*
X631973D01*
X630956Y263727D01*
X630044Y263201D01*
X629299Y262456D01*
X628773Y261544D01*
X628500Y260527D01*
Y259473D01*
X628773Y258456D01*
X629299Y257544D01*
X630044Y256799D01*
X630956Y256273D01*
X631973Y256000D01*
X633027D01*
X634044Y256273D01*
X634956Y256799D01*
X635701Y257544D01*
X636227Y258456D01*
X636500Y259473D01*
Y260527D01*
X636227Y261544D01*
X635701Y262456D01*
X634956Y263201D01*
X634044Y263727D01*
X633027Y264000D01*
D02*
G37*
G36*
X643027Y254000D02*
X641973D01*
X640956Y253727D01*
X640044Y253201D01*
X639299Y252456D01*
X638773Y251544D01*
X638500Y250527D01*
Y249473D01*
X638773Y248456D01*
X639299Y247544D01*
X640044Y246799D01*
X640956Y246273D01*
X641973Y246000D01*
X643027D01*
X644044Y246273D01*
X644956Y246799D01*
X645701Y247544D01*
X646227Y248456D01*
X646500Y249473D01*
Y250527D01*
X646227Y251544D01*
X645701Y252456D01*
X644956Y253201D01*
X644044Y253727D01*
X643027Y254000D01*
D02*
G37*
G36*
X633027D02*
X631973D01*
X630956Y253727D01*
X630044Y253201D01*
X629299Y252456D01*
X628773Y251544D01*
X628500Y250527D01*
Y249473D01*
X628773Y248456D01*
X629299Y247544D01*
X630044Y246799D01*
X630956Y246273D01*
X631973Y246000D01*
X633027D01*
X634044Y246273D01*
X634956Y246799D01*
X635701Y247544D01*
X636227Y248456D01*
X636500Y249473D01*
Y250527D01*
X636227Y251544D01*
X635701Y252456D01*
X634956Y253201D01*
X634044Y253727D01*
X633027Y254000D01*
D02*
G37*
G36*
Y244000D02*
X633000D01*
Y240500D01*
X636500D01*
Y240527D01*
X636227Y241544D01*
X635701Y242456D01*
X634956Y243201D01*
X634044Y243727D01*
X633027Y244000D01*
D02*
G37*
G36*
X632000D02*
X631973D01*
X630956Y243727D01*
X630044Y243201D01*
X629299Y242456D01*
X628773Y241544D01*
X628500Y240527D01*
Y240500D01*
X632000D01*
Y244000D01*
D02*
G37*
G36*
X643027D02*
X641973D01*
X640956Y243727D01*
X640044Y243201D01*
X639299Y242456D01*
X638773Y241544D01*
X638500Y240527D01*
Y239473D01*
X638773Y238456D01*
X639299Y237544D01*
X640044Y236799D01*
X640956Y236273D01*
X641973Y236000D01*
X643027D01*
X644044Y236273D01*
X644956Y236799D01*
X645701Y237544D01*
X646227Y238456D01*
X646500Y239473D01*
Y240527D01*
X646227Y241544D01*
X645701Y242456D01*
X644956Y243201D01*
X644044Y243727D01*
X643027Y244000D01*
D02*
G37*
G36*
X636500Y239500D02*
X633000D01*
Y236000D01*
X633027D01*
X634044Y236273D01*
X634956Y236799D01*
X635701Y237544D01*
X636227Y238456D01*
X636500Y239473D01*
Y239500D01*
D02*
G37*
G36*
X632000D02*
X628500D01*
Y239473D01*
X628773Y238456D01*
X629299Y237544D01*
X630044Y236799D01*
X630956Y236273D01*
X631973Y236000D01*
X632000D01*
Y239500D01*
D02*
G37*
G36*
X529012Y190469D02*
X526346D01*
Y188000D01*
X529012D01*
Y190469D01*
D02*
G37*
G36*
Y187000D02*
X526346D01*
Y184531D01*
X529012D01*
Y187000D01*
D02*
G37*
G36*
X655434Y107181D02*
X654566D01*
X653764Y106849D01*
X653151Y106236D01*
X652819Y105434D01*
Y104566D01*
X653151Y103764D01*
X653227Y103688D01*
X653034Y102467D01*
X652242Y102064D01*
X650586Y100861D01*
X649139Y99414D01*
X647936Y97758D01*
X647008Y95935D01*
X646375Y93989D01*
X646055Y91968D01*
Y91445D01*
X658555D01*
Y103945D01*
X658032D01*
X658004Y103940D01*
X657740Y104142D01*
X657181Y104823D01*
Y105434D01*
X656849Y106236D01*
X656236Y106849D01*
X655434Y107181D01*
D02*
G37*
G36*
X376258Y469109D02*
Y465500D01*
X378752D01*
Y466181D01*
X378650Y466956D01*
X378351Y467678D01*
X377875Y468298D01*
X377255Y468774D01*
X376533Y469073D01*
X376258Y469109D01*
D02*
G37*
G36*
X342242Y469109D02*
Y465500D01*
X344736D01*
Y466181D01*
X344634Y466956D01*
X344335Y467678D01*
X343859Y468298D01*
X343239Y468774D01*
X342517Y469073D01*
X342242Y469109D01*
D02*
G37*
G36*
X341242Y469109D02*
X340967Y469073D01*
X340245Y468774D01*
X339625Y468298D01*
X339149Y467678D01*
X338850Y466956D01*
X338748Y466181D01*
Y465500D01*
X341242D01*
Y469109D01*
D02*
G37*
G36*
X375258Y469109D02*
X374983Y469073D01*
X374261Y468774D01*
X373641Y468298D01*
X373165Y467678D01*
X372866Y466956D01*
X372764Y466181D01*
Y465500D01*
X375258D01*
Y469109D01*
D02*
G37*
G36*
X396154Y467000D02*
X393488D01*
Y464532D01*
X396154D01*
Y467000D01*
D02*
G37*
G36*
X378752Y464500D02*
X376258D01*
Y460891D01*
X376533Y460927D01*
X377255Y461226D01*
X377875Y461702D01*
X378351Y462322D01*
X378650Y463044D01*
X378752Y463819D01*
Y464500D01*
D02*
G37*
G36*
X341242D02*
X338748D01*
Y463819D01*
X338850Y463044D01*
X339149Y462322D01*
X339625Y461702D01*
X340245Y461226D01*
X340967Y460927D01*
X341242Y460891D01*
Y464500D01*
D02*
G37*
G36*
X344736D02*
X342242D01*
Y460891D01*
X342517Y460927D01*
X343239Y461226D01*
X343859Y461702D01*
X344335Y462322D01*
X344634Y463044D01*
X344736Y463819D01*
Y464500D01*
D02*
G37*
G36*
X375258D02*
X372764D01*
Y463819D01*
X372866Y463044D01*
X373165Y462322D01*
X373641Y461702D01*
X374261Y461226D01*
X374983Y460927D01*
X375258Y460891D01*
Y464500D01*
D02*
G37*
G36*
X376258Y453755D02*
Y449161D01*
X378752D01*
Y450827D01*
X378650Y451602D01*
X378351Y452324D01*
X377875Y452944D01*
X377255Y453420D01*
X376533Y453719D01*
X376258Y453755D01*
D02*
G37*
G36*
X341242D02*
X340967Y453719D01*
X340245Y453420D01*
X339625Y452944D01*
X339149Y452324D01*
X338850Y451602D01*
X338748Y450827D01*
Y449161D01*
X341242D01*
Y453755D01*
D02*
G37*
G36*
X303945Y458555D02*
X291445D01*
Y446055D01*
X291968D01*
X293989Y446375D01*
X295935Y447008D01*
X297758Y447936D01*
X299414Y449139D01*
X300861Y450586D01*
X302063Y452242D01*
X302993Y454065D01*
X303625Y456011D01*
X303945Y458032D01*
Y458555D01*
D02*
G37*
G36*
X378752Y448162D02*
X376258D01*
Y443568D01*
X376533Y443604D01*
X377255Y443903D01*
X377875Y444379D01*
X378351Y444999D01*
X378650Y445721D01*
X378752Y446496D01*
Y448162D01*
D02*
G37*
G36*
X341242D02*
X338748D01*
Y446496D01*
X338850Y445721D01*
X339149Y444999D01*
X339625Y444379D01*
X340245Y443903D01*
X340967Y443604D01*
X341242Y443568D01*
Y448162D01*
D02*
G37*
G36*
X367969Y424904D02*
X365500D01*
Y422238D01*
X367969D01*
Y424904D01*
D02*
G37*
G36*
X329240Y163953D02*
Y160500D01*
X332299D01*
Y163953D01*
X329240D01*
D02*
G37*
G36*
X332299Y150750D02*
X329240D01*
Y147297D01*
X332299D01*
Y150750D01*
D02*
G37*
G36*
X355469Y424903D02*
X353000D01*
Y422238D01*
X355469D01*
Y424903D01*
D02*
G37*
G36*
X352000D02*
X349532D01*
Y422238D01*
X352000D01*
Y424903D01*
D02*
G37*
G36*
X580750Y418653D02*
X578281D01*
Y415988D01*
X580750D01*
Y418653D01*
D02*
G37*
G36*
X543250Y358654D02*
X540781D01*
Y355988D01*
X543250D01*
Y358654D01*
D02*
G37*
G36*
X557250Y341250D02*
X554250D01*
Y338750D01*
X557250D01*
Y341250D01*
D02*
G37*
G36*
X553250D02*
X550250D01*
Y338750D01*
X553250D01*
Y341250D01*
D02*
G37*
G36*
X414500Y191500D02*
X414473D01*
X413456Y191227D01*
X412544Y190701D01*
X411799Y189956D01*
X411273Y189044D01*
X411000Y188027D01*
Y188000D01*
X414500D01*
Y191500D01*
D02*
G37*
G36*
Y187000D02*
X411000D01*
Y186973D01*
X411273Y185956D01*
X411799Y185044D01*
X412544Y184299D01*
X413456Y183773D01*
X414473Y183500D01*
X414500D01*
Y187000D01*
D02*
G37*
G36*
X426414Y169008D02*
X420599D01*
Y162602D01*
X426414D01*
Y169008D01*
D02*
G37*
G36*
X402309Y174056D02*
X401441D01*
X400639Y173724D01*
X400026Y173110D01*
X399694Y172309D01*
Y171441D01*
X400026Y170640D01*
X400639Y170026D01*
X401228Y169782D01*
X405563Y165448D01*
Y162206D01*
X404335D01*
Y158812D01*
X400665D01*
Y162206D01*
X394335D01*
Y158812D01*
X390665D01*
Y162206D01*
X384335D01*
Y158812D01*
X380665D01*
Y162206D01*
X374335D01*
Y151544D01*
X380665D01*
Y154938D01*
X384335D01*
Y151544D01*
X390665D01*
Y154938D01*
X394335D01*
Y151544D01*
X400665D01*
Y154938D01*
X404335D01*
Y151544D01*
X410665D01*
Y162206D01*
X409437D01*
Y166250D01*
X409290Y166991D01*
X408870Y167620D01*
X403968Y172522D01*
X403724Y173110D01*
X403111Y173724D01*
X402309Y174056D01*
D02*
G37*
G36*
X433229Y161602D02*
X427414D01*
Y155197D01*
X433229D01*
Y161602D01*
D02*
G37*
G36*
X426414D02*
X420599D01*
Y155197D01*
X426414D01*
Y161602D01*
D02*
G37*
G36*
X320760Y115750D02*
X317701D01*
Y112297D01*
X320760D01*
Y115750D01*
D02*
G37*
G36*
X410468Y103029D02*
X408000D01*
Y100363D01*
X410468D01*
Y103029D01*
D02*
G37*
G36*
X407000D02*
X404531D01*
Y100363D01*
X407000D01*
Y103029D01*
D02*
G37*
G36*
X400468D02*
X398000D01*
Y100363D01*
X400468D01*
Y103029D01*
D02*
G37*
G36*
X397000D02*
X394531D01*
Y100363D01*
X397000D01*
Y103029D01*
D02*
G37*
G36*
X390469D02*
X388000D01*
Y100363D01*
X390469D01*
Y103029D01*
D02*
G37*
G36*
X387000D02*
X384531D01*
Y100363D01*
X387000D01*
Y103029D01*
D02*
G37*
G36*
X380469D02*
X378000D01*
Y100363D01*
X380469D01*
Y103029D01*
D02*
G37*
G36*
X377000D02*
X374532D01*
Y100363D01*
X377000D01*
Y103029D01*
D02*
G37*
G36*
X377703Y377010D02*
X374250D01*
Y373951D01*
X377703D01*
Y377010D01*
D02*
G37*
G36*
X373250D02*
X369797D01*
Y373951D01*
X373250D01*
Y377010D01*
D02*
G37*
G36*
X335203D02*
X331750D01*
Y373951D01*
X335203D01*
Y377010D01*
D02*
G37*
G36*
X330750D02*
X327297D01*
Y373951D01*
X330750D01*
Y377010D01*
D02*
G37*
G36*
X346413Y375557D02*
X343945D01*
Y370333D01*
X346413D01*
Y375557D01*
D02*
G37*
G36*
X342945D02*
X340476D01*
Y370333D01*
X342945D01*
Y375557D01*
D02*
G37*
G36*
X346413Y369333D02*
X343945D01*
Y364108D01*
X346413D01*
Y369333D01*
D02*
G37*
G36*
X342945D02*
X340476D01*
Y364108D01*
X342945D01*
Y369333D01*
D02*
G37*
G36*
X359996Y398392D02*
X345004D01*
Y395492D01*
X333917D01*
X333186Y395395D01*
X332505Y395113D01*
X331920Y394664D01*
X329253Y391997D01*
X328804Y391412D01*
X328522Y390731D01*
X328426Y390000D01*
Y388549D01*
X327297D01*
Y382069D01*
X327297Y381431D01*
X327297Y380431D01*
Y378010D01*
X331250D01*
X335203D01*
Y380431D01*
X335203Y381069D01*
X335203Y382069D01*
Y388549D01*
X335203D01*
X335081Y388846D01*
X335753Y389843D01*
X345004D01*
Y386943D01*
X349676D01*
Y375557D01*
X349532D01*
Y364108D01*
X350563D01*
Y289375D01*
X350710Y288634D01*
X351130Y288005D01*
X392595Y246541D01*
X392839Y245952D01*
X393452Y245339D01*
X394254Y245006D01*
X395121D01*
X395923Y245339D01*
X396536Y245952D01*
X396869Y246754D01*
Y247621D01*
X396536Y248423D01*
X395923Y249037D01*
X395334Y249280D01*
X354437Y290177D01*
Y364108D01*
X355469D01*
Y375557D01*
X355324D01*
Y386943D01*
X359996D01*
Y398392D01*
D02*
G37*
G36*
X346154Y246719D02*
X343488D01*
Y244250D01*
X346154D01*
Y246719D01*
D02*
G37*
G36*
Y243250D02*
X343488D01*
Y240781D01*
X346154D01*
Y243250D01*
D02*
G37*
G36*
X398847Y236719D02*
Y234250D01*
X401512D01*
Y236719D01*
X398847D01*
D02*
G37*
G36*
X401512Y233250D02*
X398847D01*
Y230782D01*
X401512D01*
Y233250D01*
D02*
G37*
G36*
Y218875D02*
X398847D01*
Y216406D01*
X401512D01*
Y218875D01*
D02*
G37*
G36*
X346154Y216719D02*
X343488D01*
Y214250D01*
X346154D01*
Y216719D01*
D02*
G37*
G36*
Y213250D02*
X343488D01*
Y210782D01*
X346154D01*
Y213250D01*
D02*
G37*
G36*
X347063Y227112D02*
X340339D01*
Y225687D01*
X339375D01*
X338634Y225540D01*
X338005Y225120D01*
X335505Y222620D01*
X335085Y221991D01*
X334938Y221250D01*
Y204552D01*
X333691Y203305D01*
X330921D01*
Y204337D01*
X325500D01*
Y201368D01*
Y198400D01*
X330921D01*
Y199431D01*
X334493D01*
X335234Y199578D01*
X335863Y199998D01*
X337277Y201413D01*
X341132D01*
Y198800D01*
X358932D01*
Y200039D01*
X359932Y200453D01*
X365505Y194880D01*
X366134Y194460D01*
X366875Y194313D01*
X368488D01*
Y193281D01*
X374181D01*
X374819Y193281D01*
X375651Y193281D01*
X376358Y192574D01*
Y191703D01*
X376510Y190942D01*
X376941Y190297D01*
X377937Y189301D01*
Y185388D01*
X384661D01*
Y192112D01*
X381579D01*
X381458Y192281D01*
X381512Y193281D01*
X381512D01*
Y199218D01*
X381512D01*
X381504Y200219D01*
X381594Y200345D01*
X382480D01*
X383331Y200514D01*
X384053Y200996D01*
X384535Y201718D01*
X384704Y202569D01*
Y204931D01*
X384535Y205782D01*
X384053Y206504D01*
X383331Y206986D01*
X382480Y207155D01*
X380118D01*
X379267Y206986D01*
X378546Y206504D01*
X378064Y205782D01*
X377894Y204931D01*
Y203157D01*
X376941Y202203D01*
X376510Y201558D01*
X376358Y200797D01*
Y199926D01*
X375651Y199218D01*
X375181D01*
X374181Y199218D01*
X368488D01*
Y198644D01*
X367488Y198376D01*
X366401Y199464D01*
X366783Y200388D01*
X372063D01*
Y207112D01*
X370389D01*
Y210349D01*
X370238Y211110D01*
X369807Y211755D01*
X369606Y211955D01*
Y213813D01*
X371079D01*
Y223687D01*
X364158D01*
Y220738D01*
X363125D01*
X362364Y220587D01*
X361719Y220156D01*
X357512Y215949D01*
X356512Y216246D01*
Y216719D01*
X350819D01*
X350181Y216719D01*
X349181Y216719D01*
X347154D01*
Y213750D01*
Y210782D01*
X349181D01*
X349819Y210782D01*
X350819Y210782D01*
X356512D01*
Y211762D01*
X358125D01*
X358886Y211913D01*
X359531Y212344D01*
X363158Y215971D01*
X364158Y215557D01*
Y213813D01*
X365630D01*
Y211132D01*
X365781Y210371D01*
X366212Y209726D01*
X366413Y209526D01*
Y207112D01*
X365339D01*
Y201833D01*
X364415Y201450D01*
X361370Y204495D01*
X360741Y204915D01*
X360000Y205062D01*
X358932D01*
Y207900D01*
X341132D01*
Y205287D01*
X338812D01*
Y220194D01*
X339366Y220627D01*
X340339Y220388D01*
Y220388D01*
X347063D01*
Y227112D01*
D02*
G37*
G36*
X312968Y192403D02*
X310500D01*
Y189738D01*
X312968D01*
Y192403D01*
D02*
G37*
G36*
X309500D02*
X307031D01*
Y189738D01*
X309500D01*
Y192403D01*
D02*
G37*
G36*
X369882Y192155D02*
X369201D01*
Y189250D01*
X372106D01*
Y189931D01*
X371936Y190782D01*
X371454Y191504D01*
X370733Y191986D01*
X369882Y192155D01*
D02*
G37*
G36*
X368201D02*
X367520D01*
X366669Y191986D01*
X365947Y191504D01*
X365465Y190782D01*
X365296Y189931D01*
Y189250D01*
X368201D01*
Y192155D01*
D02*
G37*
G36*
X372106Y188250D02*
X369201D01*
Y185345D01*
X369882D01*
X370733Y185514D01*
X371454Y185996D01*
X371936Y186718D01*
X372106Y187569D01*
Y188250D01*
D02*
G37*
G36*
X368201D02*
X365296D01*
Y187569D01*
X365465Y186718D01*
X365947Y185996D01*
X366669Y185514D01*
X367520Y185345D01*
X368201D01*
Y188250D01*
D02*
G37*
G36*
X320760Y179500D02*
X317701D01*
Y176047D01*
X320760D01*
Y179500D01*
D02*
G37*
G36*
X346154Y174218D02*
X343488D01*
Y171750D01*
X346154D01*
Y174218D01*
D02*
G37*
G36*
Y170750D02*
X343488D01*
Y168281D01*
X346154D01*
Y170750D01*
D02*
G37*
G36*
X346153Y166718D02*
X343488D01*
Y164250D01*
X346153D01*
Y166718D01*
D02*
G37*
G36*
Y163250D02*
X343488D01*
Y160782D01*
X346153D01*
Y163250D01*
D02*
G37*
G36*
X544883Y169008D02*
X539068D01*
Y162602D01*
X544883D01*
Y169008D01*
D02*
G37*
G36*
Y161602D02*
X539068D01*
Y155197D01*
X544883D01*
Y161602D01*
D02*
G37*
G36*
X538068D02*
X532253D01*
Y155197D01*
X538068D01*
Y161602D01*
D02*
G37*
G36*
X303953Y138549D02*
X300500D01*
Y135490D01*
X303953D01*
Y138549D01*
D02*
G37*
G36*
X299500D02*
X296047D01*
Y135490D01*
X299500D01*
Y138549D01*
D02*
G37*
G36*
X301154Y119843D02*
X298488D01*
Y117375D01*
X301154D01*
Y119843D01*
D02*
G37*
%LPD*%
D12*
X410450Y364354D02*
X411250Y365154D01*
X410420Y364354D02*
X409720Y363654D01*
Y362254D02*
X410420Y361554D01*
X411250Y360754D02*
X410450Y361554D01*
X513345Y363969D02*
X514145Y364769D01*
X513345Y363969D02*
X512645Y363269D01*
Y361869D02*
X513345Y361169D01*
X516241Y360469D02*
X515541Y361169D01*
Y358369D02*
X516241Y359069D01*
X511967Y358369D02*
X511267Y357669D01*
Y356269D02*
X511967Y355569D01*
X516551Y354869D02*
X515851Y355569D01*
Y352769D02*
X516551Y353469D01*
X511967Y352769D02*
X511267Y352069D01*
Y350669D02*
X511967Y349969D01*
X516551Y349269D02*
X515851Y349969D01*
Y347169D02*
X516551Y347869D01*
X511967Y347169D02*
X511267Y346469D01*
Y345069D02*
X511967Y344369D01*
X516551Y343669D02*
X515851Y344369D01*
Y341569D02*
X516551Y342269D01*
X511967Y341569D02*
X511267Y340869D01*
Y339469D02*
X511967Y338769D01*
X516881Y338069D02*
X516181Y338769D01*
Y335969D02*
X516881Y336669D01*
X511967Y335969D02*
X511267Y335269D01*
Y333869D02*
X511967Y333169D01*
X514145Y332369D02*
X513345Y333169D01*
X520997Y331400D02*
X520197Y330600D01*
X520997Y331400D02*
X521697Y332100D01*
Y333500D02*
X520997Y334200D01*
X518461Y334900D02*
X519161Y334200D01*
Y337000D02*
X518461Y336300D01*
X521536Y337000D02*
X522236Y337700D01*
Y339100D02*
X521536Y339800D01*
X518131Y340500D02*
X518831Y339800D01*
Y342600D02*
X518131Y341900D01*
X521536Y342600D02*
X522236Y343300D01*
Y344700D02*
X521536Y345400D01*
X518131Y346100D02*
X518831Y345400D01*
Y348200D02*
X518131Y347500D01*
X521536Y348200D02*
X522236Y348900D01*
Y350300D02*
X521536Y351000D01*
X518131Y351700D02*
X518831Y351000D01*
Y353800D02*
X518131Y353100D01*
X521536Y353800D02*
X522236Y354500D01*
Y355900D02*
X521536Y356600D01*
X518131Y357300D02*
X518831Y356600D01*
Y359400D02*
X518131Y358700D01*
X521536Y359400D02*
X522236Y360100D01*
Y361500D02*
X521536Y362200D01*
X518131Y362900D02*
X518831Y362200D01*
Y365000D02*
X518131Y364300D01*
X521536Y365000D02*
X522236Y365700D01*
Y367100D02*
X521536Y367800D01*
X520197Y368600D02*
X520997Y367800D01*
X507292Y274234D02*
X508092Y275034D01*
X507018Y274234D02*
X506318Y273534D01*
Y272134D02*
X507018Y271434D01*
X510902Y270734D02*
X510202Y271434D01*
Y268634D02*
X510902Y269334D01*
X506684Y268634D02*
X505984Y267934D01*
Y266534D02*
X506684Y265834D01*
X510902Y265134D02*
X510202Y265834D01*
Y263034D02*
X510902Y263734D01*
X506684Y263034D02*
X505984Y262334D01*
Y260934D02*
X506684Y260234D01*
X510902Y259534D02*
X510202Y260234D01*
Y257434D02*
X510902Y258134D01*
X506684Y257434D02*
X505984Y256734D01*
Y255334D02*
X506684Y254634D01*
X510902Y253934D02*
X510202Y254634D01*
Y251834D02*
X510902Y252534D01*
X506684Y251834D02*
X505984Y251134D01*
Y249734D02*
X506684Y249034D01*
X510902Y248334D02*
X510202Y249034D01*
Y246234D02*
X510902Y246934D01*
X506684Y246234D02*
X505984Y245534D01*
Y244134D02*
X506684Y243434D01*
X510902Y242734D02*
X510202Y243434D01*
Y240634D02*
X510902Y241334D01*
X506684Y240634D02*
X505984Y239934D01*
Y238534D02*
X506684Y237834D01*
X508092Y237034D02*
X507292Y237834D01*
X502039Y320000D02*
X502839Y319200D01*
X503548Y318500D02*
X502848Y319200D01*
Y316400D02*
X503548Y317100D01*
X499742Y316400D02*
X499042Y315700D01*
Y314300D02*
X499742Y313600D01*
X504404Y312900D02*
X503704Y313600D01*
Y310800D02*
X504404Y311500D01*
X499742Y310800D02*
X499042Y310100D01*
Y308700D02*
X499742Y308000D01*
X504404Y307300D02*
X503704Y308000D01*
Y305200D02*
X504404Y305900D01*
X499742Y305200D02*
X499042Y304500D01*
Y303100D02*
X499742Y302400D01*
X504404Y301700D02*
X503704Y302400D01*
Y299600D02*
X504404Y300300D01*
X499767Y299600D02*
X499067Y298900D01*
Y297500D02*
X499767Y296800D01*
X504404Y296100D02*
X503704Y296800D01*
Y294000D02*
X504404Y294700D01*
X501056Y294000D02*
X500356Y293300D01*
Y291900D02*
X501056Y291200D01*
X504404Y290500D02*
X503704Y291200D01*
Y288400D02*
X504404Y289100D01*
X502100Y288400D02*
X501400Y287700D01*
Y286300D02*
X502100Y285600D01*
X504404Y284900D02*
X503704Y285600D01*
Y282800D02*
X504404Y283500D01*
X502100Y282800D02*
X501400Y282100D01*
Y280700D02*
X502100Y280000D01*
X504404Y279300D02*
X503704Y280000D01*
Y277200D02*
X504404Y277900D01*
X502100Y277200D02*
X501400Y276500D01*
Y275100D02*
X502100Y274400D01*
X504404Y273700D02*
X503704Y274400D01*
Y271600D02*
X504404Y272300D01*
X502100Y271600D02*
X501400Y270900D01*
Y269500D02*
X502100Y268800D01*
X504404Y268100D02*
X503704Y268800D01*
Y266000D02*
X504404Y266700D01*
X502100Y266000D02*
X501400Y265300D01*
Y263900D02*
X502100Y263200D01*
X504404Y262500D02*
X503704Y263200D01*
Y260400D02*
X504404Y261100D01*
X502100Y260400D02*
X501400Y259700D01*
Y258300D02*
X502100Y257600D01*
X504404Y256900D02*
X503704Y257600D01*
Y254800D02*
X504404Y255500D01*
X502100Y254800D02*
X501400Y254100D01*
Y252700D02*
X502100Y252000D01*
X504404Y251300D02*
X503704Y252000D01*
Y249200D02*
X504404Y249900D01*
X502100Y249200D02*
X501400Y248500D01*
Y247100D02*
X502100Y246400D01*
X504404Y245700D02*
X503704Y246400D01*
Y243600D02*
X504404Y244300D01*
X502100Y243600D02*
X501400Y242900D01*
Y241500D02*
X502100Y240800D01*
X504404Y240100D02*
X503704Y240800D01*
Y238000D02*
X504404Y238700D01*
X502839Y238000D02*
X502039Y237200D01*
X495987Y298600D02*
X496787Y297800D01*
X497487Y297100D02*
X496787Y297800D01*
Y295000D02*
X497487Y295700D01*
X495987Y295000D02*
X495287Y294300D01*
Y292900D02*
X495987Y292200D01*
X498776Y291500D02*
X498076Y292200D01*
Y289400D02*
X498776Y290100D01*
X495629Y289400D02*
X494929Y288700D01*
Y287300D02*
X495629Y286600D01*
X499820Y285900D02*
X499120Y286600D01*
Y283800D02*
X499820Y284500D01*
X495629Y283800D02*
X494929Y283100D01*
Y281700D02*
X495629Y281000D01*
X499820Y280300D02*
X499120Y281000D01*
Y278200D02*
X499820Y278900D01*
X495629Y278200D02*
X494929Y277500D01*
Y276100D02*
X495629Y275400D01*
X499820Y274700D02*
X499120Y275400D01*
Y272600D02*
X499820Y273300D01*
X495629Y272600D02*
X494929Y271900D01*
Y270500D02*
X495629Y269800D01*
X499820Y269100D02*
X499120Y269800D01*
Y267000D02*
X499820Y267700D01*
X495629Y267000D02*
X494929Y266300D01*
Y264900D02*
X495629Y264200D01*
X499820Y263500D02*
X499120Y264200D01*
Y261400D02*
X499820Y262100D01*
X495629Y261400D02*
X494929Y260700D01*
Y259300D02*
X495629Y258600D01*
X499820Y257900D02*
X499120Y258600D01*
Y255800D02*
X499820Y256500D01*
X495629Y255800D02*
X494929Y255100D01*
Y253700D02*
X495629Y253000D01*
X499820Y252300D02*
X499120Y253000D01*
Y250200D02*
X499820Y250900D01*
X495629Y250200D02*
X494929Y249500D01*
Y248100D02*
X495629Y247400D01*
X499820Y246700D02*
X499120Y247400D01*
Y244600D02*
X499820Y245300D01*
X495629Y244600D02*
X494929Y243900D01*
Y242500D02*
X495629Y241800D01*
X499820Y241100D02*
X499120Y241800D01*
Y239000D02*
X499820Y239700D01*
X494840Y239000D02*
X494140Y238300D01*
Y236900D02*
X494840Y236200D01*
X495987Y235400D02*
X495187Y236200D01*
X489934Y300100D02*
X490734Y299300D01*
X491693Y298600D02*
X490993Y299300D01*
Y296500D02*
X491693Y297200D01*
X488899Y296500D02*
X488199Y295800D01*
Y294400D02*
X488899Y293700D01*
X493349Y293000D02*
X492649Y293700D01*
Y290900D02*
X493349Y291600D01*
X488899Y290900D02*
X488199Y290200D01*
Y288800D02*
X488899Y288100D01*
X493349Y287400D02*
X492649Y288100D01*
Y285300D02*
X493349Y286000D01*
X489370Y285300D02*
X488670Y284600D01*
Y283200D02*
X489370Y282500D01*
X493349Y281800D02*
X492649Y282500D01*
Y279700D02*
X493349Y280400D01*
X489370Y279700D02*
X488670Y279000D01*
Y277600D02*
X489370Y276900D01*
X493349Y276200D02*
X492649Y276900D01*
Y274100D02*
X493349Y274800D01*
X489370Y274100D02*
X488670Y273400D01*
Y272000D02*
X489370Y271300D01*
X493349Y270600D02*
X492649Y271300D01*
Y268500D02*
X493349Y269200D01*
X489370Y268500D02*
X488670Y267800D01*
Y266400D02*
X489370Y265700D01*
X493349Y265000D02*
X492649Y265700D01*
Y262900D02*
X493349Y263600D01*
X489370Y262900D02*
X488670Y262200D01*
Y260800D02*
X489370Y260100D01*
X493349Y259400D02*
X492649Y260100D01*
Y257300D02*
X493349Y258000D01*
X489370Y257300D02*
X488670Y256600D01*
Y255200D02*
X489370Y254500D01*
X493349Y253800D02*
X492649Y254500D01*
Y251700D02*
X493349Y252400D01*
X489370Y251700D02*
X488670Y251000D01*
Y249600D02*
X489370Y248900D01*
X493349Y248200D02*
X492649Y248900D01*
Y246100D02*
X493349Y246800D01*
X489370Y246100D02*
X488670Y245400D01*
Y244000D02*
X489370Y243300D01*
X493349Y242600D02*
X492649Y243300D01*
Y240500D02*
X493349Y241200D01*
X490734Y240500D02*
X489934Y239700D01*
X483882Y293500D02*
X484682Y292700D01*
X486612Y292000D02*
X485912Y292700D01*
Y289900D02*
X486612Y290600D01*
X483005Y289900D02*
X482305Y289200D01*
Y287800D02*
X483005Y287100D01*
X487090Y286400D02*
X486390Y287100D01*
Y284300D02*
X487090Y285000D01*
X483005Y284300D02*
X482305Y283600D01*
Y282200D02*
X483005Y281500D01*
X487090Y280800D02*
X486390Y281500D01*
Y278700D02*
X487090Y279400D01*
X483005Y278700D02*
X482305Y278000D01*
Y276600D02*
X483005Y275900D01*
X487090Y275200D02*
X486390Y275900D01*
Y273100D02*
X487090Y273800D01*
X483005Y273100D02*
X482305Y272400D01*
Y271000D02*
X483005Y270300D01*
X487090Y269600D02*
X486390Y270300D01*
Y267500D02*
X487090Y268200D01*
X483005Y267500D02*
X482305Y266800D01*
Y265400D02*
X483005Y264700D01*
X487090Y264000D02*
X486390Y264700D01*
Y261900D02*
X487090Y262600D01*
X483005Y261900D02*
X482305Y261200D01*
Y259800D02*
X483005Y259100D01*
X487090Y258400D02*
X486390Y259100D01*
Y256300D02*
X487090Y257000D01*
X483005Y256300D02*
X482305Y255600D01*
Y254200D02*
X483005Y253500D01*
X487090Y252800D02*
X486390Y253500D01*
Y250700D02*
X487090Y251400D01*
X483005Y250700D02*
X482305Y250000D01*
Y248600D02*
X483005Y247900D01*
X487090Y247200D02*
X486390Y247900D01*
Y245100D02*
X487090Y245800D01*
X483005Y245100D02*
X482305Y244400D01*
Y243000D02*
X483005Y242300D01*
X487090Y241600D02*
X486390Y242300D01*
Y239500D02*
X487090Y240200D01*
X482249Y239500D02*
X481550Y238800D01*
Y237400D02*
X482249Y236700D01*
X483882Y235900D02*
X483081Y236700D01*
X477829Y300100D02*
X478629Y299300D01*
X480117Y298600D02*
X479417Y299300D01*
Y296500D02*
X480117Y297200D01*
X476381Y296500D02*
X475681Y295800D01*
Y294400D02*
X476381Y293700D01*
X480725Y293000D02*
X480025Y293700D01*
Y290900D02*
X480725Y291600D01*
X476515Y290900D02*
X475815Y290200D01*
Y288800D02*
X476515Y288100D01*
X480725Y287400D02*
X480025Y288100D01*
Y285300D02*
X480725Y286000D01*
X477064Y285300D02*
X476364Y284600D01*
Y283200D02*
X477064Y282500D01*
X480725Y281800D02*
X480025Y282500D01*
Y279700D02*
X480725Y280400D01*
X477064Y279700D02*
X476364Y279000D01*
Y277600D02*
X477064Y276900D01*
X480725Y276200D02*
X480025Y276900D01*
Y274100D02*
X480725Y274800D01*
X477061Y274100D02*
X476361Y273400D01*
Y272000D02*
X477061Y271300D01*
X480725Y270600D02*
X480025Y271300D01*
Y268500D02*
X480725Y269200D01*
X477064Y268500D02*
X476364Y267800D01*
Y266400D02*
X477064Y265700D01*
X480725Y265000D02*
X480025Y265700D01*
Y262900D02*
X480725Y263600D01*
X477064Y262900D02*
X476364Y262200D01*
Y260800D02*
X477064Y260100D01*
X480725Y259400D02*
X480025Y260100D01*
Y257300D02*
X480725Y258000D01*
X477064Y257300D02*
X476364Y256600D01*
Y255200D02*
X477064Y254500D01*
X480725Y253800D02*
X480025Y254500D01*
Y251700D02*
X480725Y252400D01*
X477064Y251700D02*
X476364Y251000D01*
Y249600D02*
X477064Y248900D01*
X480725Y248200D02*
X480025Y248900D01*
Y246100D02*
X480725Y246800D01*
X477064Y246100D02*
X476364Y245400D01*
Y244000D02*
X477064Y243300D01*
X480725Y242600D02*
X480025Y243300D01*
Y240500D02*
X480725Y241200D01*
X476776Y240500D02*
X476076Y239800D01*
Y238400D02*
X476776Y237700D01*
X477829Y236900D02*
X477029Y237700D01*
X470976Y291400D02*
X471776Y292200D01*
X470976Y291400D02*
X470276Y290700D01*
Y289300D02*
X470976Y288600D01*
X474235Y287900D02*
X473535Y288600D01*
Y285800D02*
X474235Y286500D01*
X470327Y285800D02*
X469627Y285100D01*
Y283700D02*
X470327Y283000D01*
X474784Y282300D02*
X474084Y283000D01*
Y280200D02*
X474784Y280900D01*
X470734Y280200D02*
X470034Y279500D01*
Y278100D02*
X470734Y277400D01*
X474784Y276700D02*
X474084Y277400D01*
Y274600D02*
X474784Y275300D01*
X470734Y274600D02*
X470034Y273900D01*
Y272500D02*
X470734Y271800D01*
X474784Y271100D02*
X474084Y271800D01*
Y269000D02*
X474784Y269700D01*
X470734Y269000D02*
X470034Y268300D01*
Y266900D02*
X470734Y266200D01*
X474784Y265500D02*
X474084Y266200D01*
Y263400D02*
X474784Y264100D01*
X470733Y263400D02*
X470033Y262700D01*
Y261300D02*
X470733Y260600D01*
X474784Y259900D02*
X474084Y260600D01*
Y257800D02*
X474784Y258500D01*
X470734Y257800D02*
X470034Y257100D01*
Y255700D02*
X470734Y255000D01*
X474784Y254300D02*
X474084Y255000D01*
Y252200D02*
X474784Y252900D01*
X470734Y252200D02*
X470034Y251500D01*
Y250100D02*
X470734Y249400D01*
X474784Y248700D02*
X474084Y249400D01*
Y246600D02*
X474784Y247300D01*
X470734Y246600D02*
X470034Y245900D01*
Y244500D02*
X470734Y243800D01*
X474784Y243100D02*
X474084Y243800D01*
Y241000D02*
X474784Y241700D01*
X470734Y241000D02*
X470034Y240300D01*
Y238900D02*
X470734Y238200D01*
X471776Y237400D02*
X470976Y238200D01*
X465724Y288769D02*
X466524Y287969D01*
X467224Y287269D02*
X466524Y287969D01*
Y285169D02*
X467224Y285869D01*
X463756Y285169D02*
X463056Y284469D01*
Y283069D02*
X463756Y282369D01*
X468454Y281669D02*
X467754Y282369D01*
Y279569D02*
X468454Y280269D01*
X463440Y279569D02*
X462740Y278869D01*
Y277469D02*
X463440Y276769D01*
X468454Y276069D02*
X467754Y276769D01*
Y273969D02*
X468454Y274669D01*
X463886Y273969D02*
X463186Y273269D01*
Y271869D02*
X463886Y271169D01*
X468454Y270469D02*
X467754Y271169D01*
Y268369D02*
X468454Y269069D01*
X464547Y268369D02*
X463847Y267669D01*
Y266269D02*
X464547Y265569D01*
X468454Y264869D02*
X467754Y265569D01*
Y262769D02*
X468454Y263469D01*
X464547Y262769D02*
X463847Y262069D01*
Y260669D02*
X464547Y259969D01*
X468454Y259269D02*
X467754Y259969D01*
Y257169D02*
X468454Y257869D01*
X464547Y257169D02*
X463847Y256469D01*
Y255069D02*
X464547Y254369D01*
X468454Y253669D02*
X467754Y254369D01*
Y251569D02*
X468454Y252269D01*
X464546Y251569D02*
X463846Y250869D01*
Y249469D02*
X464546Y248769D01*
X468454Y248069D02*
X467754Y248769D01*
Y245969D02*
X468454Y246669D01*
X464546Y245969D02*
X463846Y245269D01*
Y243869D02*
X464546Y243169D01*
X468454Y242469D02*
X467754Y243169D01*
Y240369D02*
X468454Y241069D01*
X464155Y240369D02*
X463455Y239669D01*
Y238269D02*
X464155Y237569D01*
X465724Y236769D02*
X464924Y237569D01*
X459671Y272600D02*
X460471Y271800D01*
X461606Y271100D02*
X460906Y271800D01*
Y269000D02*
X461606Y269700D01*
X458288Y269000D02*
X457588Y268300D01*
Y266900D02*
X458288Y266200D01*
X462267Y265500D02*
X461567Y266200D01*
Y263400D02*
X462267Y264100D01*
X458288Y263400D02*
X457588Y262700D01*
Y261300D02*
X458288Y260600D01*
X462267Y259900D02*
X461567Y260600D01*
Y257800D02*
X462267Y258500D01*
X458288Y257800D02*
X457588Y257100D01*
Y255700D02*
X458288Y255000D01*
X462267Y254300D02*
X461567Y255000D01*
Y252200D02*
X462267Y252900D01*
X458288Y252200D02*
X457588Y251500D01*
Y250100D02*
X458288Y249400D01*
X462267Y248700D02*
X461567Y249400D01*
Y246600D02*
X462267Y247300D01*
X458288Y246600D02*
X457588Y245900D01*
Y244500D02*
X458288Y243800D01*
X462267Y243100D02*
X461567Y243800D01*
Y241000D02*
X462267Y241700D01*
X458288Y241000D02*
X457588Y240300D01*
Y238900D02*
X458288Y238200D01*
X459671Y237400D02*
X458871Y238200D01*
X452818Y272600D02*
X453618Y273400D01*
X451375Y272600D02*
X450675Y271900D01*
Y270500D02*
X451375Y269800D01*
X456008Y269100D02*
X455308Y269800D01*
Y267000D02*
X456008Y267700D01*
X451346Y267000D02*
X450646Y266300D01*
Y264900D02*
X451346Y264200D01*
X456008Y263500D02*
X455308Y264200D01*
Y261400D02*
X456008Y262100D01*
X453087Y261400D02*
X452387Y260700D01*
Y259300D02*
X453087Y258600D01*
X456008Y257900D02*
X455308Y258600D01*
Y255800D02*
X456008Y256500D01*
X453385Y255800D02*
X452685Y255100D01*
Y253700D02*
X453385Y253000D01*
X456008Y252300D02*
X455308Y253000D01*
Y250200D02*
X456008Y250900D01*
X453385Y250200D02*
X452685Y249500D01*
Y248100D02*
X453385Y247400D01*
X456008Y246700D02*
X455308Y247400D01*
Y244600D02*
X456008Y245300D01*
X453385Y244600D02*
X452685Y243900D01*
Y242500D02*
X453385Y241800D01*
X456008Y241100D02*
X455308Y241800D01*
Y239000D02*
X456008Y239700D01*
X454418Y239000D02*
X453618Y238200D01*
X447566Y259900D02*
X448366Y259100D01*
X450807Y258400D02*
X450107Y259100D01*
Y256300D02*
X450807Y257000D01*
X446754Y256300D02*
X446054Y255600D01*
Y254200D02*
X446754Y253500D01*
X451105Y252800D02*
X450405Y253500D01*
Y250700D02*
X451105Y251400D01*
X446754Y250700D02*
X446054Y250000D01*
Y248600D02*
X446754Y247900D01*
X451105Y247200D02*
X450405Y247900D01*
Y245100D02*
X451105Y245800D01*
X446754Y245100D02*
X446054Y244400D01*
Y243000D02*
X446754Y242300D01*
X451105Y241600D02*
X450405Y242300D01*
Y239500D02*
X451105Y240200D01*
X446711Y239500D02*
X446011Y238800D01*
Y237400D02*
X446711Y236700D01*
X447566Y235900D02*
X446766Y236700D01*
X441513Y259900D02*
X442313Y259100D01*
X443013Y258400D02*
X442313Y259100D01*
Y256300D02*
X443013Y257000D01*
X439591Y256300D02*
X438891Y255600D01*
Y254200D02*
X439591Y253500D01*
X444528Y252800D02*
X443828Y253500D01*
Y250700D02*
X444528Y251400D01*
X440740Y250700D02*
X440040Y250000D01*
Y248600D02*
X440740Y247900D01*
X444528Y247200D02*
X443828Y247900D01*
Y245100D02*
X444528Y245800D01*
X440740Y245100D02*
X440040Y244400D01*
Y243000D02*
X440740Y242300D01*
X444528Y241600D02*
X443828Y242300D01*
Y239500D02*
X444528Y240200D01*
X440684Y239500D02*
X439984Y238800D01*
Y237400D02*
X440684Y236700D01*
X441513Y235900D02*
X440713Y236700D01*
X435461Y254300D02*
X436261Y253500D01*
X436961Y252800D02*
X436261Y253500D01*
Y250700D02*
X436961Y251400D01*
X434072Y250700D02*
X433372Y250000D01*
Y248600D02*
X434072Y247900D01*
X438514Y247200D02*
X437814Y247900D01*
Y245100D02*
X438514Y245800D01*
X434431Y245100D02*
X433731Y244400D01*
Y243000D02*
X434431Y242300D01*
X438514Y241600D02*
X437814Y242300D01*
Y239500D02*
X438514Y240200D01*
X433673Y239500D02*
X432973Y238800D01*
Y237400D02*
X433673Y236700D01*
X435461Y235900D02*
X434660Y236700D01*
X429408Y253320D02*
X430208Y252520D01*
X431029Y251820D02*
X430329Y252520D01*
Y249720D02*
X431029Y250420D01*
X428405Y249720D02*
X427705Y249020D01*
Y247620D02*
X428405Y246920D01*
X432151Y246220D02*
X431451Y246920D01*
Y244120D02*
X432151Y244820D01*
X425990Y244120D02*
X425290Y243420D01*
Y242020D02*
X425990Y241320D01*
X429408Y240520D02*
X428608Y241320D01*
X423355Y255748D02*
X424155Y254948D01*
X424855Y254248D02*
X424155Y254948D01*
Y252148D02*
X424855Y252848D01*
X422871Y252148D02*
X422171Y251448D01*
Y250048D02*
X422871Y249348D01*
X426125Y248648D02*
X425425Y249348D01*
Y246548D02*
X426125Y247248D01*
X422452Y246548D02*
X421752Y245848D01*
Y244448D02*
X422452Y243748D01*
X423355Y242948D02*
X422555Y243748D01*
X417303Y250162D02*
X418103Y249362D01*
X418803Y248662D02*
X418103Y249362D01*
Y246562D02*
X418803Y247262D01*
X416175Y246562D02*
X415475Y245862D01*
Y244462D02*
X416175Y243762D01*
X417303Y242962D02*
X416503Y243762D01*
X527050Y336750D02*
X526250Y335950D01*
X527214Y336750D02*
X527914Y337450D01*
Y338850D02*
X527214Y339550D01*
X523780Y340250D02*
X524480Y339550D01*
Y342350D02*
X523780Y341650D01*
X527214Y342350D02*
X527914Y343050D01*
Y344450D02*
X527214Y345150D01*
X523780Y345850D02*
X524480Y345150D01*
Y347950D02*
X523780Y347250D01*
X527214Y347950D02*
X527914Y348650D01*
Y350050D02*
X527214Y350750D01*
X523780Y351450D02*
X524480Y350750D01*
Y353550D02*
X523780Y352850D01*
X527214Y353550D02*
X527914Y354250D01*
Y355650D02*
X527214Y356350D01*
X523780Y357050D02*
X524480Y356350D01*
Y359150D02*
X523780Y358450D01*
X527214Y359150D02*
X527914Y359850D01*
Y361250D02*
X527214Y361950D01*
X523780Y362650D02*
X524480Y361950D01*
Y364750D02*
X523780Y364050D01*
X527214Y364750D02*
X527914Y365450D01*
Y366850D02*
X527214Y367550D01*
X526250Y368350D02*
X527050Y367550D01*
X581250Y430000D02*
X584360Y433110D01*
Y445309D01*
X483882Y366500D02*
Y377632D01*
X477829Y365500D02*
Y377829D01*
X482500Y382500D02*
Y397579D01*
X487500Y381250D02*
Y397579D01*
X477829Y377829D02*
X482500Y382500D01*
X502500Y377500D02*
Y397579D01*
X495987Y369000D02*
Y377237D01*
X502039Y377039D02*
X502500Y377500D01*
X489934Y368000D02*
Y377434D01*
X497500Y378750D02*
Y397579D01*
X492500Y380000D02*
Y397579D01*
X483882Y377632D02*
X487500Y381250D01*
X502039Y368000D02*
Y377039D01*
X495987Y377237D02*
X497500Y378750D01*
X489934Y377434D02*
X492500Y380000D01*
X423355Y368750D02*
Y379316D01*
X447566Y365500D02*
Y370105D01*
X447500Y385171D02*
X465724Y366947D01*
X426250Y391421D02*
X447566Y370105D01*
X417303Y377730D02*
Y381618D01*
X426250Y391421D02*
Y413750D01*
X431250Y393921D02*
X459671Y365500D01*
X453618Y365000D02*
Y367803D01*
X428750Y392671D02*
Y411250D01*
X465724Y364500D02*
Y366947D01*
X423750Y390171D02*
Y416250D01*
X423750Y390171D02*
X441513Y372408D01*
X431250Y393921D02*
Y408750D01*
X416250Y386421D02*
Y423750D01*
X441513Y366000D02*
Y372408D01*
X429408Y368808D02*
Y377013D01*
X447500Y385171D02*
Y397579D01*
X435461Y368769D02*
Y374710D01*
X413750Y385171D02*
Y426250D01*
X421250Y388921D02*
Y418750D01*
X452500Y385171D02*
X471776Y365895D01*
X416250Y386421D02*
X423355Y379316D01*
X418750Y387671D02*
Y421250D01*
X471776Y365500D02*
Y365895D01*
X418750Y387671D02*
X429408Y377013D01*
X428750Y392671D02*
X453618Y367803D01*
X421250Y388921D02*
X435461Y374710D01*
X452500Y385171D02*
Y397579D01*
X413750Y385171D02*
X417303Y381618D01*
X411250Y238854D02*
X460104Y190000D01*
X411250Y238854D02*
X411250Y360354D01*
X460103Y169897D02*
X460104Y190000D01*
X560000Y110222D02*
Y115000D01*
X550000Y110222D02*
Y122217D01*
X540000Y110222D02*
Y129432D01*
X513253Y158964D02*
X550000Y122217D01*
X511284Y158148D02*
X540000Y129432D01*
X515221Y159779D02*
X560000Y115000D01*
X511284Y158148D02*
Y169897D01*
X513253Y158964D02*
Y169897D01*
X515221Y159779D02*
Y169897D01*
X601250Y425846D02*
Y431250D01*
X596171Y436329D02*
X601250Y431250D01*
X596171Y436329D02*
Y445309D01*
X581250Y425846D02*
Y430000D01*
X365000Y432096D02*
Y436250D01*
X363671Y437579D02*
Y445309D01*
Y437579D02*
X365000Y436250D01*
X352500Y432096D02*
Y436250D01*
X351860Y436890D02*
X352500Y436250D01*
X351860Y436890D02*
Y445309D01*
X435000Y402500D02*
X440551D01*
X435000Y407500D02*
X440551D01*
X402097Y401875D02*
X406875D01*
X402097Y408125D02*
X406875D01*
Y401875D02*
X407500Y402500D01*
X406875Y408125D02*
X407500Y407500D01*
X411250Y368750D02*
Y368750D01*
X411250Y368350D02*
X411250Y368750D01*
X411250Y365154D02*
Y368350D01*
X410420Y364354D02*
X410450D01*
X409720Y362254D02*
Y363654D01*
X410420Y361554D02*
X410450D01*
X411250Y360754D02*
Y360754D01*
Y360354D02*
Y360754D01*
X514145Y196645D02*
X514145Y331969D01*
X514145Y369500D02*
Y369500D01*
X514145Y369100D02*
X514145Y369500D01*
X514145Y364769D02*
X514145Y369100D01*
X513345Y363969D02*
X513345D01*
X512645Y361869D02*
Y363269D01*
X513345Y361169D02*
X515541D01*
X516241Y359069D02*
Y360469D01*
X511967Y358369D02*
X515541D01*
X511267Y356269D02*
Y357669D01*
X511967Y355569D02*
X515851D01*
X516551Y353469D02*
Y354869D01*
X511967Y352769D02*
X515851D01*
X511267Y350669D02*
Y352069D01*
X511967Y349969D02*
X515851D01*
X516551Y347869D02*
Y349269D01*
X511967Y347169D02*
X515851D01*
X511267Y345069D02*
Y346469D01*
X511967Y344369D02*
X515851D01*
X516551Y342269D02*
Y343669D01*
X511967Y341569D02*
X515851D01*
X511267Y339469D02*
Y340869D01*
X511967Y338769D02*
X516181D01*
X516881Y336669D02*
Y338069D01*
X511967Y335969D02*
X516181D01*
X511267Y333869D02*
Y335269D01*
X511967Y333169D02*
X513345D01*
X514145Y332369D02*
Y332369D01*
Y331969D02*
Y332369D01*
X520197Y237000D02*
Y237400D01*
X520197Y330600D01*
X520997Y331400D02*
X520997D01*
X521697Y332100D02*
Y333500D01*
X519161Y334200D02*
X520997D01*
X518461Y334900D02*
Y336300D01*
X519161Y337000D02*
X521536D01*
X522236Y337700D02*
Y339100D01*
X518831Y339800D02*
X521536D01*
X518131Y340500D02*
Y341900D01*
X518831Y342600D02*
X521536D01*
X522236Y343300D02*
Y344700D01*
X518831Y345400D02*
X521536D01*
X518131Y346100D02*
Y347500D01*
X518831Y348200D02*
X521536D01*
X522236Y348900D02*
Y350300D01*
X518831Y351000D02*
X521536D01*
X518131Y351700D02*
Y353100D01*
X518831Y353800D02*
X521536D01*
X522236Y354500D02*
Y355900D01*
X518831Y356600D02*
X521536D01*
X518131Y357300D02*
Y358700D01*
X518831Y359400D02*
X521536D01*
X522236Y360100D02*
Y361500D01*
X518831Y362200D02*
X521536D01*
X518131Y362900D02*
Y364300D01*
X518831Y365000D02*
X521536D01*
X522236Y365700D02*
Y367100D01*
X520997Y367800D02*
X521536D01*
X520197Y368600D02*
Y368600D01*
X520197Y369000D01*
Y369000D01*
X508092Y369000D02*
Y369000D01*
X508092Y368600D02*
X508092Y369000D01*
X508092Y275034D02*
X508092Y368600D01*
X507018Y274234D02*
X507292D01*
X506318Y272134D02*
Y273534D01*
X507018Y271434D02*
X510202D01*
X510902Y269334D02*
Y270734D01*
X506684Y268634D02*
X510202D01*
X505984Y266534D02*
Y267934D01*
X506684Y265834D02*
X510202D01*
X510902Y263734D02*
Y265134D01*
X506684Y263034D02*
X510202D01*
X505984Y260934D02*
Y262334D01*
X506684Y260234D02*
X510202D01*
X510902Y258134D02*
Y259534D01*
X506684Y257434D02*
X510202D01*
X505984Y255334D02*
Y256734D01*
X506684Y254634D02*
X510202D01*
X510902Y252534D02*
Y253934D01*
X506684Y251834D02*
X510202D01*
X505984Y249734D02*
Y251134D01*
X506684Y249034D02*
X510202D01*
X510902Y246934D02*
Y248334D01*
X506684Y246234D02*
X510202D01*
X505984Y244134D02*
Y245534D01*
X506684Y243434D02*
X510202D01*
X510902Y241334D02*
Y242734D01*
X506684Y240634D02*
X510202D01*
X505984Y238534D02*
Y239934D01*
X506684Y237834D02*
X507292D01*
X508092Y237034D02*
Y237034D01*
Y236634D02*
Y237034D01*
X502039Y368000D02*
Y368000D01*
X502039Y367600D02*
X502039Y368000D01*
X502039Y320000D02*
X502039Y367600D01*
X502839Y319200D02*
X502848D01*
X503548Y317100D02*
Y318500D01*
X499742Y316400D02*
X502848D01*
X499042Y314300D02*
Y315700D01*
X499742Y313600D02*
X503704D01*
X504404Y311500D02*
Y312900D01*
X499742Y310800D02*
X503704D01*
X499042Y308700D02*
Y310100D01*
X499742Y308000D02*
X503704D01*
X504404Y305900D02*
Y307300D01*
X499742Y305200D02*
X503704D01*
X499042Y303100D02*
Y304500D01*
X499742Y302400D02*
X503704D01*
X504404Y300300D02*
Y301700D01*
X499767Y299600D02*
X503704D01*
X499067Y297500D02*
Y298900D01*
X499767Y296800D02*
X503704D01*
X504404Y294700D02*
Y296100D01*
X501056Y294000D02*
X503704D01*
X500356Y291900D02*
Y293300D01*
X501056Y291200D02*
X503704D01*
X504404Y289100D02*
Y290500D01*
X502100Y288400D02*
X503704D01*
X501400Y286300D02*
Y287700D01*
X502100Y285600D02*
X503704D01*
X504404Y283500D02*
Y284900D01*
X502100Y282800D02*
X503704D01*
X501400Y280700D02*
Y282100D01*
X502100Y280000D02*
X503704D01*
X504404Y277900D02*
Y279300D01*
X502100Y277200D02*
X503704D01*
X501400Y275100D02*
Y276500D01*
X502100Y274400D02*
X503704D01*
X504404Y272300D02*
Y273700D01*
X502100Y271600D02*
X503704D01*
X501400Y269500D02*
Y270900D01*
X502100Y268800D02*
X503704D01*
X504404Y266700D02*
Y268100D01*
X502100Y266000D02*
X503704D01*
X501400Y263900D02*
Y265300D01*
X502100Y263200D02*
X503704D01*
X504404Y261100D02*
Y262500D01*
X502100Y260400D02*
X503704D01*
X501400Y258300D02*
Y259700D01*
X502100Y257600D02*
X503704D01*
X504404Y255500D02*
Y256900D01*
X502100Y254800D02*
X503704D01*
X501400Y252700D02*
Y254100D01*
X502100Y252000D02*
X503704D01*
X504404Y249900D02*
Y251300D01*
X502100Y249200D02*
X503704D01*
X501400Y247100D02*
Y248500D01*
X502100Y246400D02*
X503704D01*
X504404Y244300D02*
Y245700D01*
X502100Y243600D02*
X503704D01*
X501400Y241500D02*
Y242900D01*
X502100Y240800D02*
X503704D01*
X504404Y238700D02*
Y240100D01*
X502839Y238000D02*
X503704D01*
X502039Y234400D02*
Y237200D01*
Y234000D02*
Y234400D01*
X495987Y369000D02*
Y369000D01*
X495987Y368600D02*
X495987Y369000D01*
X495987Y298600D02*
X495987Y368600D01*
X496787Y297800D02*
X496787D01*
X497487Y295700D02*
Y297100D01*
X495987Y295000D02*
X496787D01*
X495287Y292900D02*
Y294300D01*
X495987Y292200D02*
X498076D01*
X498776Y290100D02*
Y291500D01*
X495629Y289400D02*
X498076D01*
X494929Y287300D02*
Y288700D01*
X495629Y286600D02*
X499120D01*
X499820Y284500D02*
Y285900D01*
X495629Y283800D02*
X499120D01*
X494929Y281700D02*
Y283100D01*
X495629Y281000D02*
X499120D01*
X499820Y278900D02*
Y280300D01*
X495629Y278200D02*
X499120D01*
X494929Y276100D02*
Y277500D01*
X495629Y275400D02*
X499120D01*
X499820Y273300D02*
Y274700D01*
X495629Y272600D02*
X499120D01*
X494929Y270500D02*
Y271900D01*
X495629Y269800D02*
X499120D01*
X499820Y267700D02*
Y269100D01*
X495629Y267000D02*
X499120D01*
X494929Y264900D02*
Y266300D01*
X495629Y264200D02*
X499120D01*
X499820Y262100D02*
Y263500D01*
X495629Y261400D02*
X499120D01*
X494929Y259300D02*
Y260700D01*
X495629Y258600D02*
X499120D01*
X499820Y256500D02*
Y257900D01*
X495629Y255800D02*
X499120D01*
X494929Y253700D02*
Y255100D01*
X495629Y253000D02*
X499120D01*
X499820Y250900D02*
Y252300D01*
X495629Y250200D02*
X499120D01*
X494929Y248100D02*
Y249500D01*
X495629Y247400D02*
X499120D01*
X499820Y245300D02*
Y246700D01*
X495629Y244600D02*
X499120D01*
X494929Y242500D02*
Y243900D01*
X495629Y241800D02*
X499120D01*
X499820Y239700D02*
Y241100D01*
X494840Y239000D02*
X499120D01*
X494140Y236900D02*
Y238300D01*
X494840Y236200D02*
X495187D01*
X495987Y235400D02*
Y235400D01*
Y235000D02*
Y235400D01*
X489934Y368000D02*
Y368000D01*
X489934Y367600D02*
X489934Y368000D01*
X489934Y300100D02*
X489934Y367600D01*
X490734Y299300D02*
X490993D01*
X491693Y297200D02*
Y298600D01*
X488899Y296500D02*
X490993D01*
X488199Y294400D02*
Y295800D01*
X488899Y293700D02*
X492649D01*
X493349Y291600D02*
Y293000D01*
X488899Y290900D02*
X492649D01*
X488199Y288800D02*
Y290200D01*
X488899Y288100D02*
X492649D01*
X493349Y286000D02*
Y287400D01*
X489370Y285300D02*
X492649D01*
X488670Y283200D02*
Y284600D01*
X489370Y282500D02*
X492649D01*
X493349Y280400D02*
Y281800D01*
X489370Y279700D02*
X492649D01*
X488670Y277600D02*
Y279000D01*
X489370Y276900D02*
X492649D01*
X493349Y274800D02*
Y276200D01*
X489370Y274100D02*
X492649D01*
X488670Y272000D02*
Y273400D01*
X489370Y271300D02*
X492649D01*
X493349Y269200D02*
Y270600D01*
X489370Y268500D02*
X492649D01*
X488670Y266400D02*
Y267800D01*
X489370Y265700D02*
X492649D01*
X493349Y263600D02*
Y265000D01*
X489370Y262900D02*
X492649D01*
X488670Y260800D02*
Y262200D01*
X489370Y260100D02*
X492649D01*
X493349Y258000D02*
Y259400D01*
X489370Y257300D02*
X492649D01*
X488670Y255200D02*
Y256600D01*
X489370Y254500D02*
X492649D01*
X493349Y252400D02*
Y253800D01*
X489370Y251700D02*
X492649D01*
X488670Y249600D02*
Y251000D01*
X489370Y248900D02*
X492649D01*
X493349Y246800D02*
Y248200D01*
X489370Y246100D02*
X492649D01*
X488670Y244000D02*
Y245400D01*
X489370Y243300D02*
X492649D01*
X493349Y241200D02*
Y242600D01*
X490734Y240500D02*
X492649D01*
X489934Y236900D02*
Y239700D01*
Y236500D02*
Y236900D01*
X483882Y366500D02*
Y366500D01*
X483882Y366100D02*
X483882Y366500D01*
X483882Y293500D02*
X483882Y366100D01*
X484682Y292700D02*
X485912D01*
X486612Y290600D02*
Y292000D01*
X483005Y289900D02*
X485912D01*
X482305Y287800D02*
Y289200D01*
X483005Y287100D02*
X486390D01*
X487090Y285000D02*
Y286400D01*
X483005Y284300D02*
X486390D01*
X482305Y282200D02*
Y283600D01*
X483005Y281500D02*
X486390D01*
X487090Y279400D02*
Y280800D01*
X483005Y278700D02*
X486390D01*
X482305Y276600D02*
Y278000D01*
X483005Y275900D02*
X486390D01*
X487090Y273800D02*
Y275200D01*
X483005Y273100D02*
X486390D01*
X482305Y271000D02*
Y272400D01*
X483005Y270300D02*
X486390D01*
X487090Y268200D02*
Y269600D01*
X483005Y267500D02*
X486390D01*
X482305Y265400D02*
Y266800D01*
X483005Y264700D02*
X486390D01*
X487090Y262600D02*
Y264000D01*
X483005Y261900D02*
X486390D01*
X482305Y259800D02*
Y261200D01*
X483005Y259100D02*
X486390D01*
X487090Y257000D02*
Y258400D01*
X483005Y256300D02*
X486390D01*
X482305Y254200D02*
Y255600D01*
X483005Y253500D02*
X486390D01*
X487090Y251400D02*
Y252800D01*
X483005Y250700D02*
X486390D01*
X482305Y248600D02*
Y250000D01*
X483005Y247900D02*
X486390D01*
X487090Y245800D02*
Y247200D01*
X483005Y245100D02*
X486390D01*
X482305Y243000D02*
Y244400D01*
X483005Y242300D02*
X486390D01*
X487090Y240200D02*
Y241600D01*
X482249Y239500D02*
X486390D01*
X481550Y237400D02*
Y238800D01*
X482249Y236700D02*
X483081D01*
X483882Y235900D02*
Y235900D01*
Y235500D02*
Y235900D01*
X477829Y365500D02*
Y365500D01*
X477829Y365100D02*
X477829Y365500D01*
X477829Y300100D02*
X477829Y365100D01*
X478629Y299300D02*
X479417D01*
X480117Y297200D02*
Y298600D01*
X476381Y296500D02*
X479417D01*
X475681Y294400D02*
Y295800D01*
X476381Y293700D02*
X480025D01*
X480725Y291600D02*
Y293000D01*
X476515Y290900D02*
X480025D01*
X475815Y288800D02*
Y290200D01*
X476515Y288100D02*
X480025D01*
X480725Y286000D02*
Y287400D01*
X477064Y285300D02*
X480025D01*
X476364Y283200D02*
Y284600D01*
X477064Y282500D02*
X480025D01*
X480725Y280400D02*
Y281800D01*
X477064Y279700D02*
X480025D01*
X476364Y277600D02*
Y279000D01*
X477064Y276900D02*
X480025D01*
X480725Y274800D02*
Y276200D01*
X477061Y274100D02*
X480025D01*
X476361Y272000D02*
Y273400D01*
X477061Y271300D02*
X480025D01*
X480725Y269200D02*
Y270600D01*
X477064Y268500D02*
X480025D01*
X476364Y266400D02*
Y267800D01*
X477064Y265700D02*
X480025D01*
X480725Y263600D02*
Y265000D01*
X477064Y262900D02*
X480025D01*
X476364Y260800D02*
Y262200D01*
X477064Y260100D02*
X480025D01*
X480725Y258000D02*
Y259400D01*
X477064Y257300D02*
X480025D01*
X476364Y255200D02*
Y256600D01*
X477064Y254500D02*
X480025D01*
X480725Y252400D02*
Y253800D01*
X477064Y251700D02*
X480025D01*
X476364Y249600D02*
Y251000D01*
X477064Y248900D02*
X480025D01*
X480725Y246800D02*
Y248200D01*
X477064Y246100D02*
X480025D01*
X476364Y244000D02*
Y245400D01*
X477064Y243300D02*
X480025D01*
X480725Y241200D02*
Y242600D01*
X476776Y240500D02*
X480025D01*
X476076Y238400D02*
Y239800D01*
X476776Y237700D02*
X477029D01*
X477829Y236900D02*
Y236900D01*
Y236500D02*
Y236900D01*
X471776Y365500D02*
Y365500D01*
X471776Y365100D02*
X471776Y365500D01*
X471776Y292200D02*
X471776Y365100D01*
X470976Y291400D02*
X470976D01*
X470276Y289300D02*
Y290700D01*
X470976Y288600D02*
X473535D01*
X474235Y286500D02*
Y287900D01*
X470327Y285800D02*
X473535D01*
X469627Y283700D02*
Y285100D01*
X470327Y283000D02*
X474084D01*
X474784Y280900D02*
Y282300D01*
X470734Y280200D02*
X474084D01*
X470034Y278100D02*
Y279500D01*
X470734Y277400D02*
X474084D01*
X474784Y275300D02*
Y276700D01*
X470734Y274600D02*
X474084D01*
X470034Y272500D02*
Y273900D01*
X470734Y271800D02*
X474084D01*
X474784Y269700D02*
Y271100D01*
X470734Y269000D02*
X474084D01*
X470034Y266900D02*
Y268300D01*
X470734Y266200D02*
X474084D01*
X474784Y264100D02*
Y265500D01*
X470733Y263400D02*
X474084D01*
X470033Y261300D02*
Y262700D01*
X470733Y260600D02*
X474084D01*
X474784Y258500D02*
Y259900D01*
X470734Y257800D02*
X474084D01*
X470034Y255700D02*
Y257100D01*
X470734Y255000D02*
X474084D01*
X474784Y252900D02*
Y254300D01*
X470734Y252200D02*
X474084D01*
X470034Y250100D02*
Y251500D01*
X470734Y249400D02*
X474084D01*
X474784Y247300D02*
Y248700D01*
X470734Y246600D02*
X474084D01*
X470034Y244500D02*
Y245900D01*
X470734Y243800D02*
X474084D01*
X474784Y241700D02*
Y243100D01*
X470734Y241000D02*
X474084D01*
X470034Y238900D02*
Y240300D01*
X470734Y238200D02*
X470976D01*
X471776Y237400D02*
Y237400D01*
Y237000D02*
Y237400D01*
X465724Y364500D02*
Y364500D01*
X465724Y364100D02*
X465724Y364500D01*
X465724Y288769D02*
X465724Y364100D01*
X466524Y287969D02*
X466524D01*
X467224Y285869D02*
Y287269D01*
X463756Y285169D02*
X466524D01*
X463056Y283069D02*
Y284469D01*
X463756Y282369D02*
X467754D01*
X468454Y280269D02*
Y281669D01*
X463440Y279569D02*
X467754D01*
X462740Y277469D02*
Y278869D01*
X463440Y276769D02*
X467754D01*
X468454Y274669D02*
Y276069D01*
X463886Y273969D02*
X467754D01*
X463186Y271869D02*
Y273269D01*
X463886Y271169D02*
X467754D01*
X468454Y269069D02*
Y270469D01*
X464547Y268369D02*
X467754D01*
X463847Y266269D02*
Y267669D01*
X464547Y265569D02*
X467754D01*
X468454Y263469D02*
Y264869D01*
X464547Y262769D02*
X467754D01*
X463847Y260669D02*
Y262069D01*
X464547Y259969D02*
X467754D01*
X468454Y257869D02*
Y259269D01*
X464547Y257169D02*
X467754D01*
X463847Y255069D02*
Y256469D01*
X464547Y254369D02*
X467754D01*
X468454Y252269D02*
Y253669D01*
X464546Y251569D02*
X467754D01*
X463846Y249469D02*
Y250869D01*
X464546Y248769D02*
X467754D01*
X468454Y246669D02*
Y248069D01*
X464546Y245969D02*
X467754D01*
X463846Y243869D02*
Y245269D01*
X464546Y243169D02*
X467754D01*
X468454Y241069D02*
Y242469D01*
X464155Y240369D02*
X467754D01*
X463455Y238269D02*
Y239669D01*
X464155Y237569D02*
X464924D01*
X465724Y236769D02*
Y236769D01*
Y236369D02*
Y236769D01*
X459671Y365500D02*
Y365500D01*
X459671Y365100D02*
X459671Y365500D01*
X459671Y272600D02*
X459671Y365100D01*
X460471Y271800D02*
X460906D01*
X461606Y269700D02*
Y271100D01*
X458288Y269000D02*
X460906D01*
X457588Y266900D02*
Y268300D01*
X458288Y266200D02*
X461567D01*
X462267Y264100D02*
Y265500D01*
X458288Y263400D02*
X461567D01*
X457588Y261300D02*
Y262700D01*
X458288Y260600D02*
X461567D01*
X462267Y258500D02*
Y259900D01*
X458288Y257800D02*
X461567D01*
X457588Y255700D02*
Y257100D01*
X458288Y255000D02*
X461567D01*
X462267Y252900D02*
Y254300D01*
X458288Y252200D02*
X461567D01*
X457588Y250100D02*
Y251500D01*
X458288Y249400D02*
X461567D01*
X462267Y247300D02*
Y248700D01*
X458288Y246600D02*
X461567D01*
X457588Y244500D02*
Y245900D01*
X458288Y243800D02*
X461567D01*
X462267Y241700D02*
Y243100D01*
X458288Y241000D02*
X461567D01*
X457588Y238900D02*
Y240300D01*
X458288Y238200D02*
X458871D01*
X459671Y237400D02*
Y237400D01*
Y237000D02*
Y237400D01*
X453618Y365000D02*
Y365000D01*
X453618Y364600D02*
X453618Y365000D01*
X453618Y273400D02*
X453618Y364600D01*
X451375Y272600D02*
X452818D01*
X450675Y270500D02*
Y271900D01*
X451375Y269800D02*
X455308D01*
X456008Y267700D02*
Y269100D01*
X451346Y267000D02*
X455308D01*
X450646Y264900D02*
Y266300D01*
X451346Y264200D02*
X455308D01*
X456008Y262100D02*
Y263500D01*
X453087Y261400D02*
X455308D01*
X452387Y259300D02*
Y260700D01*
X453087Y258600D02*
X455308D01*
X456008Y256500D02*
Y257900D01*
X453385Y255800D02*
X455308D01*
X452685Y253700D02*
Y255100D01*
X453385Y253000D02*
X455308D01*
X456008Y250900D02*
Y252300D01*
X453385Y250200D02*
X455308D01*
X452685Y248100D02*
Y249500D01*
X453385Y247400D02*
X455308D01*
X456008Y245300D02*
Y246700D01*
X453385Y244600D02*
X455308D01*
X452685Y242500D02*
Y243900D01*
X453385Y241800D02*
X455308D01*
X456008Y239700D02*
Y241100D01*
X454418Y239000D02*
X455308D01*
X453618Y235400D02*
Y238200D01*
Y235000D02*
Y235400D01*
X447566Y365500D02*
Y365500D01*
X447566Y365100D02*
X447566Y365500D01*
X447566Y259900D02*
X447566Y365100D01*
X448366Y259100D02*
X450107D01*
X450807Y257000D02*
Y258400D01*
X446754Y256300D02*
X450107D01*
X446054Y254200D02*
Y255600D01*
X446754Y253500D02*
X450405D01*
X451105Y251400D02*
Y252800D01*
X446754Y250700D02*
X450405D01*
X446054Y248600D02*
Y250000D01*
X446754Y247900D02*
X450405D01*
X451105Y245800D02*
Y247200D01*
X446754Y245100D02*
X450405D01*
X446054Y243000D02*
Y244400D01*
X446754Y242300D02*
X450405D01*
X451105Y240200D02*
Y241600D01*
X446711Y239500D02*
X450405D01*
X446011Y237400D02*
Y238800D01*
X446711Y236700D02*
X446766D01*
X447566Y235900D02*
Y235900D01*
Y235500D02*
Y235900D01*
X441513Y366000D02*
Y366000D01*
X441513Y365600D02*
X441513Y366000D01*
X441513Y259900D02*
X441513Y365600D01*
X442313Y259100D02*
X442313D01*
X443013Y257000D02*
Y258400D01*
X439591Y256300D02*
X442313D01*
X438891Y254200D02*
Y255600D01*
X439591Y253500D02*
X443828D01*
X444528Y251400D02*
Y252800D01*
X440740Y250700D02*
X443828D01*
X440040Y248600D02*
Y250000D01*
X440740Y247900D02*
X443828D01*
X444528Y245800D02*
Y247200D01*
X440740Y245100D02*
X443828D01*
X440040Y243000D02*
Y244400D01*
X440740Y242300D02*
X443828D01*
X444528Y240200D02*
Y241600D01*
X440684Y239500D02*
X443828D01*
X439984Y237400D02*
Y238800D01*
X440684Y236700D02*
X440713D01*
X441513Y235900D02*
Y235900D01*
Y235500D02*
Y235900D01*
X435461Y368769D02*
Y368769D01*
X435461Y368369D02*
X435461Y368769D01*
X435461Y254300D02*
X435461Y368369D01*
X436261Y253500D02*
X436261D01*
X436961Y251400D02*
Y252800D01*
X434072Y250700D02*
X436261D01*
X433372Y248600D02*
Y250000D01*
X434072Y247900D02*
X437814D01*
X438514Y245800D02*
Y247200D01*
X434431Y245100D02*
X437814D01*
X433731Y243000D02*
Y244400D01*
X434431Y242300D02*
X437814D01*
X438514Y240200D02*
Y241600D01*
X433673Y239500D02*
X437814D01*
X432973Y237400D02*
Y238800D01*
X433673Y236700D02*
X434660D01*
X435461Y235900D02*
Y235900D01*
Y235500D02*
Y235900D01*
X429408Y368500D02*
Y368808D01*
X429408Y368408D02*
X429408Y368500D01*
X429408Y253320D02*
X429408Y368408D01*
X430208Y252520D02*
X430329D01*
X431029Y250420D02*
Y251820D01*
X428405Y249720D02*
X430329D01*
X427705Y247620D02*
Y249020D01*
X428405Y246920D02*
X431451D01*
X432151Y244820D02*
Y246220D01*
X425990Y244120D02*
X431451D01*
X425290Y242020D02*
Y243420D01*
X425990Y241320D02*
X428608D01*
X429408Y240520D02*
Y240520D01*
Y240120D02*
Y240520D01*
Y231842D02*
Y240120D01*
X423355Y368750D02*
Y368750D01*
X423355Y368350D02*
X423355Y368750D01*
X423355Y255748D02*
X423355Y368350D01*
X424155Y254948D02*
X424155D01*
X424855Y252848D02*
Y254248D01*
X422871Y252148D02*
X424155D01*
X422171Y250048D02*
Y251448D01*
X422871Y249348D02*
X425425D01*
X426125Y247248D02*
Y248648D01*
X422452Y246548D02*
X425425D01*
X421752Y244448D02*
Y245848D01*
X422452Y243748D02*
X422555D01*
X423355Y242548D02*
Y242948D01*
Y234145D02*
Y242548D01*
X417303Y368750D02*
Y368750D01*
Y250162D02*
Y368750D01*
X418103Y249362D02*
X418103D01*
X418803Y247262D02*
Y248662D01*
X416175Y246562D02*
X418103D01*
X415475Y244462D02*
Y245862D01*
X416175Y243762D02*
X416503D01*
X417303Y242562D02*
Y242962D01*
Y236447D02*
Y242562D01*
X520197Y198947D02*
X520197Y237000D01*
X520197Y369000D02*
X520197Y391447D01*
X514145Y369500D02*
X514145Y390395D01*
X508092Y369000D02*
X508092Y389342D01*
X508092Y194342D02*
X508092Y236634D01*
X502039Y204211D02*
X502039Y234000D01*
X495987Y206513D02*
Y235000D01*
X489934Y208816D02*
Y236500D01*
X483882Y211119D02*
Y235500D01*
X477829Y213421D02*
Y236500D01*
X471776Y215724D02*
Y237000D01*
X465724Y218026D02*
Y236369D01*
X459671Y220329D02*
Y237000D01*
X453618Y222632D02*
Y235000D01*
X447566Y224934D02*
Y235500D01*
X441513Y227237D02*
Y235500D01*
X435461Y229539D02*
Y235500D01*
X526250Y243500D02*
Y243900D01*
X526250Y335950D01*
X527050Y336750D02*
X527214D01*
X527914Y337450D02*
Y338850D01*
X524480Y339550D02*
X527214D01*
X523780Y340250D02*
Y341650D01*
X524480Y342350D02*
X527214D01*
X527914Y343050D02*
Y344450D01*
X524480Y345150D02*
X527214D01*
X523780Y345850D02*
Y347250D01*
X524480Y347950D02*
X527214D01*
X527914Y348650D02*
Y350050D01*
X524480Y350750D02*
X527214D01*
X523780Y351450D02*
Y352850D01*
X524480Y353550D02*
X527214D01*
X527914Y354250D02*
Y355650D01*
X524480Y356350D02*
X527214D01*
X523780Y357050D02*
Y358450D01*
X524480Y359150D02*
X527214D01*
X527914Y359850D02*
Y361250D01*
X524480Y361950D02*
X527214D01*
X523780Y362650D02*
Y364050D01*
X524480Y364750D02*
X527214D01*
X527914Y365450D02*
Y366850D01*
X527050Y367550D02*
X527214D01*
X526250Y368350D02*
Y368350D01*
X526250Y368750D01*
Y368750D01*
X411250Y368750D02*
X411250Y428750D01*
X526250Y201028D02*
X526250Y243500D01*
X526250Y368750D02*
X526250Y376250D01*
X417303Y368750D02*
X417303Y377730D01*
X502039Y204211D02*
X503618Y202632D01*
Y178576D02*
Y202632D01*
X500717Y179242D02*
Y201783D01*
X495987Y206513D02*
X500717Y201783D01*
X489934Y208816D02*
X497816Y200934D01*
Y179909D02*
Y200934D01*
X483882Y211119D02*
X494915Y200085D01*
Y180085D02*
Y200085D01*
X492014Y177622D02*
Y199236D01*
X477829Y213421D02*
X492014Y199236D01*
X489113Y178288D02*
Y198387D01*
X471776Y215724D02*
X489113Y198387D01*
X486212Y178955D02*
Y197538D01*
X465724Y218026D02*
X486212Y197538D01*
X483312Y179621D02*
Y196688D01*
X459671Y220329D02*
X483312Y196688D01*
X480410Y180288D02*
Y195839D01*
X453618Y222632D02*
X480410Y195839D01*
X447566Y224934D02*
X477510Y194990D01*
Y179990D02*
Y194990D01*
X474609Y180657D02*
Y194141D01*
X441513Y227237D02*
X474609Y194141D01*
X435461Y229539D02*
X471708Y193292D01*
Y181323D02*
Y193292D01*
X429408Y231842D02*
X468807Y192443D01*
Y181990D02*
Y192443D01*
X465906Y181594D02*
Y191594D01*
X423355Y234145D02*
X465906Y191594D01*
X417303Y236447D02*
X463005Y190745D01*
Y180745D02*
Y190745D01*
X506519Y192769D02*
X508092Y194342D01*
X506519Y178481D02*
Y192769D01*
X509420Y178080D02*
Y191920D01*
X514145Y196645D01*
X512321Y177679D02*
Y191071D01*
X520197Y198947D01*
X515222Y190000D02*
X526250Y201028D01*
X523750Y395000D02*
Y423750D01*
X520197Y391447D02*
X523750Y395000D01*
X521250Y397500D02*
Y421250D01*
X514145Y390395D02*
X521250Y397500D01*
X518750Y400000D02*
Y418750D01*
X508092Y389342D02*
X518750Y400000D01*
X515000Y437500D02*
X526250Y426250D01*
Y376250D02*
Y426250D01*
X526250Y376250D02*
X526250Y376250D01*
X509449Y437500D02*
X515000D01*
X509449Y432500D02*
X515000D01*
X523750Y423750D01*
X515000Y427500D02*
X521250Y421250D01*
X509449Y427500D02*
X515000D01*
Y422500D02*
X518750Y418750D01*
X509449Y422500D02*
X515000D01*
X411250Y428750D02*
X435000Y452500D01*
X413750Y426250D02*
X435000Y447500D01*
X416250Y423750D02*
X435000Y442500D01*
X418750Y421250D02*
X435000Y437500D01*
Y452500D02*
X440551D01*
X435000Y447500D02*
X440551D01*
X435000Y442500D02*
X440551D01*
X435000Y437500D02*
X440551D01*
X435000Y432500D02*
X440551D01*
X421250Y418750D02*
X435000Y432500D01*
X423750Y416250D02*
X435000Y427500D01*
X440551D01*
X428750Y411250D02*
X435000Y417500D01*
X440551D01*
X426250Y413750D02*
X435000Y422500D01*
X440551D01*
X431250Y408750D02*
X435000Y412500D01*
X500717Y179242D02*
X505379Y174581D01*
X497816Y179909D02*
X503410Y174315D01*
X501442Y169897D02*
Y173558D01*
X503410Y169897D02*
Y174315D01*
X505379Y169897D02*
Y174581D01*
X494915Y180085D02*
X501442Y173558D01*
X503618Y178576D02*
X507347Y174847D01*
Y169897D02*
Y174847D01*
X506519Y178481D02*
X509316Y175684D01*
Y169897D02*
Y175684D01*
X471914Y169897D02*
Y175586D01*
X465906Y181594D02*
X471914Y175586D01*
X483750Y169922D02*
Y173750D01*
X471708Y181323D02*
X475851Y177180D01*
X477510Y179990D02*
X483750Y173750D01*
X477820Y169897D02*
Y177446D01*
X474609Y180657D02*
X477820Y177446D01*
X475851Y169897D02*
Y177180D01*
X468807Y181990D02*
X473883Y176914D01*
Y169897D02*
Y176914D01*
X469946Y169897D02*
Y173804D01*
X463005Y180745D02*
X469946Y173804D01*
X489631Y169897D02*
Y175536D01*
X487662Y169897D02*
Y175271D01*
X491599Y169897D02*
Y175803D01*
X486212Y178955D02*
X489631Y175536D01*
X485694Y169897D02*
Y175004D01*
X483312Y179621D02*
X487662Y175271D01*
X480410Y180288D02*
X485694Y175004D01*
X489113Y178288D02*
X491599Y175803D01*
X483725Y169897D02*
X483750Y169922D01*
X492014Y177622D02*
X493568Y176068D01*
Y169897D02*
Y176068D01*
X509420Y178080D02*
X511284Y176216D01*
Y169897D02*
Y176216D01*
X512321Y177679D02*
X513253Y176747D01*
Y169897D02*
Y176747D01*
X515221Y169897D02*
X515222Y190000D01*
X435000Y412500D02*
X440551D01*
D16*
X581250Y311875D02*
Y316653D01*
X606875Y305000D02*
Y367104D01*
Y304963D02*
Y305000D01*
X603125Y295000D02*
Y366875D01*
X602942Y371037D02*
X606875Y367104D01*
X600973Y369027D02*
X603125Y366875D01*
X600973Y369027D02*
Y398049D01*
X602942Y371037D02*
Y398049D01*
X610625Y291250D02*
X621875Y280000D01*
X610625Y291250D02*
Y367064D01*
X604910Y372778D02*
Y398049D01*
Y372778D02*
X610625Y367064D01*
X621875Y280000D02*
X632500D01*
X558125Y437500D02*
Y442278D01*
X558347Y442500D01*
X601250Y419153D02*
X601472Y419375D01*
X606250D01*
X597500Y409375D02*
X597761Y409114D01*
X594499Y407376D02*
X600883Y400992D01*
X597761Y407864D02*
Y409114D01*
X594238Y408560D02*
X594499Y408299D01*
Y407376D02*
Y408299D01*
X597761Y407864D02*
X602942Y402683D01*
Y398049D02*
Y402683D01*
X600883Y398140D02*
X600973Y398049D01*
X600883Y398140D02*
Y400992D01*
X601875Y408125D02*
X604910Y405090D01*
Y398049D02*
Y405090D01*
X313469Y180000D02*
X321260D01*
X325000Y201368D02*
Y206147D01*
X443494Y177500D02*
X445168Y175825D01*
X445175D02*
X446324Y174676D01*
X443125Y177500D02*
X443494D01*
X445168Y175825D02*
X445175D01*
X446324Y169897D02*
Y174676D01*
X521127Y169897D02*
Y179508D01*
X522500Y180881D02*
Y181250D01*
X521127Y179508D02*
X522500Y180881D01*
X377500Y98750D02*
Y103528D01*
X387500Y98750D02*
Y103528D01*
X397500Y98750D02*
Y103528D01*
X407500Y98750D02*
Y103528D01*
X310000Y187269D02*
Y192903D01*
X557579Y370571D02*
Y375349D01*
X553750Y338250D02*
Y343029D01*
X543750Y311875D02*
Y316653D01*
X363922Y188750D02*
X368701D01*
X365000Y420625D02*
Y425403D01*
X352500Y420625D02*
Y425403D01*
X630847Y442500D02*
X635625D01*
X581250Y414375D02*
Y419153D01*
D53*
X350032Y203350D02*
D03*
Y189163D02*
D03*
X350000Y124163D02*
D03*
Y138350D02*
D03*
D54*
X396654Y467500D02*
D03*
X403346D02*
D03*
X398346Y219375D02*
D03*
X391653D02*
D03*
X551653Y442500D02*
D03*
X558347D02*
D03*
X630847D02*
D03*
X624154D02*
D03*
X542097Y412500D02*
D03*
X535403D02*
D03*
X551653D02*
D03*
X558347D02*
D03*
X542097Y463125D02*
D03*
X535403D02*
D03*
X542097Y456875D02*
D03*
X535403D02*
D03*
X403346Y457500D02*
D03*
X396654D02*
D03*
X542097Y442500D02*
D03*
X535403D02*
D03*
X402097Y408125D02*
D03*
X395404D02*
D03*
X542097Y402500D02*
D03*
X535403D02*
D03*
X402097Y401875D02*
D03*
X395404D02*
D03*
X628346Y368750D02*
D03*
X621654D02*
D03*
X346654Y243750D02*
D03*
X353346D02*
D03*
X525846Y187500D02*
D03*
X519153D02*
D03*
X328346Y171250D02*
D03*
X321654D02*
D03*
X346654Y213750D02*
D03*
X353346D02*
D03*
X371654Y196250D02*
D03*
X378346D02*
D03*
X346654Y156250D02*
D03*
X353346D02*
D03*
X353346Y233750D02*
D03*
X346654D02*
D03*
X391653D02*
D03*
X398346D02*
D03*
X346654Y171250D02*
D03*
X353346D02*
D03*
X353346Y163750D02*
D03*
X346654D02*
D03*
X301654Y116875D02*
D03*
X308347D02*
D03*
D55*
X600973Y398049D02*
D03*
X602942D02*
D03*
X604910D02*
D03*
X606879D02*
D03*
X608847D02*
D03*
X610816D02*
D03*
X434513Y169897D02*
D03*
X436481D02*
D03*
X438450D02*
D03*
X440418D02*
D03*
X442387D02*
D03*
X444355D02*
D03*
X446324D02*
D03*
X448292D02*
D03*
X450261D02*
D03*
X452229D02*
D03*
X454198D02*
D03*
X456166D02*
D03*
X458135D02*
D03*
X460103D02*
D03*
X462072D02*
D03*
X464040D02*
D03*
X466009D02*
D03*
X467977D02*
D03*
X469946D02*
D03*
X471914D02*
D03*
X473883D02*
D03*
X475851D02*
D03*
X477820D02*
D03*
X479788D02*
D03*
X481757D02*
D03*
X483725D02*
D03*
X485694D02*
D03*
X487662D02*
D03*
X489631D02*
D03*
X491599D02*
D03*
X493568D02*
D03*
X495536D02*
D03*
X497505D02*
D03*
X499473D02*
D03*
X501442D02*
D03*
X503410D02*
D03*
X505379D02*
D03*
X507347D02*
D03*
X509316D02*
D03*
X511284D02*
D03*
X513253D02*
D03*
X515221D02*
D03*
X517190D02*
D03*
X519158D02*
D03*
X521127D02*
D03*
X523095D02*
D03*
X525064D02*
D03*
X527032D02*
D03*
X529001D02*
D03*
X530969D02*
D03*
D56*
X593375Y390254D02*
D03*
X618414D02*
D03*
X426914Y162102D02*
D03*
X538568D02*
D03*
D57*
X367618Y218750D02*
D03*
X382382D02*
D03*
X367618Y233750D02*
D03*
X382382D02*
D03*
D58*
X562500Y362500D02*
D03*
D59*
X570571Y367421D02*
D03*
Y365453D02*
D03*
Y363484D02*
D03*
Y361516D02*
D03*
Y359547D02*
D03*
Y357579D02*
D03*
X554429D02*
D03*
Y359547D02*
D03*
Y361516D02*
D03*
Y363484D02*
D03*
Y365453D02*
D03*
Y367421D02*
D03*
D60*
X567421Y354429D02*
D03*
X565453D02*
D03*
X563484D02*
D03*
X561516D02*
D03*
X559547D02*
D03*
X557579D02*
D03*
Y370571D02*
D03*
X559547D02*
D03*
X561516D02*
D03*
X563484D02*
D03*
X565453D02*
D03*
X567421D02*
D03*
D61*
X555000Y467000D02*
D03*
Y453000D02*
D03*
X627500Y467000D02*
D03*
Y453000D02*
D03*
D62*
X578061Y445309D02*
D03*
X581211D02*
D03*
X601289D02*
D03*
X600108D02*
D03*
X603258D02*
D03*
X604439D02*
D03*
X592234D02*
D03*
X590266D02*
D03*
X588297D02*
D03*
X586329D02*
D03*
X584360D02*
D03*
X582392D02*
D03*
X594203D02*
D03*
X596171D02*
D03*
X598140D02*
D03*
X579242D02*
D03*
X345561D02*
D03*
X348711D02*
D03*
X368789D02*
D03*
X367608D02*
D03*
X370758D02*
D03*
X371939D02*
D03*
X359734D02*
D03*
X357766D02*
D03*
X355797D02*
D03*
X353829D02*
D03*
X351860D02*
D03*
X349892D02*
D03*
X361703D02*
D03*
X363671D02*
D03*
X365640D02*
D03*
X346742D02*
D03*
D63*
X553750Y323346D02*
D03*
Y316653D02*
D03*
X562500Y323346D02*
D03*
Y316653D02*
D03*
X571250Y323346D02*
D03*
Y316653D02*
D03*
X536250Y359154D02*
D03*
Y365846D02*
D03*
X625000Y425846D02*
D03*
Y419153D02*
D03*
X543750Y316653D02*
D03*
Y323346D02*
D03*
Y359154D02*
D03*
Y365846D02*
D03*
X632500Y425846D02*
D03*
Y419153D02*
D03*
X601250Y419153D02*
D03*
Y425846D02*
D03*
X588000Y425846D02*
D03*
Y419153D02*
D03*
X594500Y425846D02*
D03*
Y419153D02*
D03*
X581250Y425846D02*
D03*
Y419153D02*
D03*
Y316653D02*
D03*
Y323346D02*
D03*
X365000Y425403D02*
D03*
Y432096D02*
D03*
X352500Y432096D02*
D03*
Y425403D02*
D03*
X310000Y199597D02*
D03*
Y192903D02*
D03*
X560000Y110222D02*
D03*
Y103528D02*
D03*
X550000Y110222D02*
D03*
Y103528D02*
D03*
X540000Y110222D02*
D03*
Y103528D02*
D03*
X407500Y103528D02*
D03*
Y110222D02*
D03*
X397500Y103528D02*
D03*
Y110222D02*
D03*
X387500Y103528D02*
D03*
Y110222D02*
D03*
X377500Y103528D02*
D03*
Y110222D02*
D03*
D64*
X553750Y331750D02*
D03*
Y338250D02*
D03*
X562500Y331750D02*
D03*
Y338250D02*
D03*
X571250Y331750D02*
D03*
Y338250D02*
D03*
D65*
X352500Y392667D02*
D03*
D66*
X361555Y369833D02*
D03*
X352500D02*
D03*
X343445D02*
D03*
D67*
X613750Y413445D02*
D03*
Y431555D02*
D03*
D68*
X373750Y377510D02*
D03*
Y384990D02*
D03*
X331250Y377510D02*
D03*
Y384990D02*
D03*
X342500Y425010D02*
D03*
Y432490D02*
D03*
X300000Y134990D02*
D03*
Y127510D02*
D03*
D69*
X551260Y420571D02*
D03*
X558740D02*
D03*
X555000Y429429D02*
D03*
X535010Y420571D02*
D03*
X542490D02*
D03*
X538750Y429429D02*
D03*
D70*
X328740Y160000D02*
D03*
X321260D02*
D03*
X328740Y151250D02*
D03*
X321260D02*
D03*
X321260Y180000D02*
D03*
X328740D02*
D03*
X321260Y116250D02*
D03*
X328740D02*
D03*
D71*
X328937Y126132D02*
D03*
Y136368D02*
D03*
X325000D02*
D03*
X321063D02*
D03*
Y126132D02*
D03*
X325000D02*
D03*
X328937Y191132D02*
D03*
Y201368D02*
D03*
X325000D02*
D03*
X321063D02*
D03*
Y191132D02*
D03*
X325000D02*
D03*
D72*
X381299Y203750D02*
D03*
X368701Y188750D02*
D03*
X356299Y223750D02*
D03*
D73*
X368701Y203750D02*
D03*
X381299Y188750D02*
D03*
X343701Y223750D02*
D03*
D74*
X441250Y187500D02*
D03*
X450000D02*
D03*
X432500D02*
D03*
X423750D02*
D03*
X415000D02*
D03*
D75*
X310000Y124951D02*
D03*
D76*
Y137549D02*
D03*
D77*
X377500Y156875D02*
D03*
X387500D02*
D03*
X397500D02*
D03*
X407500D02*
D03*
X377500Y121875D02*
D03*
X387500D02*
D03*
X397500D02*
D03*
X407500D02*
D03*
D78*
X469095Y442618D02*
D03*
Y437106D02*
D03*
Y431595D02*
D03*
X474606Y437106D02*
D03*
X463583D02*
D03*
Y431595D02*
D03*
Y442618D02*
D03*
X474606Y431595D02*
D03*
Y442618D02*
D03*
D79*
X440551Y467500D02*
D03*
Y462500D02*
D03*
Y457500D02*
D03*
Y452500D02*
D03*
Y447500D02*
D03*
Y442500D02*
D03*
Y437500D02*
D03*
Y432500D02*
D03*
Y427500D02*
D03*
Y422500D02*
D03*
Y417500D02*
D03*
Y412500D02*
D03*
Y407500D02*
D03*
Y402500D02*
D03*
X509449D02*
D03*
Y407500D02*
D03*
Y412500D02*
D03*
Y417500D02*
D03*
Y422500D02*
D03*
Y427500D02*
D03*
Y432500D02*
D03*
Y437500D02*
D03*
Y442500D02*
D03*
Y447500D02*
D03*
Y452500D02*
D03*
Y457500D02*
D03*
Y462500D02*
D03*
Y467500D02*
D03*
D80*
X447500Y397579D02*
D03*
X452500D02*
D03*
X457500D02*
D03*
X462500D02*
D03*
X467500D02*
D03*
X472500D02*
D03*
X477500D02*
D03*
X482500D02*
D03*
X487500D02*
D03*
X492500D02*
D03*
X497500D02*
D03*
X502500D02*
D03*
D81*
X393684Y406268D02*
Y406602D01*
X393162Y404254D02*
X393684Y403732D01*
X393162Y405746D02*
X393684Y406268D01*
Y403398D02*
Y403732D01*
Y403398D02*
X395207Y401875D01*
X393684Y406602D02*
X395207Y408125D01*
Y401875D02*
X395404D01*
X395207Y408125D02*
X395404D01*
X382659Y405746D02*
X393162D01*
X369887Y404254D02*
X383276D01*
X383277Y404254D02*
X393162D01*
X383276Y404254D02*
X383277Y404254D01*
X358313Y415828D02*
X369887Y404254D01*
X382659Y405746D02*
X382659Y405746D01*
X370504Y405746D02*
X382659D01*
X359804Y416446D02*
X370504Y405746D01*
X361464Y438105D02*
Y441605D01*
X436481Y162102D02*
X438450Y164072D01*
Y169897D01*
X534778Y457500D02*
X535403Y456875D01*
X530000Y457500D02*
X534778D01*
X529724Y462500D02*
X534778D01*
X535403Y463125D01*
X630000Y401250D02*
X637500Y393750D01*
Y364375D02*
Y393750D01*
X627500Y354375D02*
X637500Y364375D01*
X632500Y425846D02*
Y430625D01*
X628346Y368750D02*
X633125D01*
X500000Y440000D02*
X502500Y442500D01*
X500000Y405000D02*
Y440000D01*
X502500Y442500D02*
X509449D01*
X535403D02*
X535625D01*
X509449D02*
X535403D01*
X509449Y462500D02*
X529724D01*
X606879Y398049D02*
Y407496D01*
X601250Y413125D02*
X606879Y407496D01*
X601250Y413125D02*
Y419153D01*
X536875Y406875D02*
X548750D01*
X535403Y405404D02*
X536875Y406875D01*
X535403Y402500D02*
Y405404D01*
X566875Y380625D02*
X575000Y372500D01*
X509449Y447500D02*
X521250D01*
X509449Y452500D02*
X517500D01*
X580453Y359547D02*
X581875Y358125D01*
X580891Y361516D02*
X581875Y362500D01*
X573046Y357579D02*
X575625Y355000D01*
X563246Y372897D02*
Y381996D01*
X590504Y411363D02*
Y412952D01*
X591996Y410746D02*
Y412952D01*
X563246Y381996D02*
X591996Y410746D01*
X561754Y382613D02*
X590504Y411363D01*
X561754Y372897D02*
Y382613D01*
X588000Y415457D02*
X590504Y412952D01*
X591996D02*
X594500Y415457D01*
Y419153D01*
X509449Y457500D02*
X530000D01*
Y402500D02*
X535403D01*
X509449D02*
X515000D01*
X531875Y365625D02*
X532096Y365846D01*
X565453Y365547D02*
X565500Y365500D01*
X440418Y143543D02*
Y169897D01*
X433125Y136250D02*
X440418Y143543D01*
X625000Y414375D02*
Y419153D01*
X570571Y357579D02*
X573046D01*
X570571Y359547D02*
X580453D01*
X570571Y361516D02*
X580891D01*
X575000Y366250D02*
Y372500D01*
X574203Y365453D02*
X575000Y366250D01*
X570571Y365453D02*
X574203D01*
X553750Y323347D02*
Y331750D01*
Y323347D02*
X553750Y323346D01*
X562500Y323347D02*
X562500Y323346D01*
X562500Y323347D02*
Y331750D01*
X571250Y323346D02*
Y331750D01*
X581250Y323346D02*
Y339375D01*
X571875Y348750D02*
X581250Y339375D01*
X565000Y348750D02*
X571875D01*
X563484Y350266D02*
X565000Y348750D01*
X563484Y350266D02*
Y354429D01*
X562500Y338251D02*
Y342500D01*
X562500Y338250D02*
X562500Y338251D01*
X557579Y347421D02*
X562500Y342500D01*
X557579Y347421D02*
Y354429D01*
X571250Y338250D02*
Y342500D01*
X568125Y345625D02*
X571250Y342500D01*
X565000Y345625D02*
X568125D01*
X559547Y351078D02*
X565000Y345625D01*
X559547Y351078D02*
Y354429D01*
X565453Y365547D02*
Y370571D01*
X543750Y365846D02*
Y370625D01*
X559547Y370571D02*
Y373381D01*
X557579Y375349D02*
X559547Y373381D01*
X550000Y375349D02*
X557579D01*
X540349D02*
X550000D01*
Y368125D02*
Y375349D01*
Y368125D02*
X550704Y367421D01*
X554429D01*
X545625Y351250D02*
X548750Y354375D01*
X536250Y353125D02*
X538125Y351250D01*
X545625D01*
X543750Y354375D02*
Y359154D01*
X548750Y354375D02*
Y361250D01*
X536250Y353125D02*
Y359154D01*
X548750Y361250D02*
X550984Y363484D01*
X554429D01*
X536250Y371250D02*
X540349Y375349D01*
X536250Y365846D02*
Y371250D01*
X543750Y365846D02*
X544144Y365453D01*
X554429D01*
X425625Y181250D02*
X431875Y175000D01*
X423750Y183125D02*
X425625Y181250D01*
X519158Y169897D02*
Y187496D01*
X523095Y177470D02*
X525846Y180221D01*
X523095Y169897D02*
Y177470D01*
X525846Y180221D02*
Y187500D01*
X519153D02*
X519158Y187496D01*
X407500Y110222D02*
Y121875D01*
X425625D01*
X457500Y90000D01*
X563125Y90000D01*
X565000Y91875D01*
Y113125D01*
X517190Y160935D02*
X565000Y113125D01*
X397500Y121875D02*
Y128125D01*
Y110222D02*
Y121875D01*
Y128125D02*
X400625Y131250D01*
X387500Y121875D02*
Y128125D01*
Y110222D02*
Y121875D01*
Y128125D02*
X393125Y133750D01*
X377500Y121875D02*
Y128125D01*
Y121875D02*
X377500Y110222D01*
X377500Y128125D02*
X385625Y136250D01*
X400625Y131250D02*
X434375D01*
X456166Y153041D01*
X393125Y133750D02*
X433750D01*
X454198Y154198D01*
X385625Y136250D02*
X433125D01*
X448292Y169897D02*
Y176708D01*
X435000Y180625D02*
X444375D01*
X448292Y176708D01*
X441250Y187500D02*
X450261Y178489D01*
Y169897D02*
Y178489D01*
X432500Y183125D02*
X435000Y180625D01*
X335743Y136368D02*
X337725Y138350D01*
X350000D01*
X328937Y136368D02*
X335743D01*
X324688Y186250D02*
X325000Y186563D01*
X588297Y441189D02*
Y445309D01*
X587500Y439994D02*
Y440392D01*
X588297Y441189D01*
X517190Y160935D02*
Y169897D01*
X456166Y153041D02*
Y169897D01*
X454198Y154198D02*
Y169897D01*
X452229D02*
Y180896D01*
X450000Y183125D02*
Y187500D01*
Y183125D02*
X452229Y180896D01*
X432500Y183125D02*
Y187500D01*
X423750Y183125D02*
Y187500D01*
X431875Y175000D02*
X440625D01*
X442387Y173238D01*
Y169897D02*
Y173238D01*
X625000Y419153D02*
X632500D01*
X591250Y450000D02*
X593219D01*
X594203Y449016D01*
Y445309D02*
Y449016D01*
X590266Y445309D02*
Y449016D01*
X591250Y450000D01*
X590266Y445309D02*
X590411Y445454D01*
X590266Y434064D02*
Y445309D01*
X588000Y431798D02*
X590266Y434064D01*
X592234Y434016D02*
Y445309D01*
Y434016D02*
X594500Y431750D01*
X588000Y425846D02*
Y431798D01*
X594500Y425846D02*
Y431750D01*
X359973Y440164D02*
Y441605D01*
Y438723D02*
Y440164D01*
X359006Y441130D02*
X359973Y440164D01*
X355797Y442001D02*
Y445309D01*
X357766D02*
Y448617D01*
X361703Y445309D02*
Y448617D01*
X360833Y449487D02*
X361703Y448617D01*
X361558Y445454D02*
X361703Y445309D01*
X358636Y449487D02*
X360833D01*
X361558Y445164D02*
X361703Y445309D01*
X361558Y441698D02*
Y445164D01*
X361464Y441605D02*
X361558Y441698D01*
X359804Y436446D02*
X361464Y438105D01*
X359804Y416446D02*
Y436446D01*
X359879Y441698D02*
Y445164D01*
Y441698D02*
X359973Y441605D01*
X359734Y445309D02*
X359879Y445164D01*
X358313Y437063D02*
X359973Y438723D01*
X358313Y415828D02*
Y437063D01*
X357766Y445309D02*
X357911Y445454D01*
X357766Y448617D02*
X358636Y449487D01*
X355797Y442001D02*
X356667Y441130D01*
X359006D01*
X355797Y445309D02*
X355942Y445164D01*
X359589D02*
X359734Y445309D01*
X561562Y370617D02*
Y372705D01*
X588000Y415457D02*
Y419153D01*
X563438Y370617D02*
Y372705D01*
X561562D02*
X561754Y372897D01*
X563438Y370617D02*
X563484Y370571D01*
X561516D02*
X561562Y370617D01*
X563246Y372897D02*
X563438Y372705D01*
D82*
X383007Y219375D02*
X391653D01*
X382382Y218750D02*
X383007Y219375D01*
X382382Y233750D02*
X391653D01*
X581801Y439291D02*
Y445309D01*
X578652Y440625D02*
Y445309D01*
X603848Y440625D02*
Y445309D01*
X371348Y440625D02*
Y445309D01*
X346152Y440625D02*
Y445309D01*
X353346Y156250D02*
Y171250D01*
X408750Y198125D02*
X419375D01*
X353346Y171250D02*
X381875D01*
X408750Y198125D01*
X419375D02*
X423750Y193750D01*
Y190625D02*
Y193750D01*
X432500Y187500D02*
Y193750D01*
X415625Y210625D02*
X432500Y193750D01*
X392767Y225000D02*
X410000D01*
X441250Y193750D01*
Y187500D02*
Y193750D01*
X450000Y187500D02*
Y193750D01*
X401875Y241875D02*
X450000Y193750D01*
X370000Y241875D02*
X401875D01*
X367618Y239493D02*
X370000Y241875D01*
X367618Y233750D02*
Y239493D01*
X391653Y219375D02*
Y223887D01*
X392767Y225000D01*
X376875Y210625D02*
X415625D01*
X375000Y212500D02*
X376875Y210625D01*
X375000Y212500D02*
Y230625D01*
X378125Y233750D01*
X382382D01*
X367618Y211132D02*
Y218750D01*
X368401Y204050D02*
Y210349D01*
X367618Y211132D02*
X368401Y210349D01*
X363125Y218750D02*
X367618D01*
X358125Y213750D02*
X363125Y218750D01*
X353346Y213750D02*
X358125D01*
X368401Y204050D02*
X368701Y203750D01*
X353346Y233750D02*
X367618D01*
X353346D02*
X353346Y233750D01*
Y243750D01*
X353346Y226828D02*
X356299Y223875D01*
Y223750D02*
Y223875D01*
X353346Y226828D02*
Y233750D01*
X310000Y199597D02*
X315222D01*
X316993Y201368D01*
X321063D01*
X338125Y233750D02*
X346654D01*
X321063Y216688D02*
X338125Y233750D01*
X321063Y201368D02*
Y216688D01*
X378346Y191703D02*
X381299Y188750D01*
X378346Y200797D02*
X381299Y203750D01*
X378346Y196250D02*
Y200797D01*
Y191703D02*
Y196250D01*
X600699Y439291D02*
Y445309D01*
X608435Y431555D02*
X613750D01*
X600699Y439291D02*
X608435Y431555D01*
X613391Y431914D02*
X613750Y431555D01*
X349301Y439291D02*
Y445309D01*
X368199Y439291D02*
Y445309D01*
X342500Y432490D02*
X349301Y439291D01*
X625000Y425846D02*
Y430000D01*
X613750Y431555D02*
X623445D01*
X625000Y430000D01*
D83*
X536875Y288125D02*
X555000Y270000D01*
X632500D01*
X350000Y182500D02*
Y189163D01*
X347500Y180000D02*
X350000Y182500D01*
X328740Y180000D02*
X347500D01*
X403125Y462500D02*
X440551D01*
X399375D02*
X403125D01*
Y467278D02*
X403346Y467500D01*
X403125Y462500D02*
Y467278D01*
X396654Y457500D02*
X397690Y458537D01*
Y460815D01*
X399375Y462500D01*
X571250Y311875D02*
Y316653D01*
X542097Y456875D02*
Y463125D01*
Y442500D02*
Y456875D01*
X408750Y457500D02*
X440551D01*
X531875Y365625D02*
Y386250D01*
Y322292D02*
Y365625D01*
X532096Y365846D02*
X536250D01*
X543750Y323346D02*
X546654D01*
X532929D02*
X543750D01*
X541875Y396250D02*
Y402279D01*
X531875Y386250D02*
X541875Y396250D01*
X531875Y195000D02*
Y322292D01*
X532929Y323346D01*
X531875Y195000D02*
X542500D01*
X523750D02*
X531875D01*
X542500D02*
X550000Y187500D01*
X519153Y190403D02*
X523750Y195000D01*
X519153Y187500D02*
Y190403D01*
X550000Y103528D02*
X560000D01*
X540000D02*
X550000D01*
X530847D02*
X540000D01*
X529375Y105000D02*
X530847Y103528D01*
X407500Y156875D02*
Y166250D01*
X401875Y171875D02*
X407500Y166250D01*
X397500Y156875D02*
X407500D01*
X387500D02*
X397500D01*
X377500D02*
X387500D01*
X352500Y289375D02*
Y369833D01*
Y289375D02*
X394688Y247187D01*
X328740Y151250D02*
X333469D01*
X328740Y160000D02*
X333469D01*
X325000Y136368D02*
Y141147D01*
X346654Y163750D02*
X346654Y163750D01*
Y171250D01*
X350000Y124163D02*
X361663D01*
X365000Y127500D02*
Y143750D01*
X361663Y124163D02*
X365000Y127500D01*
X360000Y148750D02*
X365000Y143750D01*
X348750Y148750D02*
X360000D01*
X346654Y150847D02*
Y156250D01*
Y150847D02*
X348750Y148750D01*
X328937Y116250D02*
Y126132D01*
X562500Y316653D02*
X571250D01*
X553750D02*
X562500D01*
X550221D02*
X553750D01*
X546654Y323346D02*
X548750Y321250D01*
Y318125D02*
Y321250D01*
Y318125D02*
X550221Y316653D01*
X315625Y116250D02*
X321260D01*
X296875Y116875D02*
X301654D01*
X398346Y219375D02*
X403125D01*
X398346Y233750D02*
X403125D01*
X324916Y126216D02*
X325000Y126132D01*
X323861Y130000D02*
X324916Y128946D01*
X318750Y130000D02*
X323861D01*
X324916Y126216D02*
Y128946D01*
X324688Y186250D02*
X327500D01*
X321875D02*
X324688D01*
X325000Y186563D02*
Y191132D01*
X328750Y180010D02*
Y185000D01*
X328740Y180000D02*
X328750Y180010D01*
X327500Y186250D02*
X328750Y185000D01*
X321063Y187062D02*
X321875Y186250D01*
X321063Y187062D02*
Y191132D01*
X336875Y203350D02*
X350000D01*
X336475D02*
X336875D01*
X334493Y201368D02*
X336475Y203350D01*
Y203350D02*
X336475Y203350D01*
X328937Y201368D02*
X334493D01*
X336875Y221250D02*
X339375Y223750D01*
X343701D01*
X336875Y203350D02*
Y221250D01*
X350000Y203350D02*
X350225Y203125D01*
X360000D01*
X366875Y196250D02*
X371654D01*
X360000Y203125D02*
X366875Y196250D01*
X341875Y213750D02*
X346654D01*
X300000Y134990D02*
Y140625D01*
X341875Y171250D02*
X346654D01*
X341875Y163750D02*
X346654D01*
X341875Y243750D02*
X346654D01*
X341250Y156250D02*
X346654D01*
X338125Y159375D02*
Y167500D01*
Y159375D02*
X341250Y156250D01*
X328346Y171250D02*
X334375D01*
X338125Y167500D01*
X328346Y179606D02*
X328740Y180000D01*
X328346Y171250D02*
Y179606D01*
X321250Y151240D02*
X321260Y151250D01*
Y160000D01*
X321250Y143125D02*
Y151240D01*
X321063Y142938D02*
X321250Y143125D01*
X321063Y136368D02*
Y142938D01*
X310000Y124951D02*
X313701D01*
X318750Y130000D01*
X313750Y137500D02*
X318750Y132500D01*
X328125D02*
X328937Y133312D01*
X318750Y132500D02*
X328125D01*
X328937Y133312D02*
Y136368D01*
X310000Y137549D02*
X310049Y137500D01*
X313750D01*
X309951Y125000D02*
X310000Y124951D01*
X307500Y125000D02*
X309951D01*
X304990Y127510D02*
X307500Y125000D01*
X300000Y127510D02*
X304990D01*
D84*
X333917Y392667D02*
X352500D01*
X633125Y406875D02*
X642500Y397500D01*
X617996Y406875D02*
X633125D01*
X642500Y310000D02*
Y397500D01*
X318760Y425010D02*
X342500D01*
X613750Y413445D02*
X614537D01*
X615887Y412095D01*
Y408984D02*
Y412095D01*
Y408984D02*
X617996Y406875D01*
X642500Y300000D02*
Y310000D01*
X305625Y171250D02*
X321654D01*
X299375Y177500D02*
Y405625D01*
Y177500D02*
X305625Y171250D01*
X299375Y405625D02*
X318760Y425010D01*
X339788Y124163D02*
X350000D01*
X331875Y116250D02*
X339788Y124163D01*
X328937Y116250D02*
X331875D01*
X342500Y418750D02*
Y425010D01*
X350000Y411250D02*
X355625D01*
X342500Y418750D02*
X350000Y411250D01*
X355625D02*
X373750Y393125D01*
Y384990D02*
Y393125D01*
X367490Y384990D02*
X373750D01*
X361555Y379055D02*
X367490Y384990D01*
X361555Y369833D02*
Y379055D01*
X331250Y384990D02*
Y390000D01*
X333917Y392667D01*
X352500Y369833D02*
Y392667D01*
X343445Y362198D02*
Y369833D01*
X373750Y371875D02*
Y377510D01*
X331250Y371875D02*
Y377510D01*
D85*
X391875Y457500D02*
X396654D01*
X551653Y383972D02*
X551875Y383750D01*
X551653Y383972D02*
Y412500D01*
X632500Y310000D02*
Y322500D01*
X621654Y333347D02*
X632500Y322500D01*
X615000Y368750D02*
X621654D01*
Y333347D02*
Y368750D01*
X567094Y433969D02*
X575000Y441875D01*
X566875Y433750D02*
X567094Y433969D01*
X610625Y404375D02*
X610816Y404184D01*
X556900Y451100D02*
X562025D01*
X566875Y446250D01*
X555000Y453000D02*
X556900Y451100D01*
X608847Y374903D02*
X615000Y368750D01*
X567094Y406875D02*
X579375D01*
X555625D02*
X567094D01*
X567094Y406875D02*
Y433969D01*
X567094Y406875D02*
X567094Y406875D01*
X559068Y429429D02*
X563388Y433750D01*
X566875D01*
X555000Y429429D02*
X559068D01*
X542097Y402500D02*
X546875D01*
X541875Y402279D02*
X542097Y402500D01*
X540967Y413630D02*
Y415283D01*
Y413630D02*
X542097Y412500D01*
X538750Y417500D02*
X540967Y415283D01*
X540000Y425000D02*
X557500D01*
X538750Y417500D02*
Y423750D01*
X540000Y425000D01*
X557500D02*
X558750Y423750D01*
Y420581D02*
X558794Y420625D01*
X558740Y420571D02*
X558750Y420581D01*
X558794Y420625D02*
X562500D01*
X525000Y434375D02*
X538750D01*
X619208Y442500D02*
X624154D01*
X542097Y437554D02*
Y442500D01*
X551250Y442097D02*
X551653Y442500D01*
X551250Y438750D02*
Y442097D01*
X538750Y434375D02*
X546875D01*
X551250Y438750D01*
X477500Y390625D02*
Y397579D01*
X472500Y390625D02*
Y397579D01*
X467500Y390625D02*
Y397579D01*
X462500Y390625D02*
Y397579D01*
X457500Y390625D02*
Y397579D01*
X311609Y117234D02*
X316250Y121875D01*
X308347Y116875D02*
X308705Y117234D01*
X311609D01*
X316250Y121875D02*
X320000D01*
X321063Y122938D01*
Y126132D01*
X538750Y429429D02*
Y434375D01*
X551457Y412500D02*
X551653D01*
X549934Y414023D02*
Y414220D01*
X543226Y419471D02*
X544683D01*
X549934Y414220D01*
Y414023D02*
X551457Y412500D01*
X542490Y420206D02*
Y420571D01*
Y420206D02*
X543226Y419471D01*
X535010Y412894D02*
Y420571D01*
Y412894D02*
X535403Y412500D01*
X558150D02*
X558347D01*
X551260Y419488D02*
Y420571D01*
Y419488D02*
X556627Y414121D01*
Y414023D02*
Y414121D01*
Y414023D02*
X558150Y412500D01*
X558750Y420581D02*
Y423750D01*
X555000Y448750D02*
Y453000D01*
X551653Y445403D02*
X555000Y448750D01*
X551653Y442500D02*
Y445403D01*
X624154Y442500D02*
Y445403D01*
X627500Y448750D01*
Y453000D01*
D86*
X610816Y398049D02*
Y404184D01*
X608847Y374903D02*
Y398049D01*
D87*
X403346Y457500D02*
X408750D01*
D88*
X293750Y151250D02*
X321260D01*
X285438Y142938D02*
X293750Y151250D01*
X291875Y106875D02*
X310625D01*
X526048Y169897D02*
Y175991D01*
X530244Y180187D02*
X558506D01*
X526048Y175991D02*
X530244Y180187D01*
X566006Y82313D02*
X575812Y92119D01*
X571875Y93750D02*
Y161250D01*
X575812Y92119D02*
Y162881D01*
X335187Y82313D02*
X566006D01*
X336818Y86250D02*
X564375D01*
X571875Y93750D01*
X312256Y110812D02*
X336818Y86250D01*
X310625Y106875D02*
X335187Y82313D01*
X529985Y169897D02*
Y174360D01*
X293135Y127510D02*
X300000D01*
X289375Y123750D02*
X293135Y127510D01*
X285438Y113312D02*
Y142938D01*
X289375Y114943D02*
Y123750D01*
Y114943D02*
X293506Y110812D01*
X285438Y113312D02*
X291875Y106875D01*
X293506Y110812D02*
X312256D01*
X558506Y180187D02*
X575812Y162881D01*
X556875Y176250D02*
X571875Y161250D01*
X531875Y176250D02*
X556875D01*
X529985Y174360D02*
X531875Y176250D01*
D89*
X642500Y240000D02*
D03*
X632500D02*
D03*
X642500Y250000D02*
D03*
X632500D02*
D03*
X642500Y260000D02*
D03*
X632500D02*
D03*
X642500Y270000D02*
D03*
X632500D02*
D03*
X642500Y280000D02*
D03*
X632500D02*
D03*
X642500Y290000D02*
D03*
X632500D02*
D03*
X642500Y300000D02*
D03*
X632500D02*
D03*
X642500Y310000D02*
D03*
X632500D02*
D03*
D90*
X608258Y465000D02*
D03*
X574242D02*
D03*
X375758D02*
D03*
X341742D02*
D03*
D91*
X574242Y448661D02*
D03*
X608258D02*
D03*
X341742D02*
D03*
X375758D02*
D03*
D92*
X290945Y459055D02*
D03*
Y90945D02*
D03*
X659055D02*
D03*
Y459055D02*
D03*
D93*
X540000Y255000D02*
D03*
X640000Y85000D02*
D03*
Y95000D02*
D03*
X420000Y115000D02*
D03*
X430000Y105000D02*
D03*
X420000D02*
D03*
Y95000D02*
D03*
X430000D02*
D03*
X440000D02*
D03*
X525000D02*
D03*
X515000D02*
D03*
X505000D02*
D03*
X495000D02*
D03*
X485000D02*
D03*
X475000D02*
D03*
X465000D02*
D03*
X455000Y105000D02*
D03*
X435000Y125000D02*
D03*
X445000Y115000D02*
D03*
X520000Y135000D02*
D03*
X510000D02*
D03*
X500000D02*
D03*
X490000D02*
D03*
X480000D02*
D03*
X470000D02*
D03*
X450000D02*
D03*
X460000D02*
D03*
Y125000D02*
D03*
X470000D02*
D03*
X480000D02*
D03*
X490000D02*
D03*
X500000D02*
D03*
X510000D02*
D03*
X520000D02*
D03*
X470000Y115000D02*
D03*
X480000D02*
D03*
X490000D02*
D03*
X500000D02*
D03*
X510000D02*
D03*
X520000D02*
D03*
X530000D02*
D03*
Y125000D02*
D03*
X665000Y105000D02*
D03*
X615000Y175000D02*
D03*
Y185000D02*
D03*
Y195000D02*
D03*
X565000Y185000D02*
D03*
X665000Y205000D02*
D03*
X655000D02*
D03*
X645000D02*
D03*
X635000D02*
D03*
X665000Y115000D02*
D03*
Y125000D02*
D03*
Y135000D02*
D03*
Y145000D02*
D03*
Y155000D02*
D03*
Y165000D02*
D03*
Y175000D02*
D03*
Y185000D02*
D03*
Y195000D02*
D03*
X655000D02*
D03*
Y185000D02*
D03*
X645000D02*
D03*
Y195000D02*
D03*
X635000D02*
D03*
Y185000D02*
D03*
Y175000D02*
D03*
X645000D02*
D03*
X655000D02*
D03*
Y165000D02*
D03*
Y155000D02*
D03*
Y145000D02*
D03*
Y135000D02*
D03*
Y125000D02*
D03*
Y115000D02*
D03*
Y105000D02*
D03*
X640000D02*
D03*
Y115000D02*
D03*
Y125000D02*
D03*
Y135000D02*
D03*
Y145000D02*
D03*
Y155000D02*
D03*
X630000D02*
D03*
Y145000D02*
D03*
Y135000D02*
D03*
Y125000D02*
D03*
Y115000D02*
D03*
Y105000D02*
D03*
Y95000D02*
D03*
Y85000D02*
D03*
X620000D02*
D03*
Y95000D02*
D03*
Y105000D02*
D03*
Y115000D02*
D03*
Y125000D02*
D03*
Y135000D02*
D03*
Y145000D02*
D03*
Y155000D02*
D03*
X610000D02*
D03*
Y145000D02*
D03*
Y135000D02*
D03*
Y125000D02*
D03*
Y115000D02*
D03*
Y105000D02*
D03*
Y95000D02*
D03*
Y85000D02*
D03*
X600000D02*
D03*
Y95000D02*
D03*
Y105000D02*
D03*
Y115000D02*
D03*
Y125000D02*
D03*
Y135000D02*
D03*
Y145000D02*
D03*
Y155000D02*
D03*
X590000D02*
D03*
Y145000D02*
D03*
Y135000D02*
D03*
Y125000D02*
D03*
Y115000D02*
D03*
Y105000D02*
D03*
Y95000D02*
D03*
Y85000D02*
D03*
X580000D02*
D03*
Y95000D02*
D03*
Y105000D02*
D03*
Y115000D02*
D03*
Y125000D02*
D03*
Y135000D02*
D03*
Y145000D02*
D03*
Y155000D02*
D03*
X560000Y125000D02*
D03*
Y135000D02*
D03*
Y145000D02*
D03*
Y155000D02*
D03*
Y165000D02*
D03*
X625000Y175000D02*
D03*
Y185000D02*
D03*
X605000Y175000D02*
D03*
X595000D02*
D03*
X585000D02*
D03*
X575000Y185000D02*
D03*
X585000D02*
D03*
X595000D02*
D03*
X605000D02*
D03*
X625000Y195000D02*
D03*
Y205000D02*
D03*
X545000D02*
D03*
X555000D02*
D03*
X565000D02*
D03*
X575000D02*
D03*
X585000D02*
D03*
X595000D02*
D03*
X605000D02*
D03*
X585000Y215000D02*
D03*
X595000D02*
D03*
X605000D02*
D03*
Y225000D02*
D03*
X585000Y235000D02*
D03*
X595000D02*
D03*
X605000D02*
D03*
X585000Y255000D02*
D03*
X595000D02*
D03*
X605000D02*
D03*
X635000Y215000D02*
D03*
X645000D02*
D03*
X655000D02*
D03*
X665000D02*
D03*
Y225000D02*
D03*
Y235000D02*
D03*
Y245000D02*
D03*
Y255000D02*
D03*
Y265000D02*
D03*
Y275000D02*
D03*
Y285000D02*
D03*
Y295000D02*
D03*
Y305000D02*
D03*
X585000Y275000D02*
D03*
X595000D02*
D03*
X605000D02*
D03*
Y285000D02*
D03*
X595000D02*
D03*
X585000D02*
D03*
Y295000D02*
D03*
X595000D02*
D03*
Y315000D02*
D03*
Y325000D02*
D03*
Y335000D02*
D03*
X585000D02*
D03*
Y345000D02*
D03*
X595000D02*
D03*
X635000Y335000D02*
D03*
Y345000D02*
D03*
X665000Y315000D02*
D03*
Y325000D02*
D03*
Y335000D02*
D03*
Y345000D02*
D03*
Y355000D02*
D03*
X655000Y345000D02*
D03*
Y355000D02*
D03*
X665000Y365000D02*
D03*
Y375000D02*
D03*
Y385000D02*
D03*
X655000D02*
D03*
X665000Y395000D02*
D03*
X655000D02*
D03*
X665000Y405000D02*
D03*
X655000D02*
D03*
X665000Y415000D02*
D03*
X655000D02*
D03*
Y425000D02*
D03*
X665000D02*
D03*
X655000Y435000D02*
D03*
X665000D02*
D03*
X380000D02*
D03*
Y425000D02*
D03*
X410000Y445000D02*
D03*
X400000D02*
D03*
Y435000D02*
D03*
Y425000D02*
D03*
X390000Y415000D02*
D03*
X400000D02*
D03*
X390000Y395000D02*
D03*
X400000D02*
D03*
X390000Y385000D02*
D03*
X400000D02*
D03*
Y375000D02*
D03*
X390000D02*
D03*
X400000Y340000D02*
D03*
Y350000D02*
D03*
X390000Y340000D02*
D03*
Y350000D02*
D03*
X380000Y340000D02*
D03*
Y350000D02*
D03*
X370000D02*
D03*
Y340000D02*
D03*
X360000Y350000D02*
D03*
Y340000D02*
D03*
X400000Y330000D02*
D03*
X390000D02*
D03*
X380000D02*
D03*
X370000D02*
D03*
X360000D02*
D03*
Y320000D02*
D03*
X370000D02*
D03*
X380000D02*
D03*
X390000D02*
D03*
X400000D02*
D03*
X390000Y310000D02*
D03*
X380000Y300000D02*
D03*
Y310000D02*
D03*
X370000D02*
D03*
X360000D02*
D03*
X370000Y300000D02*
D03*
X360000D02*
D03*
X370000Y290000D02*
D03*
X360000D02*
D03*
X400000Y300000D02*
D03*
Y290000D02*
D03*
X390000D02*
D03*
X400000Y280000D02*
D03*
X390000D02*
D03*
X380000D02*
D03*
X400000Y270000D02*
D03*
Y260000D02*
D03*
X390000D02*
D03*
Y270000D02*
D03*
X380000D02*
D03*
X370000Y260000D02*
D03*
X360000D02*
D03*
X380000Y250000D02*
D03*
X370000D02*
D03*
X360000D02*
D03*
X350000D02*
D03*
X310000Y220000D02*
D03*
Y230000D02*
D03*
X320000Y240000D02*
D03*
X310000D02*
D03*
X330000Y250000D02*
D03*
X320000D02*
D03*
X310000D02*
D03*
X350000Y280000D02*
D03*
Y270000D02*
D03*
X340000Y260000D02*
D03*
X330000D02*
D03*
X320000D02*
D03*
X310000D02*
D03*
X340000Y270000D02*
D03*
X330000D02*
D03*
X320000D02*
D03*
X310000D02*
D03*
X340000Y280000D02*
D03*
X330000D02*
D03*
X320000D02*
D03*
X310000D02*
D03*
X340000Y290000D02*
D03*
X330000D02*
D03*
X320000D02*
D03*
X310000D02*
D03*
X340000Y300000D02*
D03*
X330000D02*
D03*
X320000D02*
D03*
X310000D02*
D03*
X340000Y310000D02*
D03*
X330000D02*
D03*
X320000D02*
D03*
X310000D02*
D03*
X340000Y320000D02*
D03*
X330000D02*
D03*
X320000D02*
D03*
X310000D02*
D03*
X340000Y330000D02*
D03*
X330000D02*
D03*
X320000D02*
D03*
X310000D02*
D03*
X340000Y340000D02*
D03*
X330000D02*
D03*
X320000D02*
D03*
X310000D02*
D03*
X340000Y350000D02*
D03*
X330000Y365000D02*
D03*
Y350000D02*
D03*
X320000D02*
D03*
X310000D02*
D03*
X320000Y365000D02*
D03*
Y415000D02*
D03*
X330000D02*
D03*
Y405000D02*
D03*
X310000Y365000D02*
D03*
X320000Y375000D02*
D03*
X310000D02*
D03*
X320000Y385000D02*
D03*
X310000D02*
D03*
X320000Y395000D02*
D03*
X310000D02*
D03*
X320000Y405000D02*
D03*
X310000D02*
D03*
X325000Y460000D02*
D03*
X315000D02*
D03*
Y450000D02*
D03*
Y440000D02*
D03*
X305000D02*
D03*
Y430000D02*
D03*
X295000Y420000D02*
D03*
Y430000D02*
D03*
Y440000D02*
D03*
X285000D02*
D03*
Y430000D02*
D03*
Y420000D02*
D03*
Y410000D02*
D03*
Y400000D02*
D03*
Y390000D02*
D03*
Y380000D02*
D03*
Y370000D02*
D03*
Y360000D02*
D03*
Y350000D02*
D03*
Y340000D02*
D03*
Y330000D02*
D03*
Y320000D02*
D03*
Y310000D02*
D03*
Y300000D02*
D03*
Y290000D02*
D03*
Y280000D02*
D03*
Y270000D02*
D03*
Y260000D02*
D03*
Y250000D02*
D03*
Y240000D02*
D03*
Y230000D02*
D03*
Y220000D02*
D03*
Y210000D02*
D03*
Y200000D02*
D03*
Y190000D02*
D03*
Y180000D02*
D03*
Y170000D02*
D03*
X295000D02*
D03*
Y160000D02*
D03*
X285000D02*
D03*
X365000Y115000D02*
D03*
X355000D02*
D03*
X345000D02*
D03*
X365000Y105000D02*
D03*
Y95000D02*
D03*
X355000D02*
D03*
Y105000D02*
D03*
X335000D02*
D03*
X345000D02*
D03*
Y95000D02*
D03*
X310000D02*
D03*
Y85000D02*
D03*
X536875Y288125D02*
D03*
X391875Y457500D02*
D03*
X336250Y392500D02*
D03*
X630000Y401250D02*
D03*
X627500Y354375D02*
D03*
X551875Y383750D02*
D03*
X632500Y430625D02*
D03*
X633125Y368750D02*
D03*
X581250Y311875D02*
D03*
X571250D02*
D03*
X606875Y305000D02*
D03*
X603125Y295000D02*
D03*
X500000Y405000D02*
D03*
X642500Y391875D02*
D03*
X529724Y462500D02*
D03*
X331250Y425000D02*
D03*
X610625Y404375D02*
D03*
X566875Y446250D02*
D03*
X575000Y441875D02*
D03*
X558125Y437500D02*
D03*
X606250Y419375D02*
D03*
X579375Y406875D02*
D03*
X597500Y409375D02*
D03*
X594238Y408560D02*
D03*
X601875Y408125D02*
D03*
X548750Y406875D02*
D03*
X555625D02*
D03*
X546875Y402500D02*
D03*
X562500Y420625D02*
D03*
X566875Y380625D02*
D03*
X575625Y355000D02*
D03*
X517500Y452500D02*
D03*
X521250Y447500D02*
D03*
X525000Y434375D02*
D03*
X581875Y362500D02*
D03*
Y358125D02*
D03*
X619208Y442500D02*
D03*
X542097Y437554D02*
D03*
X550000Y187500D02*
D03*
X529375Y105000D02*
D03*
X523095Y162102D02*
D03*
X497505D02*
D03*
X479788D02*
D03*
X464040D02*
D03*
X436481D02*
D03*
X401875Y171875D02*
D03*
X394688Y247187D02*
D03*
X313469Y180000D02*
D03*
X333469Y151250D02*
D03*
Y160000D02*
D03*
X325000Y141147D02*
D03*
Y206147D02*
D03*
X316250Y121875D02*
D03*
X408750Y457500D02*
D03*
X343445Y362198D02*
D03*
X373750Y371875D02*
D03*
X443125Y177500D02*
D03*
X625000Y414375D02*
D03*
X543750Y370625D02*
D03*
Y354375D02*
D03*
X425625Y181250D02*
D03*
X522500D02*
D03*
X377500Y98750D02*
D03*
X387500D02*
D03*
X397500D02*
D03*
X407500D02*
D03*
X315625Y116250D02*
D03*
X296875Y116875D02*
D03*
X403125Y219375D02*
D03*
X403125Y233750D02*
D03*
X341875Y213750D02*
D03*
X310000Y187269D02*
D03*
X300000Y140625D02*
D03*
X557579Y375349D02*
D03*
X553750Y343029D02*
D03*
X543750Y311875D02*
D03*
X341875Y171250D02*
D03*
X341875Y163750D02*
D03*
X363922Y188750D02*
D03*
X341875Y243750D02*
D03*
X331250Y371875D02*
D03*
X365000Y420625D02*
D03*
X352500Y420625D02*
D03*
X635625Y442500D02*
D03*
X581250Y414375D02*
D03*
X587500Y439994D02*
D03*
X594500Y431750D02*
D03*
X530000Y457500D02*
D03*
Y402500D02*
D03*
X407500Y407500D02*
D03*
Y402500D02*
D03*
X457500Y390625D02*
D03*
X515000Y402500D02*
D03*
X435000D02*
D03*
Y407500D02*
D03*
X472500Y390625D02*
D03*
X462500D02*
D03*
X467500D02*
D03*
X477500D02*
D03*
D94*
X578652Y440625D02*
D03*
X581801Y439291D02*
D03*
X600699D02*
D03*
X603848Y440625D02*
D03*
X371348D02*
D03*
X368199Y439291D02*
D03*
X349301D02*
D03*
X346152Y440625D02*
D03*
D95*
X562500Y362512D02*
D03*
X565500Y365500D02*
D03*
Y359500D02*
D03*
X559500D02*
D03*
Y365500D02*
D03*
D96*
X602628Y450630D02*
D03*
X579872D02*
D03*
X370128D02*
D03*
X347372D02*
D03*
D97*
X466339Y442618D02*
D03*
X471850D02*
D03*
Y437106D02*
D03*
X466339D02*
D03*
X471850Y431595D02*
D03*
X466339D02*
D03*
X463583Y439862D02*
D03*
Y434350D02*
D03*
X469095Y439862D02*
D03*
Y434350D02*
D03*
X474606Y439862D02*
D03*
Y434350D02*
D03*
D98*
X284017Y455055D02*
D03*
X290945Y451055D02*
D03*
X297873Y455055D02*
D03*
Y463055D02*
D03*
X290945Y467055D02*
D03*
X284017Y463055D02*
D03*
Y86945D02*
D03*
X290945Y82945D02*
D03*
X297873Y86945D02*
D03*
Y94945D02*
D03*
X290945Y98945D02*
D03*
X284017Y94945D02*
D03*
X652127Y86945D02*
D03*
X659055Y82945D02*
D03*
X665983Y86945D02*
D03*
Y94945D02*
D03*
X659055Y98945D02*
D03*
X652127Y94945D02*
D03*
Y455055D02*
D03*
X659055Y451055D02*
D03*
X665983Y455055D02*
D03*
Y463055D02*
D03*
X659055Y467055D02*
D03*
X652127Y463055D02*
D03*
M02*
