G04*
G04 #@! TF.GenerationSoftware,Altium Limited,Altium Designer,21.9.2 (33)*
G04*
G04 Layer_Color=16711935*
%FSLAX25Y25*%
%MOIN*%
G70*
G04*
G04 #@! TF.SameCoordinates,73920E6A-4BEC-4EA8-B9E3-355B446DA2E4*
G04*
G04*
G04 #@! TF.FilePolarity,Negative*
G04*
G01*
G75*
%ADD46C,0.06800*%
%ADD47O,0.04737X0.07099*%
%ADD48O,0.04737X0.09068*%
%ADD50C,0.03359*%
%ADD52C,0.04737*%
D46*
X642500Y240000D02*
D03*
X632500D02*
D03*
X642500Y250000D02*
D03*
X632500D02*
D03*
X642500Y260000D02*
D03*
X632500D02*
D03*
X642500Y270000D02*
D03*
X632500D02*
D03*
X642500Y280000D02*
D03*
X632500D02*
D03*
X642500Y290000D02*
D03*
X632500D02*
D03*
X642500Y300000D02*
D03*
X632500D02*
D03*
X642500Y310000D02*
D03*
X632500D02*
D03*
D47*
X608258Y465000D02*
D03*
X574242D02*
D03*
X375758D02*
D03*
X341742D02*
D03*
D48*
X574242Y448661D02*
D03*
X608258D02*
D03*
X341742D02*
D03*
X375758D02*
D03*
D50*
X602628Y450630D02*
D03*
X579872D02*
D03*
X370128D02*
D03*
X347372D02*
D03*
D52*
X284017Y455055D02*
D03*
X290945Y451055D02*
D03*
X297873Y455055D02*
D03*
Y463055D02*
D03*
X290945Y467055D02*
D03*
X284017Y463055D02*
D03*
Y86945D02*
D03*
X290945Y82945D02*
D03*
X297873Y86945D02*
D03*
Y94945D02*
D03*
X290945Y98945D02*
D03*
X284017Y94945D02*
D03*
X652127Y86945D02*
D03*
X659055Y82945D02*
D03*
X665983Y86945D02*
D03*
Y94945D02*
D03*
X659055Y98945D02*
D03*
X652127Y94945D02*
D03*
Y455055D02*
D03*
X659055Y451055D02*
D03*
X665983Y455055D02*
D03*
Y463055D02*
D03*
X659055Y467055D02*
D03*
X652127Y463055D02*
D03*
M02*
